<?xml version="1.0" encoding="utf-8"?>
<!-- Generator: Adobe Illustrator 17.1.0, SVG Export Plug-In . SVG Version: 6.00 Build 0)  -->
<!DOCTYPE svg PUBLIC "-//W3C//DTD SVG 1.1//EN" "http://www.w3.org/Graphics/SVG/1.1/DTD/svg11.dtd" [
	<!ENTITY ns_extend "http://ns.adobe.com/Extensibility/1.0/">
	<!ENTITY ns_ai "http://ns.adobe.com/AdobeIllustrator/10.0/">
	<!ENTITY ns_graphs "http://ns.adobe.com/Graphs/1.0/">
	<!ENTITY ns_vars "http://ns.adobe.com/Variables/1.0/">
	<!ENTITY ns_imrep "http://ns.adobe.com/ImageReplacement/1.0/">
	<!ENTITY ns_sfw "http://ns.adobe.com/SaveForWeb/1.0/">
	<!ENTITY ns_custom "http://ns.adobe.com/GenericCustomNamespace/1.0/">
	<!ENTITY ns_adobe_xpath "http://ns.adobe.com/XPath/1.0/">
]>
<svg version="1.1" id="Layer_1" xmlns:x="&ns_extend;" xmlns:i="&ns_ai;" xmlns:graph="&ns_graphs;"
	 xmlns="http://www.w3.org/2000/svg" xmlns:xlink="http://www.w3.org/1999/xlink" x="0px" y="0px" viewBox="0 0 464.3 276.7"
	 enable-background="new 0 0 464.3 276.7" xml:space="preserve">
<metadata>
	<sfw  xmlns="&ns_sfw;">
		<slices></slices>
		<sliceSourceBounds  bottomLeftOrigin="true" width="464.3" height="276.7" x="88.2" y="295.9"></sliceSourceBounds>
	</sfw>
</metadata>
<g>
	<g>
		<path d="M313.9,89.5c0.3,0,0.6,0.1,0.8,0.2c0.1,0.1,0.3,0.2,0.4,0.4l0.8-2.8c0-0.1,0-0.1,0-0.2c0-0.1,0-0.1,0-0.2
			c0-0.2-0.1-0.3-0.2-0.4c-0.1-0.1-0.3-0.1-0.5-0.1h-0.3v-0.5l0.7-0.1c0.6,0,1-0.1,1.3-0.1c0.3-0.1,0.8-0.1,1.5-0.3l-1.9,7
			c-0.2,0.5-0.3,1.3-0.6,2.2c-0.2,0.9-0.4,1.5-0.4,1.6c0,0.1,0,0.1,0.1,0.2c0,0,0.1,0.1,0.2,0.1c0.1,0,0.3-0.1,0.5-0.4
			c0.2-0.3,0.4-0.6,0.6-0.8l0.4,0.3c-0.4,0.7-0.8,1.2-1.1,1.4c-0.5,0.5-1,0.8-1.4,0.8c-0.2,0-0.5-0.1-0.6-0.2
			c-0.3-0.2-0.4-0.5-0.4-0.9c0-0.1,0-0.2,0-0.4c0-0.2,0.1-0.4,0.1-0.7c-0.4,0.7-0.8,1.2-1.1,1.4c-0.5,0.5-1.1,0.8-1.7,0.8
			c-0.5,0-0.9-0.2-1.3-0.6c-0.4-0.4-0.5-1-0.5-1.8c0-1.2,0.5-2.5,1.5-3.8C311.8,90.1,312.9,89.5,313.9,89.5L313.9,89.5z M311.4,95.4
			c0,0.3,0.1,0.5,0.2,0.7c0.1,0.2,0.3,0.3,0.5,0.3c0.7,0,1.3-0.8,1.9-2.4c0.5-1.3,0.8-2.3,0.8-2.9c0-0.2,0-0.4-0.1-0.5
			c-0.1-0.2-0.3-0.4-0.6-0.4c-0.6,0-1.3,0.7-1.9,2.1C311.7,93.6,311.4,94.6,311.4,95.4L311.4,95.4z M316.7,97
			c0.3-0.1,0.5-0.2,0.7-0.3c0.2-0.2,0.5-0.5,0.7-0.9l6.3-10.1h0.4l1.6,9.8c0.1,0.7,0.2,1.1,0.4,1.2c0.2,0.1,0.5,0.2,1,0.3v0.4h-5.2
			V97c0.5,0,0.8-0.1,1-0.2c0.2-0.1,0.3-0.4,0.3-0.8c0-0.1,0-0.4-0.1-0.9c0-0.1-0.1-0.5-0.2-1.3h-3.6l-1,1.8
			c-0.1,0.1-0.1,0.2-0.2,0.4c-0.1,0.1-0.1,0.3-0.1,0.4c0,0.2,0.1,0.4,0.2,0.5c0.1,0.1,0.4,0.1,0.9,0.2v0.4h-3.3V97z M323.8,93.1
			l-0.6-4.2l-2.5,4.2H323.8z"/>
		<path d="M341.3,92.8h-7.9v-1.2h7.9V92.8z M341.3,95h-7.9v-1.2h7.9V95z"/>
		<path d="M348.1,93c0-1.5,0.3-2.9,1-4.2c0.8-1.4,1.9-2.6,3.4-3.4v0.5c-0.9,0.7-1.5,1.3-1.8,1.9c-0.4,1-0.7,2.7-0.7,5
			c0,2.4,0.2,4,0.7,5c0.3,0.6,0.9,1.3,1.8,1.9v0.5c-1.2-0.6-2.1-1.4-2.9-2.5C348.7,96.5,348.2,94.9,348.1,93L348.1,93z"/>
		<path d="M353.9,97.4c0.5-1.6,0.9-3.1,1.2-4.2c0.3-1.3,0.5-2,0.5-2.3c0-0.2-0.1-0.3-0.2-0.4c-0.1-0.1-0.4-0.1-0.7-0.1v-0.5
			c0.7,0,1.3-0.1,1.8-0.2c0.3,0,0.9-0.1,1.6-0.3l-1,3l0.1,0c0.5-1,0.9-1.6,1.2-2c0.5-0.7,1-1,1.5-1c0.3,0,0.6,0.1,0.7,0.3
			c0.2,0.2,0.2,0.5,0.2,0.7c0,0.3-0.1,0.6-0.3,0.9c-0.2,0.3-0.4,0.4-0.7,0.4c-0.1,0-0.3,0-0.4-0.1c-0.1-0.1-0.2-0.1-0.3-0.2
			l-0.2-0.2c0,0-0.1-0.1-0.1-0.1c0,0-0.1,0-0.1,0c-0.2,0-0.5,0.3-0.8,0.9c-0.3,0.6-0.6,1.2-0.9,1.8c-0.2,0.4-0.4,1-0.6,1.8
			c-0.2,0.8-0.4,1.3-0.5,1.7H353.9z M368.2,89.5c0.3,0,0.6,0.1,0.8,0.2c0.1,0.1,0.3,0.2,0.4,0.4l0.8-2.8c0-0.1,0-0.1,0-0.2
			c0-0.1,0-0.1,0-0.2c0-0.2-0.1-0.3-0.2-0.4c-0.1-0.1-0.3-0.1-0.5-0.1h-0.3v-0.5l0.7-0.1c0.6,0,1-0.1,1.3-0.1
			c0.3-0.1,0.8-0.1,1.5-0.3l-1.9,7c-0.2,0.5-0.3,1.3-0.6,2.2c-0.2,0.9-0.4,1.5-0.4,1.6c0,0.1,0,0.1,0.1,0.2c0,0,0.1,0.1,0.2,0.1
			c0.1,0,0.3-0.1,0.5-0.4c0.2-0.3,0.4-0.6,0.6-0.8l0.4,0.3c-0.4,0.7-0.8,1.2-1.1,1.4c-0.5,0.5-1,0.8-1.4,0.8c-0.2,0-0.5-0.1-0.6-0.2
			c-0.3-0.2-0.4-0.5-0.4-0.9c0-0.1,0-0.2,0-0.4c0-0.2,0.1-0.4,0.1-0.7c-0.4,0.7-0.8,1.2-1.1,1.4c-0.5,0.5-1.1,0.8-1.7,0.8
			c-0.5,0-0.9-0.2-1.3-0.6c-0.4-0.4-0.5-1-0.5-1.8c0-1.2,0.5-2.5,1.5-3.8C366.1,90.1,367.2,89.5,368.2,89.5L368.2,89.5z M365.7,95.4
			c0,0.3,0.1,0.5,0.2,0.7c0.1,0.2,0.3,0.3,0.5,0.3c0.7,0,1.3-0.8,1.9-2.4c0.5-1.3,0.8-2.3,0.8-2.9c0-0.2,0-0.4-0.1-0.5
			c-0.1-0.2-0.3-0.4-0.6-0.4c-0.6,0-1.3,0.7-1.9,2.1C366,93.6,365.7,94.6,365.7,95.4L365.7,95.4z"/>
		<path d="M378.9,85.8c1.2,0,1.9,0.5,2.4,1.5c0.4,1,0.4,2.4,0,4.2c-0.4,2-1.1,3.5-1.9,4.5c-0.8,1.1-1.9,1.6-3,1.6
			c-1.2,0-2-0.5-2.4-1.5c-0.4-1-0.4-2.5,0-4.5c0.4-1.8,1-3.3,1.9-4.3C376.8,86.3,377.8,85.8,378.9,85.8z M375.6,91.6l-0.1,0.4
			c-0.4,1.9-0.6,3.2-0.4,4c0.1,0.8,0.6,1.1,1.3,1.1c0.7,0,1.3-0.4,1.8-1.1c0.5-0.7,0.9-2.2,1.4-4.4H375.6z M379.8,91
			c0-0.1,0-0.2,0.1-0.3c0-0.1,0.1-0.2,0.1-0.3c0.3-1.4,0.4-2.5,0.2-3.2c-0.2-0.7-0.6-1-1.3-1c-0.7,0-1.3,0.4-1.8,1.1
			c-0.5,0.8-0.9,2-1.3,3.7H379.8z"/>
		<path d="M388.1,93c-0.1,1.2-0.3,2.3-0.7,3.2c-0.4,0.9-0.9,1.8-1.7,2.6c-0.4,0.4-0.8,0.7-1.3,1.1c-0.5,0.3-0.8,0.5-0.8,0.5v-0.5
			c0.9-0.6,1.5-1.3,1.8-2c0.4-1,0.7-2.7,0.7-5c0-2.3-0.2-4-0.7-5c-0.3-0.6-0.9-1.3-1.8-1.9v-0.5c1.5,0.8,2.6,1.9,3.4,3.3
			C387.7,90,388.1,91.4,388.1,93L388.1,93z M389.4,93c0-1.5,0.3-2.9,1-4.2c0.8-1.4,1.9-2.6,3.4-3.4v0.5c-0.9,0.7-1.5,1.3-1.8,1.9
			c-0.4,1-0.7,2.7-0.7,5c0,2.4,0.2,4,0.7,5c0.3,0.6,0.9,1.3,1.8,1.9v0.5c-1.2-0.6-2.1-1.4-2.9-2.5C390,96.5,389.5,94.9,389.4,93
			L389.4,93z"/>
		<path d="M395.1,97.4c0.5-1.6,0.9-3.1,1.2-4.2c0.3-1.3,0.5-2,0.5-2.3c0-0.2-0.1-0.3-0.2-0.4c-0.1-0.1-0.4-0.1-0.7-0.1v-0.5
			c0.7,0,1.3-0.1,1.8-0.2c0.3,0,0.9-0.1,1.6-0.3l-0.9,3l0.1,0c0.5-1,0.9-1.6,1.2-2c0.5-0.7,1-1,1.5-1c0.3,0,0.6,0.1,0.7,0.3
			c0.2,0.2,0.2,0.5,0.2,0.7c0,0.3-0.1,0.6-0.3,0.9c-0.2,0.3-0.4,0.4-0.7,0.4c-0.1,0-0.3,0-0.4-0.1c-0.1-0.1-0.2-0.1-0.3-0.2
			l-0.2-0.2c0,0-0.1-0.1-0.1-0.1c0,0-0.1,0-0.1,0c-0.2,0-0.5,0.3-0.8,0.9c-0.3,0.6-0.6,1.2-0.9,1.8c-0.2,0.4-0.4,1-0.6,1.8
			c-0.2,0.8-0.4,1.3-0.5,1.7H395.1z"/>
		<path d="M404.8,94.8h0.5c0.2,0.8,0.5,1.4,0.9,1.7c0.5,0.3,0.9,0.5,1.4,0.5c0.4,0,0.8-0.1,1-0.3c0.2-0.2,0.3-0.5,0.3-0.8
			c0-0.3-0.1-0.6-0.3-0.8c-0.1-0.1-0.3-0.2-0.6-0.4l-1.3-0.6c-0.7-0.3-1.1-0.7-1.4-1.1c-0.3-0.4-0.4-0.8-0.4-1.4
			c0-0.7,0.2-1.2,0.7-1.7c0.5-0.5,1.1-0.7,1.9-0.7c0.4,0,0.7,0.1,1.1,0.2c0.4,0.1,0.7,0.2,0.8,0.2c0.1,0,0.2,0,0.3-0.1
			c0.1-0.1,0.1-0.1,0.1-0.3h0.4v2.5h-0.4c-0.2-0.6-0.4-1-0.8-1.4c-0.4-0.4-0.8-0.5-1.3-0.5c-0.4,0-0.7,0.1-0.8,0.3
			c-0.2,0.2-0.3,0.4-0.3,0.7c0,0.2,0.1,0.4,0.2,0.6c0.2,0.2,0.5,0.4,0.9,0.6l0.9,0.5c0.6,0.3,1,0.6,1.3,0.8c0.4,0.4,0.7,1,0.7,1.7
			c0,0.6-0.2,1.2-0.7,1.8c-0.5,0.6-1.1,0.8-2.1,0.8c-0.2,0-0.5,0-0.7-0.1c-0.2,0-0.5-0.1-0.9-0.2l-0.3-0.1c-0.1,0-0.2-0.1-0.2-0.1
			c0,0-0.1,0-0.1,0c-0.1,0-0.2,0-0.2,0.1c-0.1,0.1-0.1,0.2-0.2,0.4h-0.4V94.8z M411.2,97c0.3-0.1,0.5-0.1,0.6-0.2
			c0.2-0.2,0.2-0.4,0.2-0.8v-5.1c0-0.4-0.1-0.6-0.2-0.7c-0.1-0.1-0.3-0.2-0.7-0.3v-0.4h3.3V96c0,0.4,0.1,0.6,0.2,0.7
			c0.1,0.1,0.3,0.2,0.6,0.3v0.4h-4.1V97z M412,86.8c0-0.4,0.1-0.7,0.4-0.9c0.3-0.3,0.6-0.4,0.9-0.4c0.4,0,0.7,0.1,0.9,0.4
			c0.3,0.3,0.4,0.6,0.4,0.9c0,0.4-0.1,0.7-0.4,0.9c-0.3,0.3-0.6,0.4-0.9,0.4c-0.4,0-0.7-0.1-0.9-0.4C412.1,87.5,412,87.2,412,86.8
			L412,86.8z M416,97c0.3,0,0.5-0.1,0.7-0.3c0.1-0.1,0.2-0.4,0.2-0.8v-5.1c0-0.4-0.1-0.6-0.2-0.7c-0.1-0.1-0.4-0.2-0.7-0.3v-0.4h3.2
			v1.2c0.3-0.4,0.6-0.8,1-1c0.4-0.3,0.9-0.4,1.4-0.4c0.7,0,1.3,0.2,1.7,0.6c0.4,0.4,0.6,1,0.6,2V96c0,0.4,0.1,0.6,0.2,0.8
			c0.1,0.1,0.3,0.2,0.7,0.2v0.4h-4V97c0.3-0.1,0.5-0.1,0.6-0.3c0.1-0.1,0.2-0.3,0.2-0.7v-4.2c0-0.4,0-0.7-0.1-0.9
			c-0.1-0.4-0.4-0.5-0.8-0.5c-0.3,0-0.6,0.1-0.8,0.3c-0.2,0.2-0.4,0.4-0.6,0.7V96c0,0.4,0.1,0.6,0.2,0.7c0.1,0.1,0.3,0.2,0.6,0.3
			v0.4H416V97z"/>
		<path d="M433.6,85.8c1.2,0,1.9,0.5,2.4,1.5c0.4,1,0.4,2.4,0,4.2c-0.4,2-1.1,3.5-1.9,4.5c-0.8,1.1-1.9,1.6-3,1.6
			c-1.2,0-2-0.5-2.4-1.5c-0.4-1-0.4-2.5,0-4.5c0.4-1.8,1-3.3,1.9-4.3C431.4,86.3,432.4,85.8,433.6,85.8z M430.3,91.6l-0.1,0.4
			c-0.4,1.9-0.6,3.2-0.4,4c0.1,0.8,0.6,1.1,1.3,1.1c0.7,0,1.3-0.4,1.8-1.1c0.5-0.7,0.9-2.2,1.4-4.4H430.3z M434.4,91
			c0-0.1,0-0.2,0.1-0.3c0-0.1,0.1-0.2,0.1-0.3c0.3-1.4,0.4-2.5,0.2-3.2c-0.2-0.7-0.6-1-1.3-1c-0.7,0-1.3,0.4-1.8,1.1
			c-0.5,0.8-0.9,2-1.3,3.7H434.4z"/>
		<path d="M444.4,89.5c0.3,0,0.6,0.1,0.8,0.2c0.1,0.1,0.3,0.2,0.4,0.4l0.8-2.8c0-0.1,0-0.1,0-0.2c0-0.1,0-0.1,0-0.2
			c0-0.2-0.1-0.3-0.2-0.4c-0.1-0.1-0.3-0.1-0.5-0.1h-0.3v-0.5l0.7-0.1c0.6,0,1-0.1,1.3-0.1c0.3-0.1,0.8-0.1,1.5-0.3l-1.9,7
			c-0.2,0.5-0.3,1.3-0.6,2.2c-0.2,0.9-0.4,1.5-0.4,1.6c0,0.1,0,0.1,0.1,0.2c0,0,0.1,0.1,0.2,0.1c0.1,0,0.3-0.1,0.5-0.4
			c0.2-0.3,0.4-0.6,0.6-0.8l0.4,0.3c-0.4,0.7-0.8,1.2-1.1,1.4c-0.5,0.5-1,0.8-1.4,0.8c-0.2,0-0.5-0.1-0.6-0.2
			c-0.3-0.2-0.4-0.5-0.4-0.9c0-0.1,0-0.2,0-0.4c0-0.2,0.1-0.4,0.1-0.7c-0.4,0.7-0.8,1.2-1.1,1.4c-0.5,0.5-1.1,0.8-1.7,0.8
			c-0.5,0-0.9-0.2-1.3-0.6c-0.4-0.4-0.5-1-0.5-1.8c0-1.2,0.5-2.5,1.5-3.8C442.3,90.1,443.4,89.5,444.4,89.5L444.4,89.5z M441.9,95.4
			c0,0.3,0.1,0.5,0.2,0.7c0.1,0.2,0.3,0.3,0.5,0.3c0.7,0,1.3-0.8,1.9-2.4c0.5-1.3,0.8-2.3,0.8-2.9c0-0.2,0-0.4-0.1-0.5
			c-0.1-0.2-0.3-0.4-0.6-0.4c-0.6,0-1.3,0.7-1.9,2.1C442.2,93.6,441.9,94.6,441.9,95.4L441.9,95.4z"/>
		<path d="M454.7,89.5c1.1,0,1.8,0.4,2.3,1.2c0.5,0.7,0.6,1.7,0.4,2.9c-0.2,1.1-0.8,2.1-1.5,2.8c-0.8,0.7-1.7,1.1-2.7,1.2l-0.8,3.5
			h-1.2l0.8-3.5c-1-0.1-1.7-0.5-2.2-1.2c-0.5-0.7-0.6-1.7-0.3-2.8c0.3-1.2,0.8-2.1,1.6-2.9c0.8-0.7,1.8-1.1,2.9-1.2l0.8-3.3h0.7
			L454.7,89.5z M453.7,89.9c-0.6,0.1-1.2,0.4-1.8,1.1c-0.5,0.7-0.9,1.5-1.1,2.5c-0.2,1-0.2,1.8,0,2.4c0.2,0.6,0.6,1,1.2,1.1
			L453.7,89.9z M454.6,89.9l-1.4,7.1c0.6-0.1,1.2-0.5,1.7-1.1c0.5-0.6,0.8-1.4,1-2.4c0.2-1,0.2-1.8-0.1-2.5
			C455.7,90.4,455.2,90,454.6,89.9z"/>
		<path d="M464.3,93c-0.1,1.2-0.3,2.3-0.7,3.2c-0.4,0.9-0.9,1.8-1.7,2.6c-0.4,0.4-0.8,0.7-1.3,1.1c-0.5,0.3-0.8,0.5-0.8,0.5v-0.5
			c0.9-0.6,1.5-1.3,1.8-2c0.4-1,0.7-2.7,0.7-5c0-2.3-0.2-4-0.7-5c-0.3-0.6-0.9-1.3-1.8-1.9v-0.5c1.5,0.8,2.6,1.9,3.4,3.3
			C464,90,464.3,91.4,464.3,93L464.3,93z"/>
		<path d="M341.3,121.7h-7.9v-1.2h7.9V121.7z M341.3,123.9h-7.9v-1.2h7.9V123.9z"/>
		<path d="M348.2,126.3c0.5-1.6,0.9-3.1,1.2-4.2c0.3-1.3,0.5-2,0.5-2.3c0-0.2-0.1-0.3-0.2-0.4c-0.1-0.1-0.4-0.1-0.7-0.1v-0.5
			c0.7,0,1.3-0.1,1.8-0.2c0.3,0,0.9-0.1,1.6-0.3l-1,3l0.1,0c0.5-1,0.9-1.6,1.2-2c0.5-0.7,1-1,1.5-1c0.3,0,0.6,0.1,0.7,0.3
			c0.2,0.2,0.2,0.5,0.2,0.7c0,0.3-0.1,0.6-0.3,0.9c-0.2,0.3-0.4,0.4-0.7,0.4c-0.1,0-0.3,0-0.4-0.1c-0.1-0.1-0.2-0.1-0.3-0.2
			l-0.2-0.2c0,0-0.1-0.1-0.1-0.1c0,0-0.1,0-0.1,0c-0.2,0-0.5,0.3-0.8,0.9c-0.3,0.6-0.6,1.2-0.9,1.8c-0.2,0.4-0.4,1-0.6,1.8
			c-0.2,0.8-0.4,1.3-0.5,1.7H348.2z"/>
		<path d="M356.5,118.5c1.1-1.2,1.7-2,2.1-2.4c0.5-0.7,0.7-1.3,0.7-1.8c0-0.3-0.1-0.6-0.3-0.9c-0.2-0.3-0.5-0.4-0.9-0.4
			c-0.3,0-0.6,0.1-0.9,0.4c-0.1,0.1-0.2,0.3-0.3,0.5h-0.3c0.2-0.7,0.5-1.2,0.9-1.5c0.4-0.3,0.8-0.5,1.3-0.5c0.5,0,0.9,0.2,1.3,0.5
			c0.4,0.3,0.6,0.8,0.6,1.4c0,0.3-0.1,0.7-0.3,1c-0.2,0.3-0.5,0.7-0.9,1.1l-1.5,1.5v0.1h1.4c0.5,0,0.8,0,1-0.1
			c0.2-0.1,0.3-0.3,0.5-0.7h0.2l-0.4,2.1h-4.1V118.5z"/>
		<path d="M365.1,123.7h0.5c0.2,0.8,0.5,1.4,0.9,1.7c0.5,0.3,0.9,0.5,1.4,0.5c0.4,0,0.8-0.1,1-0.3c0.2-0.2,0.3-0.5,0.3-0.8
			c0-0.3-0.1-0.6-0.3-0.8c-0.1-0.1-0.3-0.2-0.6-0.4l-1.3-0.6c-0.7-0.3-1.1-0.7-1.4-1.1c-0.3-0.4-0.4-0.8-0.4-1.4
			c0-0.7,0.2-1.2,0.7-1.7c0.5-0.5,1.1-0.7,1.9-0.7c0.4,0,0.7,0.1,1.1,0.2c0.4,0.1,0.7,0.2,0.8,0.2c0.1,0,0.2,0,0.3-0.1
			c0.1-0.1,0.1-0.1,0.1-0.3h0.4v2.5H370c-0.2-0.6-0.4-1-0.8-1.4c-0.4-0.4-0.8-0.5-1.3-0.5c-0.4,0-0.7,0.1-0.8,0.3
			c-0.2,0.2-0.3,0.4-0.3,0.7c0,0.2,0.1,0.4,0.2,0.6c0.2,0.2,0.5,0.4,0.9,0.6l0.9,0.5c0.6,0.3,1,0.6,1.3,0.8c0.4,0.4,0.7,1,0.7,1.7
			c0,0.6-0.2,1.2-0.7,1.8c-0.5,0.6-1.1,0.8-2.1,0.8c-0.2,0-0.5,0-0.7-0.1c-0.2,0-0.5-0.1-0.9-0.2l-0.3-0.1c-0.1,0-0.2-0.1-0.2-0.1
			c0,0-0.1,0-0.1,0c-0.1,0-0.2,0-0.2,0.1c-0.1,0.1-0.1,0.2-0.2,0.4h-0.4V123.7z M371.6,125.9c0.3-0.1,0.5-0.1,0.6-0.2
			c0.2-0.2,0.2-0.4,0.2-0.8v-5.1c0-0.4-0.1-0.6-0.2-0.7c-0.1-0.1-0.3-0.2-0.7-0.3v-0.4h3.3v6.5c0,0.4,0.1,0.6,0.2,0.7
			c0.1,0.1,0.3,0.2,0.6,0.3v0.4h-4.1V125.9z M372.3,115.7c0-0.4,0.1-0.7,0.4-0.9c0.3-0.3,0.6-0.4,0.9-0.4c0.4,0,0.7,0.1,0.9,0.4
			c0.3,0.3,0.4,0.6,0.4,0.9c0,0.4-0.1,0.7-0.4,0.9c-0.3,0.3-0.6,0.4-0.9,0.4c-0.4,0-0.7-0.1-0.9-0.4
			C372.5,116.4,372.3,116.1,372.3,115.7L372.3,115.7z M376.3,125.9c0.3,0,0.5-0.1,0.7-0.3c0.1-0.1,0.2-0.4,0.2-0.8v-5.1
			c0-0.4-0.1-0.6-0.2-0.7c-0.1-0.1-0.4-0.2-0.7-0.3v-0.4h3.2v1.2c0.3-0.4,0.6-0.8,1-1c0.4-0.3,0.9-0.4,1.4-0.4
			c0.7,0,1.3,0.2,1.7,0.6c0.4,0.4,0.6,1,0.6,2v4.2c0,0.4,0.1,0.6,0.2,0.8c0.1,0.1,0.3,0.2,0.7,0.2v0.4h-4v-0.4
			c0.3-0.1,0.5-0.1,0.6-0.3c0.1-0.1,0.2-0.3,0.2-0.7v-4.2c0-0.4,0-0.7-0.1-0.9c-0.1-0.4-0.4-0.5-0.8-0.5c-0.3,0-0.6,0.1-0.8,0.3
			c-0.2,0.2-0.4,0.4-0.6,0.7v4.6c0,0.4,0.1,0.6,0.2,0.7c0.1,0.1,0.3,0.2,0.6,0.3v0.4h-4.1V125.9z"/>
		<path d="M393.9,114.7c1.2,0,1.9,0.5,2.4,1.5c0.4,1,0.4,2.4,0,4.2c-0.4,2-1.1,3.5-1.9,4.5c-0.8,1.1-1.9,1.6-3,1.6
			c-1.2,0-2-0.5-2.4-1.5c-0.4-1-0.4-2.5,0-4.5c0.4-1.8,1-3.3,1.9-4.3C391.8,115.2,392.8,114.7,393.9,114.7z M390.6,120.5l-0.1,0.4
			c-0.4,1.9-0.6,3.2-0.4,4c0.1,0.8,0.6,1.1,1.3,1.1c0.7,0,1.3-0.4,1.8-1.1c0.5-0.7,0.9-2.2,1.4-4.4H390.6z M394.8,119.9
			c0-0.1,0-0.2,0.1-0.3c0-0.1,0.1-0.2,0.1-0.3c0.3-1.4,0.4-2.5,0.2-3.2c-0.2-0.7-0.6-1-1.3-1c-0.7,0-1.3,0.4-1.8,1.1
			c-0.5,0.8-0.9,2-1.3,3.7H394.8z"/>
		<path d="M404.7,118.4c0.3,0,0.6,0.1,0.8,0.2c0.1,0.1,0.3,0.2,0.4,0.4l0.8-2.8c0-0.1,0-0.1,0-0.2c0-0.1,0-0.1,0-0.2
			c0-0.2-0.1-0.3-0.2-0.4c-0.1-0.1-0.3-0.1-0.5-0.1h-0.3v-0.5l0.7-0.1c0.6,0,1-0.1,1.3-0.2c0.3,0,0.8-0.1,1.5-0.3l-1.9,7
			c-0.2,0.5-0.3,1.3-0.6,2.2c-0.2,0.9-0.4,1.5-0.4,1.6c0,0.1,0,0.1,0.1,0.2c0,0,0.1,0.1,0.2,0.1c0.1,0,0.3-0.1,0.5-0.4
			c0.2-0.3,0.4-0.5,0.6-0.8l0.4,0.3c-0.4,0.7-0.8,1.2-1.1,1.4c-0.5,0.5-1,0.8-1.4,0.8c-0.2,0-0.5-0.1-0.6-0.2
			c-0.3-0.2-0.4-0.5-0.4-0.9c0-0.1,0-0.2,0-0.4c0-0.2,0.1-0.4,0.1-0.7c-0.4,0.7-0.8,1.2-1.1,1.4c-0.5,0.5-1.1,0.8-1.7,0.8
			c-0.5,0-0.9-0.2-1.3-0.6c-0.4-0.4-0.5-1-0.5-1.7c0-1.2,0.5-2.5,1.5-3.8C402.7,119,403.7,118.4,404.7,118.4L404.7,118.4z
			 M402.2,124.3c0,0.3,0.1,0.5,0.2,0.7c0.1,0.2,0.3,0.3,0.5,0.3c0.7,0,1.3-0.8,1.9-2.4c0.5-1.3,0.8-2.3,0.8-2.9c0-0.2,0-0.4-0.1-0.5
			c-0.1-0.2-0.3-0.4-0.6-0.4c-0.6,0-1.3,0.7-1.9,2.1C402.5,122.5,402.2,123.5,402.2,124.3L402.2,124.3z"/>
		<path d="M415.4,114.7c1.2,0,1.9,0.5,2.4,1.5c0.4,1,0.4,2.4,0,4.2c-0.4,2-1.1,3.5-1.9,4.5c-0.8,1.1-1.9,1.6-3,1.6
			c-1.2,0-2-0.5-2.4-1.5c-0.4-1-0.4-2.5,0-4.5c0.4-1.8,1-3.3,1.9-4.3C413.3,115.2,414.3,114.7,415.4,114.7z M412.1,120.5l-0.1,0.4
			c-0.4,1.9-0.6,3.2-0.4,4c0.1,0.8,0.6,1.1,1.3,1.1c0.7,0,1.3-0.4,1.8-1.1c0.5-0.7,0.9-2.2,1.4-4.4H412.1z M416.3,119.9
			c0-0.1,0-0.2,0.1-0.3c0-0.1,0.1-0.2,0.1-0.3c0.3-1.4,0.4-2.5,0.2-3.2c-0.2-0.7-0.6-1-1.3-1c-0.7,0-1.3,0.4-1.8,1.1
			c-0.5,0.8-0.9,2-1.3,3.7H416.3z"/>
		<path d="M426.2,118.4c0.3,0,0.6,0.1,0.8,0.2c0.1,0.1,0.3,0.2,0.4,0.4l0.8-2.8c0-0.1,0-0.1,0-0.2c0-0.1,0-0.1,0-0.2
			c0-0.2-0.1-0.3-0.2-0.4c-0.1-0.1-0.3-0.1-0.5-0.1h-0.3v-0.5l0.7-0.1c0.6,0,1-0.1,1.3-0.2c0.3,0,0.8-0.1,1.5-0.3l-1.9,7
			c-0.2,0.5-0.3,1.3-0.6,2.2c-0.2,0.9-0.4,1.5-0.4,1.6c0,0.1,0,0.1,0.1,0.2s0.1,0.1,0.2,0.1c0.1,0,0.3-0.1,0.5-0.4
			c0.2-0.3,0.4-0.5,0.6-0.8l0.4,0.3c-0.4,0.7-0.8,1.2-1.1,1.4c-0.5,0.5-1,0.8-1.4,0.8c-0.2,0-0.5-0.1-0.6-0.2
			c-0.3-0.2-0.4-0.5-0.4-0.9c0-0.1,0-0.2,0-0.4c0-0.2,0.1-0.4,0.1-0.7c-0.4,0.7-0.8,1.2-1.1,1.4c-0.5,0.5-1.1,0.8-1.7,0.8
			c-0.5,0-0.9-0.2-1.3-0.6c-0.4-0.4-0.5-1-0.5-1.7c0-1.2,0.5-2.5,1.5-3.8C424.2,119,425.2,118.4,426.2,118.4L426.2,118.4z
			 M423.7,124.3c0,0.3,0.1,0.5,0.2,0.7c0.1,0.2,0.3,0.3,0.5,0.3c0.7,0,1.3-0.8,1.9-2.4c0.5-1.3,0.8-2.3,0.8-2.9c0-0.2,0-0.4-0.1-0.5
			c-0.1-0.2-0.3-0.4-0.6-0.4c-0.6,0-1.3,0.7-1.9,2.1C424,122.5,423.7,123.5,423.7,124.3L423.7,124.3z"/>
		<path d="M436.6,118.3c1.1,0,1.8,0.4,2.3,1.2c0.5,0.7,0.6,1.7,0.4,2.9c-0.2,1.1-0.8,2.1-1.5,2.8c-0.8,0.7-1.7,1.1-2.7,1.2l-0.8,3.5
			H433l0.8-3.5c-1-0.1-1.7-0.5-2.2-1.2c-0.5-0.7-0.6-1.7-0.3-2.8c0.3-1.2,0.8-2.1,1.6-2.9c0.8-0.7,1.8-1.1,2.9-1.2l0.8-3.3h0.7
			L436.6,118.3z M435.6,118.8c-0.6,0.1-1.2,0.4-1.8,1.1c-0.5,0.7-0.9,1.5-1.1,2.5c-0.2,1-0.2,1.8,0,2.4c0.2,0.6,0.6,1,1.2,1.1
			L435.6,118.8z M436.5,118.8l-1.4,7.1c0.6-0.1,1.2-0.5,1.7-1.1c0.5-0.6,0.8-1.4,1-2.4c0.2-1,0.2-1.8-0.1-2.5
			C437.5,119.3,437.1,118.9,436.5,118.8z"/>
		<path d="M311.8,177.6c0.3,0,0.6,0.1,0.8,0.2c0.1,0.1,0.3,0.2,0.4,0.4l0.8-2.8c0-0.1,0-0.1,0-0.2c0-0.1,0-0.1,0-0.2
			c0-0.2-0.1-0.3-0.2-0.4c-0.1-0.1-0.3-0.1-0.5-0.1h-0.3V174l0.7-0.1c0.6,0,1-0.1,1.3-0.2c0.3,0,0.8-0.1,1.5-0.3l-1.9,6.9
			c-0.1,0.5-0.3,1.3-0.6,2.2c-0.2,0.9-0.4,1.5-0.4,1.6c0,0.1,0,0.1,0.1,0.2c0,0,0.1,0.1,0.2,0.1c0.1,0,0.3-0.1,0.5-0.4
			c0.2-0.3,0.4-0.5,0.6-0.8l0.4,0.3c-0.4,0.7-0.8,1.1-1.1,1.4c-0.5,0.5-1,0.7-1.4,0.7c-0.2,0-0.5-0.1-0.6-0.2
			c-0.3-0.2-0.4-0.5-0.4-0.9c0-0.1,0-0.2,0-0.4c0-0.2,0.1-0.4,0.1-0.7c-0.4,0.7-0.8,1.1-1.1,1.4c-0.5,0.5-1.1,0.8-1.7,0.8
			c-0.5,0-0.9-0.2-1.3-0.6c-0.4-0.4-0.5-1-0.5-1.7c0-1.2,0.5-2.5,1.5-3.8C309.8,178.2,310.8,177.6,311.8,177.6L311.8,177.6z
			 M309.4,183.4c0,0.3,0.1,0.5,0.2,0.7c0.1,0.2,0.3,0.3,0.5,0.3c0.7,0,1.3-0.8,1.9-2.4c0.5-1.3,0.8-2.3,0.8-2.9c0-0.2,0-0.4-0.1-0.5
			c-0.1-0.2-0.3-0.4-0.6-0.4c-0.6,0-1.3,0.7-1.9,2.1C309.7,181.7,309.4,182.7,309.4,183.4L309.4,183.4z"/>
		<path d="M324.8,178l0.1-0.5c1.1,0.1,1.9,0.5,2.3,1.2c0.4,0.7,0.5,1.7,0.3,2.9c-0.3,1.2-0.8,2.1-1.5,2.9c-0.7,0.7-1.6,1.1-2.5,1.1
			c-0.5,0-0.9-0.2-1.2-0.5c-0.3-0.3-0.4-0.9-0.5-1.6c-0.3,0.7-0.7,1.3-1.2,1.6c-0.4,0.4-0.9,0.5-1.5,0.5c-0.9,0-1.6-0.4-2-1.1
			c-0.4-0.7-0.5-1.7-0.2-2.9c0.3-1.2,0.8-2.2,1.5-2.9c0.8-0.7,1.7-1.1,2.8-1.2l-0.1,0.5c-0.7,0-1.2,0.3-1.6,0.8
			c-0.4,0.5-0.7,1.3-1,2.5c-0.3,1.4-0.4,2.4-0.3,2.9c0.1,0.6,0.5,0.9,1.1,0.9c0.5,0,0.9-0.2,1.3-0.6c0.4-0.4,0.6-1,0.8-1.8
			c0.1-0.4,0.1-0.9,0.2-1.6c0-0.6,0.1-1.1,0.1-1.3c0.1-0.3,0.2-0.5,0.3-0.6c0.2-0.1,0.4-0.2,0.6-0.2c0.3,0,0.4,0.1,0.5,0.2
			c0.1,0.1,0.1,0.4,0.1,0.6c-0.1,0.3-0.2,0.7-0.5,1.3c-0.2,0.6-0.4,1.2-0.5,1.5c-0.2,0.8-0.2,1.4,0,1.8c0.2,0.4,0.5,0.6,1,0.6
			c0.6,0,1-0.3,1.4-0.9c0.4-0.6,0.7-1.5,1-2.8c0.3-1.3,0.3-2.1,0.2-2.6C325.9,178.3,325.5,178,324.8,178z"/>
		<path d="M342.2,180.9h-7.9v-1.2h7.9V180.9z M342.2,183.1h-7.9V182h7.9V183.1z"/>
		<path d="M353.6,177.6c0.3,0,0.6,0.1,0.8,0.2c0.1,0.1,0.3,0.2,0.4,0.4l0.8-2.8c0-0.1,0-0.1,0-0.2c0-0.1,0-0.1,0-0.2
			c0-0.2-0.1-0.3-0.2-0.4c-0.1-0.1-0.3-0.1-0.5-0.1h-0.3V174l0.7-0.1c0.6,0,1-0.1,1.3-0.2c0.3,0,0.8-0.1,1.5-0.3l-1.9,6.9
			c-0.1,0.5-0.3,1.3-0.6,2.2c-0.2,0.9-0.4,1.5-0.4,1.6c0,0.1,0,0.1,0.1,0.2c0,0,0.1,0.1,0.2,0.1c0.1,0,0.3-0.1,0.5-0.4
			c0.2-0.3,0.4-0.5,0.6-0.8l0.4,0.3c-0.4,0.7-0.8,1.1-1.1,1.4c-0.5,0.5-1,0.7-1.4,0.7c-0.2,0-0.4-0.1-0.6-0.2
			c-0.3-0.2-0.4-0.5-0.4-0.9c0-0.1,0-0.2,0-0.4c0-0.2,0.1-0.4,0.1-0.7c-0.4,0.7-0.8,1.1-1.1,1.4c-0.5,0.5-1.1,0.8-1.7,0.8
			c-0.5,0-0.9-0.2-1.3-0.6c-0.4-0.4-0.5-1-0.5-1.7c0-1.2,0.5-2.5,1.5-3.8C351.6,178.2,352.6,177.6,353.6,177.6L353.6,177.6z
			 M351.2,183.4c0,0.3,0.1,0.5,0.2,0.7c0.1,0.2,0.3,0.3,0.5,0.3c0.7,0,1.3-0.8,1.9-2.4c0.5-1.3,0.8-2.3,0.8-2.9c0-0.2,0-0.4-0.1-0.5
			c-0.1-0.2-0.3-0.4-0.6-0.4c-0.6,0-1.3,0.7-1.9,2.1C351.5,181.7,351.2,182.7,351.2,183.4L351.2,183.4z M356.5,185
			c0.3-0.1,0.5-0.2,0.7-0.3c0.2-0.2,0.5-0.5,0.7-0.9l6.3-10h0.4l1.6,9.8c0.1,0.7,0.2,1.1,0.4,1.2c0.2,0.1,0.5,0.2,1,0.3v0.4h-5.1
			V185c0.5,0,0.8-0.1,1-0.2c0.2-0.1,0.3-0.4,0.3-0.7c0-0.1,0-0.4-0.1-0.9c0-0.1-0.1-0.5-0.2-1.2H360l-1,1.7
			c-0.1,0.1-0.1,0.2-0.2,0.4c-0.1,0.1-0.1,0.3-0.1,0.4c0,0.2,0.1,0.4,0.2,0.5c0.1,0.1,0.4,0.1,0.9,0.2v0.4h-3.3V185z M363.5,181.2
			l-0.6-4.1l-2.5,4.1H363.5z"/>
		<path d="M375.5,185.4c0.5-1.6,0.9-3,1.1-4.2c0.3-1.3,0.5-2,0.5-2.2c0-0.2-0.1-0.3-0.2-0.4c-0.1-0.1-0.4-0.1-0.7-0.1V178
			c0.7,0,1.3-0.1,1.8-0.2c0.3,0,0.9-0.1,1.6-0.3l-0.9,3l0.1,0c0.5-0.9,0.9-1.6,1.2-2c0.5-0.7,1-1,1.5-1c0.3,0,0.6,0.1,0.7,0.3
			c0.2,0.2,0.2,0.5,0.2,0.7c0,0.3-0.1,0.6-0.3,0.9c-0.2,0.3-0.4,0.4-0.7,0.4c-0.1,0-0.3,0-0.4-0.1c-0.1-0.1-0.2-0.1-0.3-0.3
			l-0.2-0.2c0,0-0.1-0.1-0.1-0.1c0,0-0.1,0-0.1,0c-0.2,0-0.5,0.3-0.8,0.9c-0.3,0.6-0.6,1.2-0.9,1.8c-0.2,0.4-0.4,1-0.6,1.8
			c-0.2,0.8-0.4,1.3-0.5,1.7H375.5z"/>
		<path d="M383.8,177.7c1.1-1.1,1.7-1.9,2.1-2.4c0.5-0.7,0.7-1.3,0.7-1.8c0-0.3-0.1-0.6-0.3-0.9s-0.5-0.4-0.9-0.4
			c-0.3,0-0.6,0.1-0.9,0.4c-0.1,0.1-0.2,0.3-0.3,0.5H384c0.2-0.7,0.5-1.2,0.9-1.5c0.4-0.3,0.8-0.5,1.3-0.5c0.5,0,0.9,0.2,1.2,0.5
			c0.4,0.3,0.6,0.8,0.6,1.4c0,0.3-0.1,0.7-0.3,1c-0.2,0.3-0.5,0.7-0.9,1.1l-1.5,1.5v0.1h1.4c0.5,0,0.8,0,1-0.1
			c0.1-0.1,0.3-0.3,0.5-0.7h0.2l-0.4,2.1h-4.1V177.7z"/>
		<polyline points="373.5,171.2 367.8,189 368.6,189 374.2,171.2 		"/>
		<path d="M342.2,206.8h-7.9v-1.2h7.9V206.8z M342.2,209.1h-7.9v-1.2h7.9V209.1z"/>
		<path d="M349,208.8h0.5c0.2,0.8,0.5,1.4,0.9,1.7c0.5,0.3,0.9,0.5,1.4,0.5c0.4,0,0.8-0.1,1-0.3c0.2-0.2,0.3-0.5,0.3-0.8
			c0-0.3-0.1-0.6-0.3-0.8c-0.1-0.1-0.3-0.2-0.6-0.4l-1.3-0.6c-0.7-0.3-1.1-0.7-1.4-1.1c-0.3-0.4-0.4-0.8-0.4-1.4
			c0-0.7,0.2-1.2,0.7-1.7c0.5-0.5,1.1-0.7,1.9-0.7c0.4,0,0.7,0.1,1.1,0.2c0.4,0.1,0.7,0.2,0.8,0.2c0.1,0,0.2,0,0.3-0.1
			c0.1-0.1,0.1-0.1,0.1-0.3h0.4v2.5h-0.4c-0.2-0.6-0.4-1-0.8-1.4c-0.4-0.4-0.8-0.5-1.3-0.5c-0.4,0-0.7,0.1-0.8,0.3
			c-0.2,0.2-0.3,0.4-0.3,0.7c0,0.2,0.1,0.4,0.2,0.6c0.2,0.2,0.5,0.4,0.9,0.6l0.9,0.5c0.6,0.3,1,0.5,1.3,0.8c0.4,0.4,0.7,1,0.7,1.6
			c0,0.6-0.2,1.2-0.7,1.8c-0.5,0.5-1.1,0.8-2,0.8c-0.2,0-0.5,0-0.7-0.1c-0.2,0-0.5-0.1-0.8-0.2l-0.3-0.1c-0.1,0-0.2-0.1-0.2-0.1
			c0,0-0.1,0-0.1,0c-0.1,0-0.2,0-0.2,0.1c-0.1,0.1-0.1,0.2-0.2,0.4H349V208.8z M355.4,211c0.3-0.1,0.5-0.1,0.6-0.2
			c0.2-0.1,0.2-0.4,0.2-0.8v-5c0-0.3-0.1-0.6-0.2-0.7c-0.1-0.1-0.3-0.2-0.7-0.3v-0.4h3.2v6.5c0,0.4,0.1,0.6,0.2,0.7
			c0.1,0.1,0.3,0.2,0.6,0.3v0.4h-4V211z M356.2,200.9c0-0.4,0.1-0.7,0.4-0.9c0.3-0.3,0.6-0.4,0.9-0.4c0.4,0,0.7,0.1,0.9,0.4
			c0.3,0.3,0.4,0.6,0.4,0.9c0,0.4-0.1,0.7-0.4,0.9c-0.3,0.3-0.6,0.4-0.9,0.4c-0.4,0-0.7-0.1-0.9-0.4
			C356.3,201.6,356.2,201.3,356.2,200.9L356.2,200.9z M360.1,211c0.3,0,0.5-0.1,0.7-0.3c0.1-0.1,0.2-0.4,0.2-0.8v-5
			c0-0.3-0.1-0.6-0.2-0.7c-0.1-0.1-0.4-0.2-0.7-0.3v-0.4h3.2v1.2c0.3-0.4,0.6-0.7,1-1c0.4-0.3,0.9-0.4,1.4-0.4
			c0.7,0,1.3,0.2,1.7,0.6c0.4,0.4,0.6,1,0.6,2v4.1c0,0.4,0.1,0.6,0.2,0.7c0.1,0.1,0.3,0.2,0.7,0.2v0.4h-4V211
			c0.3-0.1,0.5-0.1,0.6-0.3c0.1-0.1,0.2-0.3,0.2-0.7v-4.1c0-0.4,0-0.7-0.1-0.9c-0.1-0.3-0.4-0.5-0.8-0.5c-0.3,0-0.6,0.1-0.8,0.3
			c-0.2,0.2-0.4,0.4-0.6,0.6v4.6c0,0.4,0.1,0.6,0.2,0.7c0.1,0.1,0.3,0.2,0.6,0.3v0.4h-4.1V211z"/>
		<path d="M377.7,199.9c1.2,0,1.9,0.5,2.4,1.5c0.4,1,0.4,2.4,0,4.2c-0.4,2-1.1,3.5-1.9,4.5c-0.8,1-1.8,1.6-3,1.6
			c-1.2,0-2-0.5-2.4-1.5c-0.4-1-0.4-2.5,0-4.4c0.4-1.8,1-3.2,1.9-4.2C375.6,200.4,376.6,199.9,377.7,199.9z M374.4,205.6l-0.1,0.4
			c-0.4,1.9-0.6,3.2-0.4,4c0.1,0.8,0.6,1.1,1.3,1.1c0.7,0,1.3-0.4,1.8-1.1c0.5-0.7,0.9-2.2,1.4-4.4H374.4z M378.5,205
			c0-0.1,0-0.2,0.1-0.3c0-0.1,0.1-0.2,0.1-0.3c0.3-1.4,0.4-2.5,0.2-3.1c-0.2-0.7-0.6-1-1.3-1c-0.7,0-1.3,0.4-1.8,1.1
			c-0.5,0.7-0.9,2-1.3,3.6H378.5z"/>
		<path d="M388.5,203.5c0.3,0,0.6,0.1,0.8,0.2c0.1,0.1,0.3,0.2,0.4,0.4l0.8-2.8c0-0.1,0-0.1,0-0.2c0-0.1,0-0.1,0-0.2
			c0-0.2-0.1-0.3-0.2-0.4c-0.1-0.1-0.3-0.1-0.5-0.1h-0.3v-0.5l0.7-0.1c0.6,0,1-0.1,1.3-0.2c0.3-0.1,0.8-0.1,1.5-0.3l-1.9,6.9
			c-0.1,0.5-0.3,1.3-0.6,2.2c-0.2,0.9-0.4,1.5-0.4,1.6c0,0.1,0,0.1,0.1,0.2c0,0,0.1,0.1,0.2,0.1c0.1,0,0.3-0.1,0.5-0.4
			c0.2-0.3,0.4-0.5,0.6-0.8l0.4,0.3c-0.4,0.7-0.8,1.1-1.1,1.4c-0.5,0.5-1,0.7-1.4,0.7c-0.2,0-0.4-0.1-0.6-0.2
			c-0.3-0.2-0.4-0.5-0.4-0.9c0-0.1,0-0.2,0-0.4c0-0.2,0.1-0.4,0.1-0.7c-0.4,0.7-0.8,1.1-1.1,1.4c-0.5,0.5-1.1,0.8-1.7,0.8
			c-0.5,0-0.9-0.2-1.3-0.6c-0.4-0.4-0.5-1-0.5-1.7c0-1.2,0.5-2.5,1.5-3.8C386.4,204.2,387.5,203.5,388.5,203.5L388.5,203.5z
			 M386,209.4c0,0.3,0.1,0.5,0.2,0.7c0.1,0.2,0.3,0.3,0.5,0.3c0.7,0,1.3-0.8,1.9-2.4c0.5-1.3,0.8-2.3,0.8-2.9c0-0.2,0-0.4-0.1-0.5
			c-0.1-0.2-0.3-0.4-0.6-0.4c-0.6,0-1.3,0.7-1.9,2.1C386.3,207.6,386,208.6,386,209.4L386,209.4z"/>
		<path d="M399.2,199.9c1.2,0,1.9,0.5,2.4,1.5c0.4,1,0.4,2.4,0,4.2c-0.4,2-1.1,3.5-1.9,4.5c-0.8,1-1.8,1.6-3,1.6
			c-1.2,0-2-0.5-2.4-1.5c-0.4-1-0.4-2.5,0-4.4c0.4-1.8,1-3.2,1.9-4.2C397,200.4,398,199.9,399.2,199.9z M395.9,205.6l-0.1,0.4
			c-0.4,1.9-0.6,3.2-0.4,4c0.1,0.8,0.6,1.1,1.3,1.1c0.7,0,1.3-0.4,1.8-1.1c0.5-0.7,0.9-2.2,1.4-4.4H395.9z M400,205
			c0-0.1,0-0.2,0.1-0.3c0-0.1,0.1-0.2,0.1-0.3c0.3-1.4,0.4-2.5,0.2-3.1c-0.2-0.7-0.6-1-1.3-1c-0.7,0-1.3,0.4-1.8,1.1
			c-0.5,0.7-0.9,2-1.3,3.6H400z"/>
		<path d="M409.9,203.5c0.3,0,0.6,0.1,0.8,0.2c0.1,0.1,0.3,0.2,0.4,0.4l0.8-2.8c0-0.1,0-0.1,0-0.2c0-0.1,0-0.1,0-0.2
			c0-0.2-0.1-0.3-0.2-0.4c-0.1-0.1-0.3-0.1-0.5-0.1h-0.3v-0.5l0.7-0.1c0.6,0,1-0.1,1.3-0.2c0.3-0.1,0.8-0.1,1.5-0.3l-1.9,6.9
			c-0.1,0.5-0.3,1.3-0.6,2.2c-0.2,0.9-0.4,1.5-0.4,1.6c0,0.1,0,0.1,0.1,0.2c0,0,0.1,0.1,0.2,0.1c0.1,0,0.3-0.1,0.5-0.4
			c0.2-0.3,0.4-0.5,0.6-0.8l0.4,0.3c-0.4,0.7-0.8,1.1-1.1,1.4c-0.5,0.5-1,0.7-1.4,0.7c-0.2,0-0.5-0.1-0.6-0.2
			c-0.3-0.2-0.4-0.5-0.4-0.9c0-0.1,0-0.2,0-0.4c0-0.2,0.1-0.4,0.1-0.7c-0.4,0.7-0.8,1.1-1.1,1.4c-0.5,0.5-1.1,0.8-1.7,0.8
			c-0.5,0-0.9-0.2-1.3-0.6c-0.4-0.4-0.5-1-0.5-1.7c0-1.2,0.5-2.5,1.5-3.8C407.9,204.2,408.9,203.5,409.9,203.5L409.9,203.5z
			 M407.5,209.4c0,0.3,0.1,0.5,0.2,0.7c0.1,0.2,0.3,0.3,0.5,0.3c0.7,0,1.3-0.8,1.9-2.4c0.5-1.3,0.8-2.3,0.8-2.9c0-0.2,0-0.4-0.1-0.5
			c-0.1-0.2-0.3-0.4-0.6-0.4c-0.6,0-1.3,0.7-1.9,2.1C407.7,207.6,407.5,208.6,407.5,209.4L407.5,209.4z"/>
		<path d="M420.2,203.5c1.1,0,1.8,0.4,2.3,1.2c0.5,0.7,0.6,1.7,0.4,2.9c-0.2,1.1-0.8,2.1-1.5,2.8c-0.8,0.7-1.7,1.1-2.7,1.2l-0.8,3.5
			h-1.2l0.8-3.5c-1-0.1-1.7-0.5-2.2-1.2c-0.5-0.7-0.6-1.7-0.3-2.8c0.3-1.2,0.8-2.1,1.6-2.9c0.8-0.7,1.8-1.1,2.8-1.2l0.8-3.3h0.7
			L420.2,203.5z M419.3,204c-0.6,0.1-1.2,0.4-1.8,1.1c-0.5,0.6-0.9,1.5-1.1,2.5c-0.2,0.9-0.2,1.7,0,2.4c0.2,0.6,0.6,1,1.2,1.1
			L419.3,204z M420.1,204l-1.4,7c0.6-0.1,1.2-0.5,1.7-1.1c0.5-0.6,0.8-1.4,1-2.4c0.2-1,0.2-1.8-0.1-2.5
			C421.2,204.4,420.7,204,420.1,204z"/>
		<g>
			<defs>
				<rect id="SVGID_1_" x="0.5" y="1.2" width="283.6" height="275"/>
			</defs>
			<clipPath id="SVGID_2_">
				<use xlink:href="#SVGID_1_"  overflow="visible"/>
			</clipPath>
			
				<path clip-path="url(#SVGID_2_)" fill="none" stroke="#000000" stroke-width="1.002" stroke-linejoin="round" stroke-miterlimit="10" d="
				M283,138.4c0-19-63.3-34.5-141.3-34.5c-78,0-141.3,15.4-141.3,34.5c0,19,63.3,34.5,141.3,34.5C219.7,172.8,283,157.4,283,138.4z
				 M283,138.4C283,62.3,219.7,0.5,141.8,0.5C63.8,0.5,0.5,62.3,0.5,138.4c0,76.1,63.3,137.9,141.3,137.9
				C219.7,276.2,283,214.5,283,138.4z"/>
			
				<path clip-path="url(#SVGID_2_)" fill="none" stroke="#000000" stroke-width="1.002" stroke-linejoin="round" stroke-miterlimit="10" stroke-dasharray="1.002,3.006" d="
				M239.2,43.5c0-9.7-43.7-17.6-97.5-17.6c-53.8,0-97.5,7.9-97.5,17.6c0,9.7,43.7,17.6,97.5,17.6C195.6,61.1,239.2,53.2,239.2,43.5z
				 M233.9,138.8c0-74.9-37.8-135.7-84.4-135.7c-46.6,0-84.4,60.8-84.4,135.7c0,74.9,37.8,135.7,84.4,135.7
				C196.1,274.5,233.9,213.7,233.9,138.8z"/>
		</g>
		<path fill="none" stroke="#000000" stroke-width="1.002" stroke-linejoin="round" stroke-miterlimit="10" d="M140.7,138.3
			l87.2-59.2 M138.5,140.5l65.1-56 M141.8,138.3l78.4-81.9 M141.8,138.3l53-77.5"/>
		<g>
			<defs>
				<rect id="SVGID_3_" x="0.5" y="1.2" width="283.6" height="275"/>
			</defs>
			<clipPath id="SVGID_4_">
				<use xlink:href="#SVGID_3_"  overflow="visible"/>
			</clipPath>
			
				<polygon clip-path="url(#SVGID_4_)" fill="none" stroke="#000000" stroke-width="2.004" stroke-linejoin="round" stroke-miterlimit="10" points="
				194.7,61.9 209.1,59.7 219,57.6 225.6,69.4 227.9,79.1 215.7,82.3 203.6,84.5 200.3,73.7 			"/>
			
				<line clip-path="url(#SVGID_4_)" fill="none" stroke="#000000" stroke-width="1.002" stroke-linejoin="round" stroke-miterlimit="10" x1="142.9" y1="139.4" x2="274.3" y2="139.4"/>
		</g>
		<polyline fill-rule="evenodd" clip-rule="evenodd" points="268.8,134 269.9,144.8 283.2,139.4 		"/>
		<g>
			<path fill="none" stroke="#000000" stroke-width="1.002" stroke-linejoin="round" stroke-miterlimit="10" d="M141.8,139.4V10.8
				 M268.8,134l1.1,10.8l13.2-5.4L268.8,134z"/>
			<polyline fill-rule="evenodd" clip-rule="evenodd" points="136.3,16.2 147.3,15.1 141.8,2.2 			"/>
			<path fill="none" stroke="#000000" stroke-width="1.002" stroke-linejoin="round" stroke-miterlimit="10" d="M142.4,137.8
				l-69.1,25 M136.3,16.2l11-1.1l-5.5-12.9L136.3,16.2z"/>
		</g>
		<polyline fill-rule="evenodd" clip-rule="evenodd" points="81.1,162.9 72.5,156 67.1,169 		"/>
		<polygon fill="none" stroke="#000000" stroke-width="1.002" stroke-linejoin="round" stroke-miterlimit="10" points="81.1,162.9 
			72.5,156 67.1,169 		"/>
		
			<path fill="none" stroke="#000000" stroke-width="1.002" stroke-linejoin="round" stroke-miterlimit="10" stroke-dasharray="1.002,1.002" d="
			M66.7,110.3l165.5,54.9 M142.9,140.5l65.1,28 M141.8,43.6l76.1,14 M141.8,43.6l53,17.2"/>
		<path fill="none" stroke="#000000" stroke-width="1.002" stroke-linejoin="round" stroke-miterlimit="10" d="M141.8,42.5H46.9
			 M140.7,138.3l-96-94.8 M141.8,137.3l67.3,25.8 M180.8,75.3c-11.8-15.1-22.5-23.1-36.3-23.1c-0.7,0-4.2,0-4.9,0.1 M209.2,162.4
			c29.8-6.2,52.7-14.4,53.9-22.1"/>
		<polyline fill-rule="evenodd" clip-rule="evenodd" points="52.4,38.2 43.6,41.4 52.4,45.7 		"/>
		<polygon fill="none" stroke="#000000" stroke-width="1.002" stroke-linejoin="round" stroke-miterlimit="10" points="52.4,38.2 
			43.6,41.4 52.4,45.7 		"/>
		<polyline fill-rule="evenodd" clip-rule="evenodd" points="43.6,45.7 45.8,54.3 52.4,48.9 		"/>
		<polygon fill="none" stroke="#000000" stroke-width="1.002" stroke-linejoin="round" stroke-miterlimit="10" points="43.6,45.7 
			45.8,54.3 52.4,48.9 		"/>
		<g>
			<path d="M243.8,66c0.4,0,0.8,0.1,1.1,0.3c0.2,0.1,0.4,0.3,0.6,0.5l1.1-4c0-0.1,0-0.2,0-0.2c0-0.1,0-0.2,0-0.2
				c0-0.3-0.1-0.5-0.3-0.6c-0.2-0.1-0.4-0.2-0.7-0.2h-0.5V61l1-0.1c0.8-0.1,1.4-0.1,1.9-0.2c0.4-0.1,1.1-0.2,2.1-0.4l-2.7,9.7
				c-0.2,0.8-0.5,1.8-0.8,3.1c-0.4,1.3-0.5,2-0.5,2.2c0,0.1,0,0.2,0.1,0.3c0.1,0.1,0.1,0.1,0.2,0.1c0.2,0,0.4-0.2,0.7-0.6
				c0.3-0.4,0.6-0.8,0.8-1.1l0.5,0.4c-0.6,0.9-1.1,1.6-1.5,2c-0.7,0.7-1.4,1-2,1c-0.3,0-0.6-0.1-0.9-0.3c-0.4-0.3-0.6-0.7-0.6-1.3
				c0-0.1,0-0.3,0.1-0.5c0-0.3,0.1-0.6,0.2-0.9c-0.6,0.9-1.1,1.6-1.5,2c-0.7,0.7-1.5,1.1-2.4,1.1c-0.7,0-1.3-0.3-1.8-0.8
				c-0.5-0.5-0.8-1.4-0.8-2.4c0-1.7,0.7-3.5,2.1-5.3C240.9,66.9,242.3,66,243.8,66L243.8,66z M240.3,74.2c0,0.4,0.1,0.8,0.3,1
				c0.2,0.3,0.4,0.4,0.7,0.4c0.9,0,1.9-1.1,2.7-3.3c0.7-1.8,1.1-3.2,1.1-4.1c0-0.3,0-0.5-0.1-0.7c-0.1-0.3-0.4-0.5-0.8-0.5
				c-0.9,0-1.8,1-2.7,3C240.7,71.7,240.3,73.1,240.3,74.2L240.3,74.2z"/>
			<path d="M255.3,60.9c1.6,0,2.9,0.7,3.8,2c0.9,1.4,1.3,3.3,1.3,5.9c0,2.7-0.4,4.8-1.3,6.3c-0.9,1.5-2.1,2.2-3.8,2.2
				c-1.7,0-3-0.7-3.9-2.1c-0.9-1.4-1.3-3.5-1.3-6.2c0-2.5,0.5-4.5,1.4-6C252.5,61.6,253.7,60.9,255.3,60.9z M258.1,68.1
				c0-0.1,0-0.3,0-0.5c0-0.2,0-0.3,0-0.4c0-2-0.2-3.5-0.7-4.4c-0.4-0.9-1.1-1.4-2.1-1.4c-1,0-1.7,0.5-2.2,1.6
				c-0.5,1-0.7,2.7-0.7,5.1H258.1z M252.5,69v0.5c0,2.7,0.2,4.5,0.6,5.6c0.4,1.1,1.2,1.6,2.2,1.6c1.1,0,1.8-0.5,2.2-1.6
				c0.4-1,0.6-3.1,0.6-6.2H252.5z"/>
		</g>
		<g>
			<path d="M191.4,38.1c0.5,0,0.9,0.1,1.3,0.3c0.2,0.1,0.4,0.3,0.7,0.5l1.2-3.9c0-0.1,0-0.2,0.1-0.2c0-0.1,0-0.2,0-0.2
				c0-0.3-0.1-0.5-0.3-0.6c-0.2-0.1-0.5-0.2-0.8-0.2H193v-0.6l1.1-0.1c0.9-0.1,1.5-0.1,2-0.2c0.5-0.1,1.2-0.2,2.3-0.4l-2.6,9.7
				c-0.2,0.8-0.6,1.8-1,3.1c-0.4,1.3-0.6,2-0.6,2.2c0,0.1,0,0.2,0.1,0.3c0.1,0.1,0.1,0.1,0.2,0.1c0.2,0,0.5-0.2,0.9-0.6
				c0.4-0.4,0.7-0.8,0.9-1.1l0.6,0.4c-0.7,0.9-1.3,1.6-1.8,2c-0.8,0.7-1.6,1.1-2.3,1.1c-0.4,0-0.7-0.1-1-0.3
				c-0.4-0.3-0.7-0.7-0.7-1.3c0-0.1,0-0.3,0.1-0.5c0-0.3,0.1-0.6,0.2-1c-0.7,0.9-1.2,1.6-1.7,2c-0.8,0.7-1.8,1.1-2.8,1.1
				c-0.8,0-1.5-0.3-2.1-0.8c-0.6-0.5-0.9-1.4-0.9-2.4c0-1.7,0.8-3.5,2.4-5.3C188.1,39,189.8,38.1,191.4,38.1L191.4,38.1z
				 M187.4,46.3c0,0.4,0.1,0.8,0.3,1c0.2,0.3,0.5,0.4,0.8,0.4c1.1,0,2.1-1.1,3.1-3.3c0.9-1.8,1.3-3.2,1.3-4.1c0-0.3,0-0.5-0.1-0.7
				c-0.2-0.3-0.5-0.5-0.9-0.5c-1,0-2,1-3.1,3C187.9,43.8,187.4,45.2,187.4,46.3L187.4,46.3z"/>
			<path d="M205.3,38.1c1.7,0,3.1,0.6,4.2,1.6c1.1,1,1.6,2.4,1.6,4c0,1.6-0.5,2.9-1.5,3.9c-1,1-2.3,1.6-3.9,1.7v4.8h-2v-4.8
				c-1.6-0.1-3-0.7-4-1.7c-1-1-1.5-2.3-1.5-3.9c0-1.6,0.5-3,1.6-4c1.1-1,2.4-1.6,4.2-1.6l0.1-4.6h1.1L205.3,38.1z M203.9,38.7
				c-1,0.1-1.8,0.6-2.5,1.5c-0.6,0.9-0.9,2.1-0.9,3.5c0,1.3,0.3,2.4,0.9,3.3c0.6,0.9,1.3,1.4,2.3,1.6L203.9,38.7z M205.3,38.7
				l0.3,9.9c1-0.2,1.7-0.7,2.3-1.6c0.6-0.9,0.8-2,0.8-3.3c0-1.4-0.3-2.5-1-3.5C207.1,39.3,206.3,38.8,205.3,38.7z"/>
		</g>
		<g>
			<path d="M230.4,145.6c1.9,0,3.5,0.6,4.6,1.6c1.2,1,1.8,2.4,1.8,4c0,1.6-0.5,2.9-1.6,3.9c-1.1,1-2.6,1.6-4.4,1.7v4.8h-2.2v-4.8
				c-1.8-0.1-3.3-0.7-4.4-1.7c-1.1-1-1.7-2.3-1.7-3.9c0-1.6,0.6-3,1.8-4c1.2-1,2.7-1.6,4.7-1.6l0.2-4.6h1.2L230.4,145.6z
				 M228.9,146.3c-1.1,0.1-2.1,0.6-2.8,1.5c-0.7,0.9-1.1,2.1-1.1,3.5c0,1.3,0.3,2.4,1,3.3c0.6,0.9,1.5,1.4,2.6,1.6L228.9,146.3z
				 M230.4,146.3l0.3,9.9c1.1-0.2,1.9-0.7,2.5-1.6c0.6-0.9,0.9-2,0.9-3.3c0-1.4-0.4-2.5-1.1-3.5
				C232.5,146.9,231.5,146.4,230.4,146.3z"/>
		</g>
		<g>
			<path d="M163.7,72.9c1.6,0,2.9,0.7,3.8,2c0.9,1.4,1.3,3.3,1.3,5.9c0,2.7-0.4,4.8-1.3,6.3c-0.9,1.5-2.1,2.2-3.8,2.2
				c-1.7,0-3-0.7-3.9-2.1c-0.9-1.4-1.3-3.5-1.3-6.2c0-2.5,0.5-4.5,1.4-6C160.8,73.6,162.1,72.9,163.7,72.9z M166.4,80.1
				c0-0.1,0-0.3,0-0.4c0-0.2,0-0.3,0-0.4c0-2-0.2-3.5-0.7-4.4c-0.4-0.9-1.1-1.4-2.1-1.4c-1,0-1.7,0.5-2.2,1.6
				c-0.5,1-0.7,2.7-0.7,5.1H166.4z M160.8,80.9v0.5c0,2.7,0.2,4.5,0.6,5.6c0.4,1.1,1.2,1.6,2.2,1.6c1.1,0,1.8-0.5,2.2-1.6
				c0.4-1,0.6-3.1,0.6-6.2H160.8z"/>
		</g>
		<g>
			<path d="M102.4,90.9c0.7-2.3,1.2-4.2,1.6-5.9c0.5-1.8,0.8-2.8,0.8-3.2c0-0.3-0.1-0.5-0.3-0.6c-0.2-0.1-0.6-0.1-1.1-0.1v-0.6
				c1.1-0.1,2-0.1,2.8-0.2c0.5-0.1,1.3-0.2,2.5-0.4l-1.4,4.2l0.1,0c0.7-1.3,1.3-2.3,1.8-2.8c0.8-1,1.5-1.4,2.2-1.4
				c0.5,0,0.9,0.2,1.1,0.5c0.2,0.3,0.4,0.7,0.4,1c0,0.5-0.1,0.9-0.4,1.2c-0.3,0.4-0.6,0.5-1.1,0.5c-0.2,0-0.4,0-0.6-0.1
				c-0.2-0.1-0.3-0.2-0.5-0.4l-0.2-0.3c0,0-0.1-0.1-0.1-0.1c0,0-0.1,0-0.2,0c-0.3,0-0.8,0.4-1.3,1.2c-0.5,0.8-1,1.7-1.3,2.5
				c-0.2,0.6-0.6,1.4-0.9,2.5c-0.4,1.1-0.6,1.9-0.8,2.3H102.4z"/>
		</g>
		<g>
			<path d="M70.5,39.1c0.7-2.3,1.2-4.3,1.6-5.9c0.5-1.8,0.7-2.8,0.7-3.2c0-0.3-0.1-0.5-0.3-0.6c-0.2-0.1-0.5-0.1-1-0.1v-0.6
				c1-0.1,1.9-0.1,2.6-0.2c0.5-0.1,1.2-0.2,2.3-0.4l-1.3,4.2l0.1,0c0.7-1.3,1.2-2.3,1.6-2.8c0.7-1,1.4-1.5,2.1-1.5
				c0.5,0,0.8,0.2,1,0.5c0.2,0.3,0.3,0.7,0.3,1c0,0.5-0.1,0.9-0.4,1.2c-0.2,0.4-0.6,0.5-1,0.5c-0.2,0-0.4,0-0.5-0.1
				c-0.2-0.1-0.3-0.2-0.4-0.4l-0.2-0.3c0,0-0.1-0.1-0.1-0.1c0,0-0.1,0-0.2,0c-0.3,0-0.7,0.4-1.2,1.2c-0.5,0.8-0.9,1.7-1.2,2.5
				c-0.2,0.6-0.5,1.4-0.9,2.5c-0.3,1.1-0.6,1.9-0.8,2.4H70.5z"/>
			<path d="M87.9,35.5l0.6,0c0.1,1.2,0.4,2,0.9,2.5c0.5,0.5,1,0.7,1.4,0.7c0.4,0,0.7-0.1,1-0.4c0.2-0.3,0.4-0.6,0.4-0.9
				c0-0.3-0.1-0.7-0.3-1.1c-0.2-0.4-0.5-0.8-0.8-1.1l-0.9-1.1c-0.4-0.4-0.7-0.9-1-1.5c-0.3-0.6-0.4-1.1-0.4-1.7
				c0-0.8,0.3-1.5,0.9-2.1c0.6-0.6,1.4-0.9,2.4-0.9c0.4,0,0.9,0.1,1.3,0.3c0.5,0.2,0.8,0.3,0.9,0.3c0.2,0,0.3,0,0.4-0.1
				c0.1-0.1,0.2-0.2,0.3-0.4h0.7l-0.5,3.6l-0.6-0.1c-0.1-1-0.4-1.7-0.8-2.2c-0.4-0.4-0.8-0.7-1.3-0.7c-0.4,0-0.8,0.1-1,0.4
				c-0.2,0.3-0.3,0.6-0.3,0.9c0,0.3,0.1,0.6,0.2,0.8c0.2,0.3,0.4,0.7,0.9,1.2l1.2,1.5c0.3,0.3,0.5,0.7,0.7,1.2
				c0.2,0.5,0.3,0.9,0.3,1.4c0,1-0.3,1.7-1,2.3c-0.7,0.6-1.5,0.9-2.5,0.9c-0.4,0-0.9-0.1-1.3-0.3C89,39,88.7,39,88.6,39
				c-0.2,0-0.3,0.1-0.4,0.2c-0.1,0.1-0.2,0.2-0.2,0.4h-0.6L87.9,35.5z M96.9,37.8c0-0.2,0-0.5,0.1-0.9c0.1-0.2,0.1-0.6,0.2-1
				l1.5-5.4c0-0.1,0-0.1,0-0.2c0-0.1,0-0.1,0-0.2c0-0.3-0.1-0.5-0.3-0.6c-0.2-0.1-0.6-0.1-1.1-0.2v-0.6c0.4,0,1.1-0.1,2-0.2
				c0.9-0.1,1.5-0.2,1.8-0.2l1-0.2l-1.9,6.8c-0.2,0.6-0.3,1-0.3,1.2c-0.1,0.6-0.2,1-0.2,1.1c0,0.2,0,0.3,0.1,0.3
				c0.1,0.1,0.2,0.1,0.3,0.1c0.2,0,0.5-0.2,0.9-0.6c0.4-0.4,0.7-0.8,0.9-1.3l0.5,0.3c-0.8,1.1-1.4,1.9-1.8,2.3c-0.7,0.7-1.4,1-2.2,1
				c-0.4,0-0.8-0.1-1.2-0.4C97,38.7,96.9,38.3,96.9,37.8L96.9,37.8z M101.5,22.8c0.4,0,0.8,0.2,1.1,0.5c0.3,0.3,0.5,0.7,0.5,1.1
				c0,0.4-0.2,0.8-0.5,1.1c-0.3,0.3-0.7,0.5-1.1,0.5c-0.4,0-0.8-0.2-1.1-0.5c-0.3-0.3-0.5-0.7-0.5-1.1c0-0.4,0.2-0.8,0.5-1.1
				C100.7,23,101,22.8,101.5,22.8L101.5,22.8z M103.4,39.1l2.1-7.7c0.1-0.3,0.1-0.6,0.2-0.7c0.1-0.3,0.1-0.6,0.1-0.7
				c0-0.3-0.1-0.5-0.3-0.5c-0.2-0.1-0.5-0.1-1-0.1v-0.6c1-0.1,1.8-0.1,2.3-0.2c0.5-0.1,1.4-0.2,2.5-0.4l-1.4,4.4l0.1,0
				c0,0,0.2-0.3,0.7-1.1c0.5-0.7,1-1.4,1.5-1.8c0.5-0.5,0.9-0.9,1.4-1.1c0.5-0.3,1-0.4,1.6-0.4c0.5,0,0.9,0.1,1.3,0.4
				c0.4,0.3,0.5,0.8,0.5,1.4c0,0.6-0.4,2-1.1,4c-0.7,2.1-1.1,3.2-1.1,3.3c0,0.1,0,0.2,0.1,0.3c0.1,0.1,0.2,0.1,0.3,0.1
				c0.2,0,0.5-0.3,0.9-0.8c0.2-0.3,0.5-0.6,0.7-1l0.5,0.3c-0.6,1-1.1,1.7-1.5,2.1c-0.7,0.7-1.5,1.1-2.2,1.1c-0.4,0-0.8-0.1-1.1-0.4
				c-0.3-0.3-0.5-0.6-0.5-1.2c0-0.3,0.1-0.8,0.2-1.5c0.2-0.7,0.4-1.3,0.6-2l1.1-3.6c0-0.1,0-0.2,0.1-0.2c0-0.1,0-0.1,0-0.2
				c0-0.2-0.1-0.3-0.2-0.4c-0.1-0.1-0.3-0.1-0.4-0.1c-0.5,0-1,0.4-1.6,1.1c-0.6,0.8-1.1,1.5-1.5,2.3c-0.4,0.8-0.8,1.6-1,2.5
				c-0.3,0.8-0.6,2-1,3.4H103.4z"/>
			<path d="M129.8,23.1c1.6,0,2.9,0.7,3.8,2c0.9,1.4,1.3,3.3,1.3,5.9c0,2.7-0.4,4.8-1.3,6.3c-0.9,1.5-2.1,2.2-3.8,2.2
				c-1.7,0-3-0.7-3.9-2.1c-0.9-1.4-1.3-3.5-1.3-6.2c0-2.5,0.5-4.5,1.4-6C126.9,23.8,128.2,23.1,129.8,23.1z M132.6,30.3
				c0-0.1,0-0.3,0-0.5c0-0.2,0-0.3,0-0.4c0-2-0.2-3.5-0.7-4.4c-0.4-0.9-1.1-1.4-2.1-1.4c-1,0-1.7,0.5-2.2,1.6
				c-0.5,1-0.7,2.7-0.7,5.1H132.6z M126.9,31.1v0.5c0,2.7,0.2,4.5,0.6,5.6c0.4,1.1,1.2,1.6,2.2,1.6c1.1,0,1.8-0.5,2.2-1.6
				c0.4-1,0.6-3.1,0.6-6.2H126.9z"/>
		</g>
	</g>
</g>
</svg>
