<?xml version="1.0" encoding="UTF-8" standalone="no"?>
<!-- Created with Serif DrawPlus 11, 0, 3, 23 (Feb 25, 14:12:55) (http://www.serif.com) -->
<svg version="1.1" xmlns="http://www.w3.org/2000/svg" xmlns:xlink="http://www.w3.org/1999/xlink" xmlns:inkscape="http://www.inkscape.org/namespaces/inkscape" width="378.64" height="404.633">
	<g id="dp_group001" transform="matrix(1,0,0,1,-640.092,-75.324)">
		<path id="dp_path002" fill="#00b050" fill-rule="evenodd" fill-opacity="0.501961" stroke="#005c2a" stroke-width="1.33333" d="M 952.149,169.335 C 986.536,165.115 1016.05,171.596 1018.06,183.812 C 1018.5,186.435 1018.06,189.485 1016.08,192.108 L 1015.78,192.509 L 966.423,255.821 L 899.375,206.797 C 898.815,206.424 898.291,206.043 897.804,205.648 L 896.247,204.293 L 896.823,204.789 C 895.011,203.072 893.879,201.167 893.537,199.096 C 891.521,186.88 917.763,173.555 952.149,169.335 Z "/>
		<path id="dp_path003" fill="black" fill-rule="evenodd" d="M 941.972,388.091 L 640.599,310.995 L 640.092,312.992 L 941.465,390.089 L 940.451,394.084 L 951.707,391.627 L 942.987,384.096 Z "/>
		<path id="dp_path004" fill="#005c2a" fill-rule="evenodd" d="M 912.421,192.957 L 968.276,255.735 L 966.281,257.56 L 910.425,194.785 L 906.436,198.437 L 902.289,183.897 L 916.409,189.304 L 912.42,192.956 Z "/>
		<path id="dp_path005" fill="black" fill-rule="evenodd" d="M 941.972,316.989 L 640.599,394.085 L 640.092,392.088 L 941.465,314.991 L 940.451,310.996 L 951.707,313.453 L 942.987,320.984 Z "/>
		<g id="dp_group006">
			<path id="dp_path007" fill="black" fill-rule="evenodd" d="M 786.7,86.4707 L 788.656,86.324 C 788.54,86.9347 788.481,87.384 788.481,87.6693 C 788.481,88.252 788.663,88.716 789.028,89.064 C 789.392,89.4133 789.9,89.5867 790.549,89.5867 C 791.019,89.5867 791.433,89.4827 791.791,89.272 C 792.148,89.0613 792.437,88.7347 792.661,88.2933 C 792.836,87.9573 793.013,87.356 793.193,86.4853 L 795.521,75.324 L 797.6,75.324 L 795.219,86.8227 C 794.881,88.44 794.319,89.5947 793.528,90.288 C 792.739,90.9827 791.731,91.3293 790.501,91.3293 C 789.195,91.3293 788.208,91.028 787.539,90.4253 C 786.872,89.824 786.539,88.9787 786.539,87.8893 C 786.539,87.4093 786.591,86.936 786.7,86.4707 Z "/>
			<text id="dp_text001" transform="matrix(1,0,0,1,798.733,96.844)" xml:space="preserve" fill="black" font-family="Arial" font-size="17" font-weight="400" font-style="italic" x="0" y="0">z </text>
			<text id="dp_text002" transform="matrix(1,0,0,1,807.393,96.844)" xml:space="preserve" fill="black" font-family="Times New Roman" font-size="13" font-weight="400" font-style="italic" x="0" y="0">  </text>
		</g>
		<g id="dp_group010">
			<path id="dp_path011" fill="black" fill-rule="evenodd" d="M 958.579,313.655 L 960.535,313.508 C 960.419,314.119 960.36,314.568 960.36,314.855 C 960.36,315.437 960.541,315.901 960.907,316.249 C 961.271,316.597 961.779,316.772 962.428,316.772 C 962.897,316.772 963.312,316.668 963.669,316.456 C 964.027,316.245 964.316,315.92 964.54,315.477 C 964.715,315.143 964.892,314.541 965.072,313.669 L 967.4,302.508 L 969.479,302.508 L 967.097,314.007 C 966.76,315.624 966.197,316.779 965.407,317.472 C 964.617,318.167 963.609,318.513 962.38,318.513 C 961.073,318.513 960.087,318.213 959.417,317.609 C 958.751,317.008 958.417,316.163 958.417,315.075 C 958.417,314.593 958.469,314.121 958.579,313.655 Z "/>
			<text id="dp_text003" transform="matrix(1,0,0,1,970.611,324.029)" xml:space="preserve" fill="black" font-family="Arial" font-size="17" font-weight="400" font-style="italic" x="0" y="0">y </text>
			<text id="dp_text004" transform="matrix(1,0,0,1,979.271,324.029)" xml:space="preserve" fill="black" font-family="Times New Roman" font-size="13" font-weight="400" font-style="italic" x="0" y="0">  </text>
		</g>
		<g id="dp_group014">
			<path id="dp_path015" fill="black" fill-rule="evenodd" d="M 952.933,398.936 L 954.889,398.789 C 954.775,399.4 954.716,399.849 954.716,400.135 C 954.716,400.717 954.897,401.181 955.263,401.529 C 955.627,401.879 956.135,402.052 956.784,402.052 C 957.253,402.052 957.668,401.948 958.025,401.737 C 958.383,401.527 958.672,401.2 958.896,400.759 C 959.069,400.423 959.248,399.821 959.428,398.951 L 961.756,387.789 L 963.835,387.789 L 961.453,399.288 C 961.116,400.905 960.553,402.06 959.763,402.753 C 958.973,403.448 957.964,403.795 956.736,403.795 C 955.429,403.795 954.443,403.493 953.773,402.891 C 953.107,402.289 952.772,401.444 952.772,400.355 C 952.772,399.875 952.825,399.401 952.933,398.936 Z "/>
			<text id="dp_text005" transform="matrix(1,0,0,1,963.967,409.309)" xml:space="preserve" fill="black" font-family="Arial" font-size="17" font-weight="400" font-style="italic" x="0" y="0">x </text>
			<text id="dp_text006" transform="matrix(1,0,0,1,972.627,409.309)" xml:space="preserve" fill="black" font-family="Times New Roman" font-size="13" font-weight="400" font-style="italic" x="0" y="0">  </text>
		</g>
		<text id="dp_text007" transform="matrix(1,6.10623e-016,-6.66134e-016,1,930.209,209.345)" xml:space="preserve" fill="#005c2a" font-family="Arial" font-size="22" font-weight="700" x="0" y="0">S</text>
		<text id="dp_text008" transform="matrix(1,6.10623e-016,-6.66134e-016,1,930.209,209.345)" xml:space="preserve" fill="#005c2a" font-family="Arial" font-size="22" font-weight="400" font-style="italic" x="14.6667" y="0">  </text>
		<path id="dp_path020" fill="#8a8af7" fill-rule="evenodd" fill-opacity="0.501961" stroke="#1616ef" stroke-width="1.33333" d="M 880.02,194.671 C 940.961,226.951 984.076,264.988 976.321,279.629 C 974.656,282.772 971.155,285.425 965.495,286.009 L 964.633,286.101 L 796.559,352.231 L 758.329,176.821 C 757.737,175.845 757.215,174.896 756.764,173.976 L 755.409,170.932 L 755.915,172.053 C 754.468,168.368 754.319,165.213 755.633,162.732 C 763.389,148.091 819.079,162.389 880.02,194.671 Z "/>
		<path id="dp_path021" fill="#1616ef" fill-rule="evenodd" d="M 799.289,352.939 L 956.633,262.929 L 955.261,260.531 L 797.917,350.539 Z M 955.26,260.529 L 956.633,262.929 L 959.379,267.729 L 967.947,254.865 L 952.515,255.729 Z "/>
		<text id="dp_text009" transform="matrix(1,0,0,1,926.751,259.274)" xml:space="preserve" fill="#1616ef" font-family="Arial" font-size="22" font-weight="700" x="0" y="0">L  </text>
		<path id="dp_path023" fill="#9d00f3" fill-rule="evenodd" fill-opacity="0.501961" stroke="#aa0082" stroke-width="1.33333" d="M 797.516,171.105 C 866.479,171.105 922.384,184.637 922.384,201.329 C 922.384,204.912 920.532,208.925 915.803,212.115 L 915.085,212.603 L 797.515,350.739 L 681.625,212.603 C 680.645,212.012 679.739,211.413 678.911,210.807 L 676.288,208.735 L 677.26,209.496 C 674.256,206.897 672.648,204.159 672.648,201.329 C 672.648,184.637 728.553,171.105 797.516,171.105 Z "/>
		<g id="dp_group039">
			<path id="dp_path041" fill="#9d00f3" fill-rule="evenodd" d="M 893.444,196.915 L 895.781,198.393 L 900.453,201.349 L 902.004,185.972 L 888.771,193.959 Z "/>
			<path id="dp_path042" fill="#9d00f3" fill-rule="evenodd" d="M 798.871,351.583 L 895.781,198.393 L 893.445,196.916 L 796.535,350.105 Z "/>
		</g>
		<g id="dp_group047">
			<path id="dp_path049" fill="#9d00f3" fill-rule="evenodd" d="M 855.245,336.444 L 855.92,339.125 L 857.269,344.488 L 868.989,334.412 L 853.896,331.081 Z "/>
			<path id="dp_path050" fill="#9d00f3" fill-rule="evenodd" d="M 796.952,353.955 L 855.92,339.127 L 855.245,336.444 L 796.277,351.272 Z "/>
		</g>
		<g id="dp_group051">
			<path id="dp_path053" fill="#9d00f3" fill-rule="evenodd" d="M 815.7,356.117 L 815.008,358.795 L 813.624,364.149 L 828.739,360.916 L 817.083,350.764 Z "/>
			<path id="dp_path054" fill="#9d00f3" fill-rule="evenodd" d="M 796.271,353.953 L 815.008,358.796 L 815.699,356.119 L 796.961,351.276 Z "/>
		</g>
		<g id="dp_group024">
			<text id="dp_text010" transform="matrix(1,1.60982e-015,-1.66533e-015,1,936.161,163.822)" xml:space="preserve" fill="#00b050" font-family="Arial" font-size="22" font-weight="700" x="0" y="0">S</text>
			<text id="dp_text011" transform="matrix(1,1.60982e-015,-1.66533e-015,1,936.161,163.822)" xml:space="preserve" fill="#00b050" font-family="Arial" font-size="22" font-weight="400" font-style="italic" x="14.6667" y="0"> </text>
			<path id="dp_path027" fill="#ac0d99" fill-rule="evenodd" d="M 877.119,147.479 L 880.291,147.479 L 880.291,157.452 C 880.291,158.756 880.177,159.759 879.948,160.461 C 879.64,161.377 879.083,162.115 878.273,162.671 C 877.465,163.225 876.399,163.503 875.075,163.503 C 873.524,163.503 872.328,163.068 871.492,162.197 C 870.655,161.328 870.233,160.052 870.225,158.369 L 873.213,158.021 C 873.249,158.927 873.383,159.564 873.612,159.939 C 873.955,160.505 874.475,160.789 875.177,160.789 C 875.885,160.789 876.385,160.588 876.679,160.183 C 876.972,159.777 877.119,158.936 877.119,157.66 Z "/>
			<text id="dp_text012" transform="matrix(1,0,0,1,903.163,163.822)" xml:space="preserve" fill="#1616ef" font-family="Arial" font-size="22" font-weight="700" x="0" y="0">L  </text>
			<text id="dp_text013" transform="matrix(1,0,0,1,885.303,163.822)" xml:space="preserve" fill="black" font-family="Arial" font-size="22" font-weight="400" x="0" y="0">= </text>
			<text id="dp_text014" transform="matrix(1,0,0,1,919.301,163.822)" xml:space="preserve" fill="black" font-family="Arial" font-size="22" font-weight="400" x="0" y="0">+ </text>
		</g>
		<path id="dp_path031" fill="#00b050" fill-rule="evenodd" fill-opacity="0.501961" stroke="#005c2a" stroke-width="1.33333" d="M 957.445,214.212 C 958.12,214.141 958.796,214.065 959.475,213.981 C 986.463,210.669 1007.64,199.759 1015.78,192.496 L 1015.78,192.496 L 1015.78,192.496 L 966.203,255.437 L 898.376,206.273 C 907.157,210.439 931.451,216.925 957.445,214.212 Z "/>
		<path id="dp_path032" fill="black" fill-rule="evenodd" d="M 797.741,351.265 L 797.995,479.955 L 795.935,479.956 L 795.68,351.268"/>
		<path id="dp_path033" fill="black" fill-rule="evenodd" d="M 795.68,351.268 L 795.285,119.211 L 791.164,119.212 L 796.312,108.905 L 801.468,119.209 L 797.347,119.211 L 797.741,351.265"/>
		<g id="dp_group043">
			<path id="dp_path045" fill="#9d00f3" fill-rule="evenodd" d="M 795.281,211.145 L 797.948,211.145 L 803.281,211.145 L 796.615,197.812 L 789.948,211.145 Z "/>
			<path id="dp_path046" fill="#9d00f3" fill-rule="evenodd" d="M 797.948,352.613 L 797.949,211.145 L 795.283,211.145 L 795.281,352.613 Z "/>
		</g>
		<path id="dp_path034" fill="#8a8af7" fill-rule="evenodd" fill-opacity="0.498039" stroke="#1616ef" stroke-width="1.33333" d="M 847.828,246.584 C 849.013,247.231 850.205,247.872 851.405,248.508 C 899.235,273.843 944.436,285.02 964.632,286.1 L 964.628,286.097 L 964.633,286.1 L 796.263,352.133 L 757.147,175.224 C 767.875,188.96 802.199,221.683 847.828,246.584 Z "/>
		<path id="dp_path035" fill="#9d00f3" fill-rule="evenodd" fill-opacity="0.498039" stroke="#aa0082" stroke-width="1.33333" d="M 793.369,232.505 C 794.719,232.521 796.072,232.531 797.431,232.531 C 851.556,232.531 896.731,221.167 915.083,212.603 L 915.079,212.603 L 915.084,212.603 L 797.207,350.792 L 679.832,211.737 C 695.743,218.907 741.391,231.853 793.369,232.505 Z "/>
	</g>
</svg>