<?xml version="1.0" encoding="utf-8"?>
<!-- Generator: Adobe Illustrator 17.1.0, SVG Export Plug-In . SVG Version: 6.00 Build 0)  -->
<!DOCTYPE svg PUBLIC "-//W3C//DTD SVG 1.1//EN" "http://www.w3.org/Graphics/SVG/1.1/DTD/svg11.dtd" [
	<!ENTITY ns_extend "http://ns.adobe.com/Extensibility/1.0/">
	<!ENTITY ns_ai "http://ns.adobe.com/AdobeIllustrator/10.0/">
	<!ENTITY ns_graphs "http://ns.adobe.com/Graphs/1.0/">
	<!ENTITY ns_vars "http://ns.adobe.com/Variables/1.0/">
	<!ENTITY ns_imrep "http://ns.adobe.com/ImageReplacement/1.0/">
	<!ENTITY ns_sfw "http://ns.adobe.com/SaveForWeb/1.0/">
	<!ENTITY ns_custom "http://ns.adobe.com/GenericCustomNamespace/1.0/">
	<!ENTITY ns_adobe_xpath "http://ns.adobe.com/XPath/1.0/">
]>
<svg version="1.1" id="Layer_1" xmlns:x="&ns_extend;" xmlns:i="&ns_ai;" xmlns:graph="&ns_graphs;"
	 xmlns="http://www.w3.org/2000/svg" xmlns:xlink="http://www.w3.org/1999/xlink" x="0px" y="0px" viewBox="0 0 94.3 120.8"
	 enable-background="new 0 0 94.3 120.8" xml:space="preserve">
<metadata>
	<sfw  xmlns="&ns_sfw;">
		<slices></slices>
		<sliceSourceBounds  bottomLeftOrigin="true" width="94.3" height="120.8" x="67.2" y="-156"></sliceSourceBounds>
	</sfw>
</metadata>
<g>
	<g>
		<line fill="none" stroke="#000000" stroke-miterlimit="10" x1="36.5" y1="77.2" x2="36.5" y2="21.3"/>
		<g>
			<path d="M36.5,15.2c1.1,2.8,2.9,6.4,4.8,8.5l-4.8-1.7l-4.8,1.7C33.7,21.6,35.5,18.1,36.5,15.2z"/>
		</g>
	</g>
</g>
<g>
	<g>
		<line fill="none" stroke="#000000" stroke-miterlimit="10" x1="36.5" y1="77.2" x2="11.5" y2="102.3"/>
		<g>
			<path d="M7.2,106.6c1.3-2.8,2.5-6.5,2.7-9.4l2.1,4.6l4.6,2.1C13.7,104.1,10,105.3,7.2,106.6z"/>
		</g>
	</g>
</g>
<g>
	<g>
		<line fill="none" stroke="#000000" stroke-miterlimit="10" x1="36.5" y1="77.2" x2="79.1" y2="77.2"/>
		<g>
			<path d="M85.1,77.2c-2.8,1.1-6.4,2.9-8.5,4.8l1.7-4.8l-1.7-4.8C78.8,74.4,82.3,76.2,85.1,77.2z"/>
		</g>
	</g>
</g>
<text transform="matrix(1 0 0 1 0 117.7988)" font-family="'MyriadPro-Regular'" font-size="12">x</text>
<text transform="matrix(1 0 0 1 88.6787 81.6864)" font-family="'MyriadPro-Regular'" font-size="12">y</text>
<text transform="matrix(1 0 0 1 34.0602 10.0438)" font-family="'MyriadPro-Regular'" font-size="12">z</text>
<line fill="none" stroke="#000000" stroke-width="0.5" stroke-miterlimit="10" x1="36.5" y1="77.2" x2="57.4" y2="42.7"/>
<g>
	<g>
		<line fill="none" stroke="#000000" stroke-width="0.5" stroke-miterlimit="10" x1="57.4" y1="42.7" x2="57.4" y2="44.7"/>
		
			<line fill="none" stroke="#000000" stroke-width="0.5" stroke-miterlimit="10" stroke-dasharray="3.8011,3.8011" x1="57.4" y1="48.5" x2="57.4" y2="92.2"/>
		<line fill="none" stroke="#000000" stroke-width="0.5" stroke-miterlimit="10" x1="57.4" y1="94.1" x2="57.4" y2="96.1"/>
	</g>
</g>
<line fill="none" stroke="#000000" stroke-width="0.5" stroke-miterlimit="10" x1="57.4" y1="96.1" x2="36.5" y2="77.2"/>
<g>
	<g>
		<line fill="none" stroke="#000000" stroke-width="0.5" stroke-miterlimit="10" x1="57.4" y1="96.1" x2="55.4" y2="96.1"/>
		
			<line fill="none" stroke="#000000" stroke-width="0.5" stroke-miterlimit="10" stroke-dasharray="3.9732,3.9732" x1="51.5" y1="96.1" x2="21.7" y2="96.1"/>
		<line fill="none" stroke="#000000" stroke-width="0.5" stroke-miterlimit="10" x1="19.7" y1="96.1" x2="17.7" y2="96.1"/>
	</g>
</g>
<g>
	<g>
		<line fill="none" stroke="#000000" stroke-width="0.5" stroke-miterlimit="10" x1="57.4" y1="96.1" x2="58.8" y2="94.7"/>
		
			<line fill="none" stroke="#000000" stroke-width="0.5" stroke-miterlimit="10" stroke-dasharray="4.5388,4.5388" x1="62.1" y1="91.5" x2="73.3" y2="80.3"/>
		<line fill="none" stroke="#000000" stroke-width="0.5" stroke-miterlimit="10" x1="74.9" y1="78.7" x2="76.3" y2="77.2"/>
	</g>
</g>
<g>
	<g>
		<line fill="none" stroke="#000000" stroke-width="0.5" stroke-miterlimit="10" x1="57.4" y1="42.7" x2="56" y2="41.3"/>
		
			<line fill="none" stroke="#000000" stroke-width="0.5" stroke-miterlimit="10" stroke-dasharray="3.6477,3.6477" x1="53.4" y1="38.7" x2="39.2" y2="24.5"/>
		<line fill="none" stroke="#000000" stroke-width="0.5" stroke-miterlimit="10" x1="38" y1="23.2" x2="36.5" y2="21.8"/>
	</g>
</g>
<text transform="matrix(1 0 0 1 46.9878 66.795)" font-family="'MyriadPro-Regular'" font-size="12">r</text>
<text transform="matrix(1 0 0 1 32.1282 91.8954)" font-family="'Symbol'" font-size="12">f</text>
<text transform="matrix(1 0 0 1 39.578 55.4396)" font-family="'Symbol'" font-size="12">q</text>
</svg>
