<?xml version="1.0" encoding="utf-8"?>
<!-- Generator: Adobe Illustrator 17.1.0, SVG Export Plug-In . SVG Version: 6.00 Build 0)  -->
<!DOCTYPE svg PUBLIC "-//W3C//DTD SVG 1.1//EN" "http://www.w3.org/Graphics/SVG/1.1/DTD/svg11.dtd" [
	<!ENTITY ns_extend "http://ns.adobe.com/Extensibility/1.0/">
	<!ENTITY ns_ai "http://ns.adobe.com/AdobeIllustrator/10.0/">
	<!ENTITY ns_graphs "http://ns.adobe.com/Graphs/1.0/">
	<!ENTITY ns_vars "http://ns.adobe.com/Variables/1.0/">
	<!ENTITY ns_imrep "http://ns.adobe.com/ImageReplacement/1.0/">
	<!ENTITY ns_sfw "http://ns.adobe.com/SaveForWeb/1.0/">
	<!ENTITY ns_custom "http://ns.adobe.com/GenericCustomNamespace/1.0/">
	<!ENTITY ns_adobe_xpath "http://ns.adobe.com/XPath/1.0/">
]>
<svg version="1.1" id="Layer_1" xmlns:x="&ns_extend;" xmlns:i="&ns_ai;" xmlns:graph="&ns_graphs;"
	 xmlns="http://www.w3.org/2000/svg" xmlns:xlink="http://www.w3.org/1999/xlink" x="0px" y="0px" viewBox="0 0 551.6 551.4"
	 enable-background="new 0 0 551.6 551.4" xml:space="preserve">
<metadata>
	<sfw  xmlns="&ns_sfw;">
		<slices></slices>
		<sliceSourceBounds  bottomLeftOrigin="true" width="551.6" height="551.4" x="139.6" y="296.1"></sliceSourceBounds>
	</sfw>
</metadata>
<g>
	<line fill="#FFFFFF" x1="0" y1="551.4" x2="0" y2="551.4"/>
	<path fill="#FFFFFF" d="M0,551.4"/>
	<polyline fill="none" stroke="#000000" stroke-width="2" points="280.4,270.3 296,269.3 311.5,266.3 326.4,261.4 340.6,254.7 
		353.8,246.1 365.9,236 376.5,224.4 385.6,211.6 393.1,197.7 398.7,183 402.4,167.7 404.1,152 403.9,136.3 401.6,120.7 397.5,105.5 
		391.4,91 383.5,77.3 374,64.8 363,53.5 350.6,43.8 337.1,35.7 322.7,29.4 307.7,24.9 292.1,22.5 276.4,22 260.8,23.5 245.5,26.9 
		230.7,32.3 216.7,39.5 203.8,48.5 192.1,59 181.8,70.9 173.1,84 166.1,98.1 160.9,113 157.7,128.4 156.5,144.1 157.2,159.9 
		160,175.4 164.6,190.4 171.1,204.8 179.4,218.2 189.3,230.4 200.7,241.3 213.4,250.6 227.1,258.3 241.7,264.1 256.9,268.1 
		272.5,270.1 288.2,270.1 303.8,268.1 319,264.1 333.6,258.3 347.4,250.6 360,241.3 371.4,230.4 381.3,218.2 389.6,204.8 
		396.1,190.4 400.8,175.4 403.5,159.9 404.2,144.1 403,128.4 399.8,113 394.6,98.1 387.7,84 379,70.9 368.7,59 357,48.5 344,39.5 
		330,32.3 315.3,26.9 299.9,23.5 284.3,22 268.6,22.5 253.1,24.9 238,29.4 223.6,35.7 210.1,43.8 197.7,53.5 186.7,64.8 177.2,77.3 
		169.3,91 163.3,105.5 159.1,120.7 156.8,136.3 156.6,152 158.3,167.7 162,183 167.7,197.7 175.1,211.6 184.2,224.4 194.9,236 
		206.9,246.1 220.1,254.7 234.3,261.4 249.2,266.3 264.7,269.3 280.4,270.3 	"/>
	<path fill="none" stroke="#B3B3B3" stroke-width="0.3755" stroke-dasharray="3.0005,3.0005,3.0005,3.0005" d="M315.4,270.3l0-1.8
		l-0.1-1.7l-0.2-1.7l-0.3-1.7l-0.4-1.7l-0.5-1.7l-0.6-1.7l-0.6-1.6l-0.7-1.6l-0.8-1.6l-0.9-1.5l-0.9-1.5l-1-1.4l-1.1-1.4l-1.2-1.3
		l-1.2-1.3l-1.3-1.2l-1.3-1.1l-1.4-1.1l-1.4-1l-1.5-0.9l-1.5-0.8l-1.6-0.8l-1.6-0.7l-1.6-0.6l-1.7-0.5l-1.7-0.4l-1.7-0.3l-1.7-0.3
		l-1.7-0.2l-1.7-0.1h-1.7l-1.7,0.1l-1.7,0.2l-1.7,0.3l-1.7,0.3l-1.7,0.4l-1.7,0.5l-1.6,0.6l-1.6,0.7l-1.6,0.8l-1.5,0.8l-1.5,0.9
		l-1.4,1l-1.4,1.1l-1.3,1.1l-1.3,1.2l-1.2,1.3l-1.2,1.3l-1.1,1.4l-1,1.4l-0.9,1.5l-0.9,1.5l-0.8,1.6l-0.7,1.6l-0.6,1.6l-0.6,1.7
		l-0.5,1.7l-0.4,1.7l-0.3,1.7l-0.2,1.7l-0.1,1.7l0,1.8 M350.5,270.3l-0.1-3.5l-0.3-3.5l-0.4-3.5l-0.6-3.4l-0.8-3.4l-0.9-3.4
		l-1.1-3.3l-1.3-3.3l-1.4-3.2l-1.6-3.1l-1.8-3l-1.9-2.9l-2-2.8l-2.2-2.7l-2.3-2.6l-2.4-2.5l-2.6-2.4l-2.7-2.3l-2.8-2.1l-2.9-2
		l-3-1.8l-3.1-1.7l-3.1-1.5l-3.2-1.4l-3.3-1.2l-3.3-1l-3.4-0.9l-3.4-0.7l-3.5-0.5l-3.5-0.4l-3.5-0.2h-3.5l-3.5,0.2l-3.5,0.4
		l-3.5,0.5l-3.4,0.7l-3.4,0.9l-3.3,1l-3.3,1.2l-3.2,1.4l-3.1,1.5l-3.1,1.7l-3,1.8l-2.9,2l-2.8,2.1l-2.7,2.3l-2.6,2.4l-2.4,2.5
		l-2.3,2.6l-2.2,2.7l-2,2.8l-1.9,2.9l-1.7,3l-1.6,3.1l-1.4,3.2l-1.3,3.3l-1.1,3.3l-0.9,3.4l-0.8,3.4l-0.6,3.4l-0.4,3.5l-0.3,3.5
		l-0.1,3.5 M385.5,270.3l-0.1-5.2l-0.4-5.2l-0.7-5.2l-0.9-5.2l-1.2-5.1l-1.4-5.1l-1.7-5l-1.9-4.9l-2.2-4.8l-2.4-4.7l-2.6-4.6
		l-2.8-4.4l-3.1-4.3l-3.3-4.1l-3.5-3.9l-3.7-3.8l-3.8-3.6l-4-3.4l-4.2-3.2l-4.3-3l-4.5-2.7l-4.6-2.5l-4.7-2.3l-4.8-2l-4.9-1.8
		l-5-1.5l-5.1-1.3l-5.1-1l-5.2-0.8l-5.2-0.5L283,165h-5.2l-5.2,0.3l-5.2,0.5l-5.2,0.8l-5.1,1l-5.1,1.3l-5,1.5l-4.9,1.8l-4.8,2
		l-4.7,2.3l-4.6,2.5l-4.5,2.7l-4.3,3l-4.2,3.2l-4,3.4l-3.8,3.6l-3.7,3.8l-3.5,3.9l-3.3,4.1l-3.1,4.3l-2.8,4.4l-2.6,4.6l-2.4,4.7
		l-2.2,4.8l-1.9,4.9l-1.7,5l-1.4,5.1l-1.2,5.1l-0.9,5.2l-0.7,5.2l-0.4,5.2l-0.1,5.2 M420.5,270.3l-0.2-7l-0.5-7l-0.9-7l-1.2-6.9
		l-1.6-6.8l-1.9-6.7l-2.2-6.6l-2.6-6.5l-2.9-6.4l-3.2-6.2L400,197l-3.8-5.9l-4.1-5.7l-4.4-5.5l-4.6-5.3l-4.9-5l-5.1-4.8l-5.4-4.5
		l-5.6-4.2l-5.8-3.9l-6-3.7l-6.1-3.4l-6.3-3l-6.4-2.7l-6.6-2.4l-6.7-2.1l-6.8-1.7l-6.9-1.4l-6.9-1l-7-0.7l-7-0.3h-7l-7,0.3l-7,0.7
		l-6.9,1l-6.9,1.4l-6.8,1.7l-6.7,2.1l-6.6,2.4l-6.4,2.7l-6.3,3l-6.1,3.4l-6,3.7l-5.8,3.9l-5.6,4.2l-5.4,4.5l-5.1,4.8l-4.9,5L173,180
		l-4.4,5.5l-4.1,5.7l-3.8,5.9l-3.5,6.1l-3.2,6.2l-2.9,6.4l-2.6,6.5l-2.2,6.6l-1.9,6.7l-1.6,6.8l-1.2,6.9l-0.9,7l-0.5,7l-0.2,7
		 M455.6,270.3l-0.2-8.8l-0.7-8.7l-1.1-8.7l-1.5-8.6l-1.9-8.5l-2.4-8.4l-2.8-8.3l-3.2-8.2l-3.6-8l-4-7.8l-4.4-7.6l-4.7-7.4l-5.1-7.1
		l-5.4-6.8l-5.8-6.6l-6.1-6.3l-6.4-6l-6.7-5.6l-7-5.3l-7.2-4.9l-7.5-4.6l-7.7-4.2l-7.9-3.8l-8.1-3.4l-8.2-3l-8.3-2.6l-8.5-2.2
		l-8.6-1.7l-8.6-1.3l-8.7-0.9l-8.7-0.4H276l-8.7,0.4l-8.7,0.9l-8.6,1.3l-8.6,1.7l-8.5,2.2l-8.3,2.6l-8.2,3l-8.1,3.4l-7.9,3.8
		l-7.7,4.2l-7.5,4.6l-7.2,4.9l-7,5.3l-6.7,5.6l-6.4,6l-6.1,6.3l-5.8,6.6l-5.4,6.8l-5.1,7.1l-4.7,7.4l-4.4,7.6l-4,7.8l-3.6,8
		l-3.2,8.2l-2.8,8.3l-2.4,8.4l-1.9,8.5l-1.5,8.6l-1.1,8.7l-0.7,8.7l-0.2,8.8 M490.6,270.3l-0.3-10.5l-0.8-10.5l-1.3-10.4l-1.8-10.4
		l-2.3-10.2l-2.8-10.1l-3.3-10l-3.8-9.8l-4.3-9.6l-4.8-9.4l-5.2-9.1l-5.7-8.8L448,143l-6.5-8.2l-6.9-7.9l-7.3-7.5l-7.7-7.2l-8-6.8
		l-8.4-6.3l-8.7-5.9l-8.9-5.5l-9.2-5l-9.4-4.6l-9.7-4.1l-9.9-3.6l-10-3.1l-10.2-2.6l-10.3-2.1l-10.4-1.6l-10.4-1l-10.5-0.5h-10.5
		l-10.5,0.5l-10.4,1l-10.4,1.6l-10.3,2.1l-10.2,2.6l-10,3.1l-9.9,3.6l-9.7,4.1l-9.4,4.6l-9.2,5l-8.9,5.5l-8.7,5.9l-8.4,6.3l-8,6.8
		l-7.7,7.2l-7.3,7.5l-6.9,7.9l-6.5,8.2l-6.1,8.5l-5.7,8.8l-5.2,9.1l-4.8,9.4l-4.3,9.6l-3.8,9.8l-3.3,10l-2.8,10.1l-2.3,10.2
		l-1.8,10.4l-1.3,10.4l-0.8,10.5l-0.3,10.5"/>
	<polyline fill="none" stroke="#B3B3B3" stroke-width="0.3755" points="528.1,270.3 527.8,257.9 526.9,245.6 525.4,233.3 
		523.2,221.1 520.5,209 517.1,197.1 513.2,185.4 508.7,173.8 503.6,162.6 498,151.5 491.8,140.8 485.1,130.4 477.9,120.3 
		470.2,110.7 462,101.4 453.4,92.5 444.3,84.1 434.8,76.1 425,68.6 414.8,61.7 404.2,55.2 393.4,49.3 382.3,43.9 370.9,39.1 
		359.3,34.9 347.5,31.2 335.5,28.2 323.4,25.7 311.2,23.9 298.9,22.6 286.5,22 274.2,22 261.8,22.6 249.6,23.9 237.3,25.7 
		225.2,28.2 213.3,31.2 201.4,34.9 189.8,39.1 178.5,43.9 167.3,49.3 156.5,55.2 145.9,61.7 135.7,68.6 125.9,76.1 116.4,84.1 
		107.4,92.5 98.7,101.4 90.6,110.7 82.9,120.3 75.6,130.4 68.9,140.8 62.8,151.5 57.1,162.6 52,173.8 47.5,185.4 43.6,197.1 
		40.2,209 37.5,221.1 35.4,233.3 33.8,245.6 32.9,257.9 32.6,270.3 	"/>
	<path fill="none" stroke="#B3B3B3" stroke-width="0.3755" stroke-dasharray="3.0005,3.0005,3.0005,3.0005" d="M280.4,270.3h247.8
		 M280.4,270.3l244-43.1 M280.4,270.3l232.8-85 M280.4,270.3l214.6-124.2 M280.4,270.3l189.8-159.7 M280.4,270.3L439.6,80
		 M280.4,270.3L404.2,55.2 M280.4,270.3l84.7-233.4 M280.4,270.3l43-244.6 M280.4,270.3V21.9 M280.4,270.3l-43-244.6 M280.4,270.3
		L195.6,36.9 M280.4,270.3L156.5,55.2 M280.4,270.3L121.1,80 M280.4,270.3L90.6,110.7 M280.4,270.3L65.8,146.1 M280.4,270.3
		l-232.8-85 M280.4,270.3l-244-43.1 M280.4,270.3H32.6"/>
	<polyline fill="none" stroke="#000000" stroke-width="2" points="280.4,270.3 281.4,270.3 284.3,269.8 289.1,268.6 295.5,266.4 
		303.3,262.8 312.1,257.6 321.7,250.6 331.6,241.8 341.3,231.1 350.5,218.5 358.8,204.3 365.8,188.7 371.1,171.8 374.5,154.2 
		375.7,136.1 374.7,117.9 371.3,100.2 365.5,83.3 357.5,67.8 347.5,54 335.5,42.3 322.1,33 307.5,26.5 292.1,22.7 276.4,22 
		260.8,24.2 245.8,29.4 231.7,37.4 219,47.9 208,60.7 198.9,75.4 192,91.6 187.4,109 185.2,127 185.3,145.1 187.7,163.1 
		192.1,180.4 198.3,196.7 205.9,211.6 214.7,225 224.3,236.7 234.1,246.4 243.9,254.3 253.1,260.4 261.5,264.8 268.6,267.7 
		274.3,269.4 278.1,270.1 280.1,270.3 280.1,270.3 278.1,270.5 274.3,271.3 268.6,273 261.5,275.9 253.1,280.3 243.9,286.3 
		234.1,294.2 224.3,304 214.7,315.6 205.9,329 198.3,344 192.1,360.3 187.7,377.6 185.3,395.5 185.2,413.7 187.4,431.7 192,449 
		198.9,465.3 208,480 219,492.8 231.7,503.3 245.8,511.3 260.8,516.4 276.4,518.7 292.1,517.9 307.5,514.2 322.1,507.6 335.5,498.3 
		347.5,486.6 357.5,472.8 365.5,457.3 371.3,440.5 374.7,422.7 375.7,404.6 374.5,386.5 371.1,368.8 365.8,352 358.8,336.3 
		350.5,322.1 341.3,309.6 331.6,298.9 321.7,290.1 312.1,283.1 303.3,277.9 295.5,274.3 289.1,272 284.3,270.8 281.4,270.4 
		280.4,270.3 	"/>
	<path fill="none" stroke="#919191" stroke-dasharray="3.0005,3.0005,3.0005,3.0005" d="M315.4,270.3l-0.2-3.5l-0.5-3.5l-0.9-3.4
		l-1.2-3.3l-1.5-3.2l-1.8-3l-2.1-2.8l-2.4-2.6l-2.6-2.3l-2.8-2l-3-1.8l-3.2-1.4l-3.3-1.1l-3.4-0.8l-3.5-0.4l-3.5-0.1l-3.5,0.3
		l-3.4,0.6l-3.4,0.9l-3.3,1.3l-3.1,1.6l-2.9,1.9l-2.7,2.2l-2.5,2.4l-2.2,2.7l-2,2.9l-1.7,3.1l-1.4,3.2l-1,3.3l-0.7,3.4l-0.3,3.5v3.5
		l0.3,3.5l0.7,3.4l1,3.3l1.4,3.2l1.7,3.1l2,2.9l2.2,2.7l2.5,2.4l2.7,2.2l2.9,1.9l3.1,1.6l3.3,1.3l3.4,0.9l3.4,0.6l3.5,0.3l3.5-0.1
		l3.5-0.4l3.4-0.8l3.3-1.1l3.2-1.4l3-1.8l2.8-2l2.6-2.3l2.4-2.6l2.1-2.8l1.8-3l1.5-3.2l1.2-3.3l0.9-3.4l0.5-3.5L315.4,270.3
		 M350.5,270.3l-0.3-7l-1-6.9l-1.7-6.8l-2.4-6.6l-3-6.3l-3.6-6l-4.2-5.6l-4.8-5.1l-5.2-4.6l-5.7-4.1l-6.1-3.5l-6.4-2.9l-6.6-2.2
		l-6.8-1.6l-6.9-0.9l-7-0.2l-7,0.5l-6.9,1.2l-6.7,1.9l-6.5,2.6l-6.2,3.2l-5.9,3.8l-5.5,4.4l-5,4.9l-4.5,5.4l-3.9,5.8l-3.3,6.2
		l-2.7,6.5l-2.1,6.7l-1.4,6.9l-0.7,7v7l0.7,7l1.4,6.9l2.1,6.7l2.7,6.5l3.3,6.2l3.9,5.8l4.5,5.4l5,4.9l5.5,4.4l5.9,3.8l6.2,3.2
		l6.5,2.6l6.7,1.9l6.9,1.2l7,0.5l7-0.2l6.9-0.9l6.8-1.6l6.6-2.2l6.4-2.9l6.1-3.5l5.7-4.1l5.2-4.6l4.8-5.1l4.2-5.6l3.6-6l3-6.3
		l2.4-6.6l1.7-6.8l1-6.9L350.5,270.3 M385.5,270.3l-0.5-10.5l-1.6-10.4l-2.6-10.2l-3.6-9.9l-4.5-9.5l-5.5-9l-6.3-8.4l-7.1-7.7
		l-7.9-7l-8.5-6.1l-9.1-5.3l-9.6-4.3l-9.9-3.3l-10.2-2.3l-10.4-1.3l-10.5-0.3l-10.5,0.8l-10.3,1.8l-10.1,2.8l-9.8,3.8l-9.3,4.8
		l-8.8,5.7l-8.2,6.6l-7.5,7.3l-6.7,8l-5.9,8.7l-5,9.2l-4.1,9.7l-3.1,10l-2.1,10.3l-1,10.5v10.5l1,10.5l2.1,10.3l3.1,10l4.1,9.7
		l5,9.2l5.9,8.7l6.7,8l7.5,7.3l8.2,6.6l8.8,5.7l9.3,4.8l9.8,3.8l10.1,2.8l10.3,1.8l10.5,0.8l10.5-0.3l10.4-1.3l10.2-2.3l9.9-3.3
		l9.6-4.3l9.1-5.3l8.5-6.1l7.9-7l7.1-7.7l6.3-8.4l5.5-9l4.5-9.5l3.6-9.9l2.6-10.2l1.6-10.4L385.5,270.3 M420.5,270.3l-0.7-14
		l-2.1-13.9l-3.4-13.6l-4.8-13.2l-6.1-12.6l-7.3-12l-8.4-11.2l-9.5-10.3l-10.5-9.3l-11.3-8.2l-12.1-7l-12.7-5.8l-13.2-4.5l-13.6-3.1
		l-13.9-1.7l-14-0.3l-13.9,1l-13.8,2.4l-13.5,3.8l-13,5.1l-12.4,6.4l-11.7,7.6l-10.9,8.7l-10,9.8l-9,10.7l-7.9,11.6l-6.7,12.3
		l-5.4,12.9l-4.1,13.4l-2.8,13.7l-1.4,13.9v14l1.4,13.9l2.8,13.7l4.1,13.4l5.4,12.9l6.7,12.3l7.9,11.6l9,10.7l10,9.8l10.9,8.7
		l11.7,7.6l12.4,6.4l13,5.1l13.5,3.8l13.8,2.4l13.9,1l14-0.4l13.9-1.7l13.6-3.1l13.2-4.5l12.7-5.8l12.1-7l11.3-8.2l10.5-9.3
		l9.5-10.3l8.4-11.2l7.3-12l6.1-12.6l4.8-13.2l3.4-13.6l2.1-13.9L420.5,270.3 M455.6,270.3l-0.9-17.5l-2.6-17.3l-4.3-17l-6-16.5
		l-7.6-15.8l-9.1-14.9l-10.5-14l-11.9-12.8L389.6,133l-14.2-10.2l-15.1-8.8l-15.9-7.2l-16.6-5.6l-17-3.9l-17.3-2.2L276,94.7
		L258.6,96l-17.2,3l-16.8,4.7l-16.3,6.4l-15.5,8l-14.7,9.5l-13.7,10.9l-12.5,12.2l-11.2,13.4l-9.8,14.5l-8.4,15.4l-6.8,16.1
		l-5.1,16.7l-3.5,17.2l-1.7,17.4v17.5l1.7,17.4l3.5,17.2l5.1,16.7l6.8,16.1l8.4,15.4l9.8,14.5l11.2,13.4l12.5,12.2l13.7,10.9
		l14.7,9.5l15.5,8l16.3,6.4l16.8,4.7l17.2,3l17.4,1.3l17.5-0.4l17.3-2.2l17-3.9l16.6-5.6l15.9-7.2l15.1-8.8l14.2-10.2l13.1-11.6
		l11.9-12.8l10.5-14l9.1-14.9l7.6-15.8l6-16.5l4.3-17l2.6-17.3L455.6,270.3 M490.6,270.3l-1-21l-3.1-20.8l-5.2-20.4l-7.2-19.7
		l-9.1-18.9l-10.9-17.9l-12.7-16.8l-14.3-15.4l-15.7-13.9l-17-12.3l-18.2-10.5l-19.1-8.6l-19.9-6.7l-20.4-4.7l-20.8-2.6l-21-0.5
		l-20.9,1.6l-20.6,3.6l-20.2,5.7l-19.5,7.7l-18.7,9.6l-17.6,11.4l-16.4,13.1l-15,14.7L112.7,143l-11.8,17.4l-10,18.5l-8.1,19.4
		l-6.2,20.1l-4.2,20.6l-2.1,20.9v21l2.1,20.9l4.2,20.6l6.2,20.1l8.1,19.4l10,18.5l11.8,17.4l13.5,16.1l15,14.7l16.4,13.1l17.6,11.4
		l18.7,9.6l19.5,7.7l20.2,5.7l20.6,3.6l20.9,1.6l21-0.5l20.8-2.6l20.4-4.7l19.9-6.7l19.1-8.6l18.2-10.5l17-12.3l15.7-13.9l14.3-15.4
		l12.7-16.8l10.9-17.9l9.1-18.9l7.2-19.7l5.2-20.4l3.1-20.8L490.6,270.3"/>
	<polyline fill="none" stroke="#919191" points="528.1,270.3 526.9,245.6 523.2,221.1 517.1,197.1 508.7,173.9 497.9,151.5 
		485.1,130.4 470.1,110.7 453.3,92.5 434.8,76.1 414.8,61.7 393.4,49.3 370.9,39.1 347.5,31.2 323.4,25.7 298.9,22.7 274.2,22 
		249.6,23.9 225.2,28.2 201.5,34.9 178.5,43.9 156.5,55.2 135.7,68.7 116.4,84.1 98.8,101.4 82.9,120.4 69,140.8 57.2,162.6 
		47.6,185.4 40.3,209 35.4,233.3 32.9,257.9 32.9,282.7 35.4,307.3 40.3,331.6 47.6,355.3 57.2,378.1 69,399.8 82.9,420.3 
		98.8,439.3 116.4,456.5 135.7,472 156.5,485.4 178.5,496.7 201.5,505.8 225.2,512.5 249.6,516.8 274.2,518.6 298.9,518 
		323.4,514.9 347.5,509.4 370.9,501.5 393.4,491.3 414.8,479 434.8,464.5 453.3,448.1 470.1,430 485.1,410.2 497.9,389.1 
		508.7,366.8 517.1,343.5 523.2,319.5 526.9,295.1 528.1,270.3 	"/>
	<path fill="none" stroke="#B3B3B3" stroke-width="0.3755" stroke-dasharray="3.0005,3.0005,3.0005,3.0005" d="M280.4,270.3h247.7
		 M280.4,270.3l214.6-124.2 M280.4,270.3L404.2,55.2 M280.4,270.3V22 M280.4,270.3L156.5,55.2 M280.4,270.3L65.8,146.1 M280.4,270.3
		H32.6 M280.4,270.3L65.8,394.5 M280.4,270.3L156.5,485.4 M280.4,270.3v248.4 M280.4,270.3l123.9,215.1 M280.4,270.3l214.6,124.2"/>
	<path d="M277.6,238.2c-1.1,0-2-0.5-2.7-1.6c-0.7-1.1-1-2.4-1-4.1c0-1.7,0.3-3.1,1-4.1c0.7-1,1.6-1.6,2.7-1.6c1.1,0,2.1,0.5,2.7,1.6
		c0.7,1,1,2.4,1,4.1c0,1.7-0.3,3.1-1,4.2C279.7,237.7,278.7,238.2,277.6,238.2L277.6,238.2z M277.6,237.1c1.5,0,2.3-1.6,2.3-4.7
		c0-3-0.8-4.6-2.3-4.6c-1.5,0-2.3,1.5-2.3,4.6C275.4,235.6,276.1,237.1,277.6,237.1L277.6,237.1z M283.8,238v-1.8h1.8v1.8H283.8
		L283.8,238z M289.3,238v-1.1h2.2v-8.6l-2.2,0.5v-1.1l3.6-0.9v10h2.2v1.1H289.3L289.3,238z"/>
	<path d="M277.6,203.7c-1.1,0-2-0.5-2.7-1.6c-0.7-1.1-1-2.4-1-4.1c0-1.7,0.3-3.1,1-4.1c0.7-1,1.6-1.6,2.7-1.6c1.1,0,2.1,0.5,2.7,1.6
		c0.7,1,1,2.4,1,4.1c0,1.7-0.3,3.1-1,4.2C279.7,203.2,278.7,203.7,277.6,203.7L277.6,203.7z M277.6,202.6c1.5,0,2.3-1.6,2.3-4.7
		c0-3-0.8-4.6-2.3-4.6c-1.5,0-2.3,1.5-2.3,4.6C275.4,201,276.1,202.6,277.6,202.6L277.6,202.6z M283.8,203.4v-1.8h1.8v1.8H283.8
		L283.8,203.4z M288.3,203.4v-1.3c0.4-1,1.3-2.1,2.5-3.2l0.8-0.7c1.1-1,1.6-1.9,1.6-2.9c0-0.6-0.2-1.1-0.5-1.4
		c-0.4-0.3-0.9-0.5-1.5-0.5c-0.8,0-1.6,0.3-2.7,0.9V193c1-0.5,1.9-0.7,2.9-0.7c1,0,1.8,0.3,2.4,0.8c0.6,0.5,0.9,1.3,0.9,2.2
		c0,0.6-0.2,1.2-0.5,1.7c-0.3,0.5-0.9,1.1-1.7,1.8l-0.6,0.5c-1.2,1-1.8,1.9-2,2.8h4.7v1.3H288.3L288.3,203.4z"/>
	<path d="M277.6,169.1c-1.1,0-2-0.5-2.7-1.6c-0.7-1.1-1-2.4-1-4.1c0-1.7,0.3-3.1,1-4.1c0.7-1,1.6-1.6,2.7-1.6c1.1,0,2.1,0.5,2.7,1.6
		c0.7,1,1,2.4,1,4.1c0,1.7-0.3,3.1-1,4.2C279.7,168.6,278.7,169.1,277.6,169.1L277.6,169.1z M277.6,168c1.5,0,2.3-1.6,2.3-4.7
		c0-3-0.8-4.6-2.3-4.6c-1.5,0-2.3,1.5-2.3,4.6C275.4,166.5,276.1,168,277.6,168L277.6,168z M283.8,168.9V167h1.8v1.8H283.8
		L283.8,168.9z M288.6,168.8v-1.3c1,0.4,1.8,0.6,2.4,0.6c0.7,0,1.2-0.2,1.7-0.6c0.4-0.4,0.6-0.9,0.6-1.6c0-1.5-1.1-2.3-3.2-2.3h-0.6
		v-1l0.5,0c2,0,3-0.7,3-2.1c0-1.1-0.7-1.7-2-1.7c-0.7,0-1.5,0.2-2.4,0.6v-1.3c0.9-0.3,1.7-0.4,2.5-0.4c2.2,0,3.3,0.8,3.3,2.5
		c0,1.3-0.8,2.2-2.3,2.7c1.7,0.4,2.6,1.4,2.6,2.9c0,1-0.3,1.8-1,2.4c-0.7,0.6-1.6,0.9-2.8,0.9C290.5,169.1,289.6,169,288.6,168.8
		L288.6,168.8z"/>
	<path d="M277.6,133.1c-1.1,0-2-0.5-2.7-1.6c-0.7-1.1-1-2.4-1-4.1c0-1.7,0.3-3.1,1-4.1c0.7-1,1.6-1.6,2.7-1.6c1.1,0,2.1,0.5,2.7,1.6
		c0.7,1,1,2.4,1,4.1c0,1.7-0.3,3.1-1,4.2C279.7,132.6,278.7,133.1,277.6,133.1L277.6,133.1z M277.6,132c1.5,0,2.3-1.6,2.3-4.7
		c0-3-0.8-4.6-2.3-4.6c-1.5,0-2.3,1.5-2.3,4.6C275.4,130.4,276.1,132,277.6,132L277.6,132z M283.8,132.8V131h1.8v1.8H283.8
		L283.8,132.8z M292.7,132.8v-3.1h-4.9v-1.1l4.9-6.7h1.4v6.6h1.4v1.2h-1.4v3.1H292.7L292.7,132.8z M289.3,128.5h3.6v-4.8
		L289.3,128.5L289.3,128.5z"/>
	<path d="M277.6,98.5c-1.1,0-2-0.5-2.7-1.6c-0.7-1.1-1-2.4-1-4.1c0-1.7,0.3-3.1,1-4.1c0.7-1,1.6-1.6,2.7-1.6c1.1,0,2.1,0.5,2.7,1.6
		c0.7,1,1,2.4,1,4.1c0,1.7-0.3,3.1-1,4.2C279.7,98,278.7,98.5,277.6,98.5L277.6,98.5z M277.6,97.4c1.5,0,2.3-1.6,2.3-4.7
		c0-3-0.8-4.6-2.3-4.6c-1.5,0-2.3,1.5-2.3,4.6C275.4,95.9,276.1,97.4,277.6,97.4L277.6,97.4z M283.8,98.3v-1.8h1.8v1.8H283.8
		L283.8,98.3z M288.9,98.3V97c0.7,0.3,1.4,0.4,2,0.4c0.7,0,1.3-0.2,1.7-0.6c0.4-0.4,0.6-1,0.6-1.7c0-1.6-1.1-2.4-3.4-2.4
		c-0.3,0-0.5,0-0.8,0.1v-5.3h5.5v1.3h-4.2v2.9c1.4,0,2.5,0.3,3.3,1c0.8,0.6,1.2,1.5,1.2,2.7c0,1.1-0.4,1.9-1.1,2.5
		c-0.7,0.6-1.7,0.9-2.9,0.9C290.2,98.5,289.6,98.5,288.9,98.3L288.9,98.3z"/>
	<path d="M277.6,62.5c-1.1,0-2-0.5-2.7-1.6c-0.7-1.1-1-2.4-1-4.1c0-1.7,0.3-3.1,1-4.1c0.7-1,1.6-1.6,2.7-1.6c1.1,0,2.1,0.5,2.7,1.6
		c0.7,1,1,2.4,1,4.1c0,1.7-0.3,3.1-1,4.2C279.7,62,278.7,62.5,277.6,62.5L277.6,62.5z M277.6,61.4c1.5,0,2.3-1.6,2.3-4.7
		c0-3-0.8-4.6-2.3-4.6c-1.5,0-2.3,1.5-2.3,4.6C275.4,59.8,276.1,61.4,277.6,61.4L277.6,61.4z M283.8,62.2v-1.8h1.8v1.8H283.8
		L283.8,62.2z M289.7,56.6c0.7-0.9,1.6-1.3,2.6-1.3c0.9,0,1.7,0.3,2.3,0.9c0.6,0.6,0.9,1.4,0.9,2.4c0,1.1-0.3,2.1-1,2.8
		c-0.7,0.7-1.5,1.1-2.6,1.1c-1.2,0-2.1-0.5-2.8-1.4c-0.7-1-1-2.3-1-4c0-1.9,0.4-3.3,1.2-4.4c0.8-1,1.9-1.6,3.3-1.6
		c0.6,0,1.4,0.1,2.4,0.4v1.3c-1-0.4-1.9-0.6-2.5-0.6C290.6,52.2,289.7,53.6,289.7,56.6L289.7,56.6z M294,58.9c0-0.8-0.2-1.5-0.6-1.9
		c-0.4-0.5-0.9-0.7-1.5-0.7c-0.6,0-1.1,0.2-1.6,0.6c-0.4,0.4-0.7,0.9-0.7,1.5c0,0.9,0.2,1.6,0.6,2.2c0.4,0.5,1,0.8,1.7,0.8
		c0.6,0,1.1-0.2,1.5-0.7C293.8,60.3,294,59.7,294,58.9L294,58.9z"/>
	<path d="M541.3,274.3c-1.1,0-2-0.5-2.7-1.6c-0.7-1.1-1-2.4-1-4.1c0-1.7,0.3-3.1,1-4.1c0.7-1,1.6-1.6,2.7-1.6c1.1,0,2.1,0.5,2.8,1.6
		c0.7,1,1,2.4,1,4.1c0,1.7-0.3,3.1-1,4.2C543.4,273.8,542.4,274.3,541.3,274.3L541.3,274.3z M541.3,273.2c1.5,0,2.3-1.6,2.3-4.7
		c0-3-0.8-4.6-2.3-4.6c-1.5,0-2.2,1.5-2.2,4.6C539.1,271.6,539.8,273.2,541.3,273.2L541.3,273.2z"/>
	<path d="M535.8,227.4v-1.1h2.2v-8.6l-2.2,0.5v-1.1l3.6-0.9v10h2.2v1.1H535.8L535.8,227.4z M547.7,227.7c-1.1,0-2-0.5-2.7-1.6
		s-1-2.4-1-4.1c0-1.7,0.3-3.1,1-4.1c0.7-1,1.6-1.6,2.7-1.6c1.1,0,2.1,0.5,2.7,1.6c0.7,1,1,2.4,1,4.1c0,1.7-0.3,3.1-1,4.2
		C549.8,227.2,548.9,227.7,547.7,227.7L547.7,227.7z M547.8,226.6c1.5,0,2.3-1.6,2.3-4.7c0-3-0.8-4.6-2.3-4.6
		c-1.5,0-2.3,1.5-2.3,4.6C545.5,225.1,546.3,226.6,547.8,226.6L547.8,226.6z"/>
	<path d="M522.8,183.9v-1.3c0.4-1,1.3-2.1,2.5-3.2l0.8-0.7c1.1-1,1.6-1.9,1.6-2.9c0-0.6-0.2-1.1-0.5-1.4c-0.4-0.3-0.9-0.5-1.5-0.5
		c-0.8,0-1.6,0.3-2.7,0.9v-1.3c1-0.5,1.9-0.7,2.9-0.7c1,0,1.8,0.3,2.4,0.8c0.6,0.5,0.9,1.3,0.9,2.2c0,0.6-0.2,1.2-0.5,1.7
		c-0.3,0.5-0.9,1.1-1.7,1.8l-0.6,0.5c-1.2,1-1.8,1.9-2,2.8h4.7v1.3H522.8L522.8,183.9z M535.8,184.1c-1.1,0-2-0.5-2.7-1.6
		s-1-2.4-1-4.1c0-1.7,0.3-3.1,1-4.1c0.7-1,1.6-1.6,2.7-1.6c1.1,0,2.1,0.5,2.8,1.6c0.7,1,1,2.4,1,4.1c0,1.7-0.3,3.1-1,4.2
		C537.9,183.6,536.9,184.1,535.8,184.1L535.8,184.1z M535.8,183.1c1.5,0,2.3-1.6,2.3-4.7c0-3-0.8-4.6-2.3-4.6
		c-1.5,0-2.3,1.5-2.3,4.6C533.6,181.5,534.3,183.1,535.8,183.1L535.8,183.1z"/>
	<path d="M503.6,143.2v-1.3c1,0.4,1.8,0.6,2.4,0.6c0.7,0,1.2-0.2,1.7-0.6c0.4-0.4,0.6-0.9,0.6-1.6c0-1.5-1.1-2.3-3.2-2.3h-0.6v-1
		l0.5,0c2,0,3-0.7,3-2.1c0-1.1-0.7-1.7-2-1.7c-0.7,0-1.5,0.2-2.4,0.6v-1.3c0.9-0.3,1.7-0.4,2.5-0.4c2.2,0,3.3,0.8,3.3,2.5
		c0,1.3-0.8,2.2-2.3,2.7c1.7,0.4,2.6,1.4,2.6,2.9c0,1-0.3,1.8-1,2.4c-0.7,0.6-1.6,0.9-2.8,0.9C505.5,143.6,504.7,143.5,503.6,143.2
		L503.6,143.2z M516.3,143.6c-1.1,0-2-0.5-2.7-1.6s-1-2.4-1-4.1c0-1.7,0.3-3.1,1-4.1c0.7-1,1.6-1.6,2.7-1.6s2.1,0.5,2.7,1.6
		c0.7,1,1,2.4,1,4.1c0,1.7-0.3,3.1-1,4.2C518.4,143.1,517.4,143.6,516.3,143.6L516.3,143.6z M516.3,142.5c1.5,0,2.3-1.6,2.3-4.7
		c0-3-0.8-4.6-2.3-4.6c-1.5,0-2.3,1.5-2.3,4.6C514.1,141,514.8,142.5,516.3,142.5L516.3,142.5z"/>
	<path d="M480.8,105.8v-3.1h-4.9v-1.1l4.9-6.7h1.4v6.6h1.4v1.2h-1.4v3.1H480.8L480.8,105.8z M477.3,101.5h3.6v-4.8L477.3,101.5
		L477.3,101.5z M489.3,106c-1.1,0-2-0.5-2.7-1.6c-0.7-1.1-1-2.4-1-4.1c0-1.7,0.3-3.1,1-4.1c0.7-1,1.6-1.6,2.7-1.6
		c1.1,0,2.1,0.5,2.8,1.6c0.7,1,1,2.4,1,4.1c0,1.7-0.3,3.1-1,4.2C491.4,105.5,490.5,106,489.3,106L489.3,106z M489.3,104.9
		c1.5,0,2.3-1.6,2.3-4.7c0-3-0.8-4.6-2.3-4.6c-1.5,0-2.3,1.5-2.3,4.6C487.1,103.4,487.8,104.9,489.3,104.9L489.3,104.9z"/>
	<path d="M444,72.8v-1.3c0.7,0.3,1.4,0.4,2.1,0.4c0.7,0,1.3-0.2,1.7-0.6c0.4-0.4,0.6-1,0.6-1.7c0-1.6-1.1-2.4-3.4-2.4
		c-0.3,0-0.5,0-0.8,0.1v-5.3h5.5v1.3h-4.2V66c1.4,0,2.5,0.3,3.3,1c0.8,0.6,1.2,1.5,1.2,2.7c0,1.1-0.4,1.9-1.1,2.5
		c-0.7,0.6-1.7,0.9-2.9,0.9C445.3,73,444.7,72.9,444,72.8L444,72.8z M456.3,73c-1.1,0-2-0.5-2.7-1.6c-0.7-1.1-1-2.4-1-4.1
		c0-1.7,0.3-3.1,1-4.1c0.7-1,1.6-1.6,2.7-1.6c1.1,0,2.1,0.5,2.8,1.6c0.7,1,1,2.4,1,4.1c0,1.7-0.3,3.1-1,4.2
		C458.4,72.5,457.5,73,456.3,73L456.3,73z M456.4,71.9c1.5,0,2.3-1.6,2.3-4.7c0-3-0.8-4.6-2.3-4.6c-1.5,0-2.2,1.5-2.2,4.6
		C454.1,70.4,454.9,71.9,456.4,71.9L456.4,71.9z"/>
	<path d="M407.3,41.6c0.7-0.9,1.6-1.3,2.6-1.3c0.9,0,1.7,0.3,2.3,0.9c0.6,0.6,0.9,1.4,0.9,2.4c0,1.1-0.3,2.1-1,2.8
		c-0.7,0.7-1.5,1.1-2.6,1.1c-1.2,0-2.1-0.5-2.8-1.4c-0.7-1-1-2.3-1-4c0-1.9,0.4-3.3,1.2-4.4c0.8-1,1.9-1.6,3.3-1.6
		c0.6,0,1.4,0.1,2.4,0.4v1.3c-1-0.4-1.9-0.6-2.5-0.6C408.2,37.1,407.3,38.6,407.3,41.6L407.3,41.6z M411.7,43.9
		c0-0.8-0.2-1.5-0.6-1.9c-0.4-0.5-0.9-0.7-1.5-0.7c-0.6,0-1.1,0.2-1.6,0.6c-0.4,0.4-0.7,0.9-0.7,1.5c0,0.9,0.2,1.6,0.6,2.2
		c0.4,0.5,1,0.8,1.7,0.8c0.6,0,1.1-0.2,1.5-0.7C411.5,45.2,411.7,44.6,411.7,43.9L411.7,43.9z M418.9,47.5c-1.1,0-2-0.5-2.7-1.6
		c-0.7-1.1-1-2.4-1-4.1c0-1.7,0.3-3.1,1-4.1c0.7-1,1.6-1.6,2.7-1.6c1.1,0,2.1,0.5,2.8,1.6c0.7,1,1,2.4,1,4.1c0,1.7-0.3,3.1-1,4.2
		C421,46.9,420.1,47.5,418.9,47.5L418.9,47.5z M418.9,46.4c1.5,0,2.3-1.6,2.3-4.7c0-3-0.8-4.6-2.3-4.6c-1.5,0-2.3,1.5-2.3,4.6
		C416.7,44.8,417.4,46.4,418.9,46.4L418.9,46.4z"/>
	<path d="M365,27.7c0.1-0.8,0.3-1.6,0.6-2.2c0.3-0.6,0.7-1.5,1.4-2.5l3-4.8h-5.6v-1.4h7v1.4c-2.8,4.1-4.3,7.3-4.7,9.5H365L365,27.7z
		 M376.9,27.9c-1.1,0-2-0.5-2.7-1.6c-0.7-1.1-1-2.4-1-4.1c0-1.7,0.3-3.1,1-4.1c0.7-1,1.6-1.6,2.7-1.6c1.1,0,2.1,0.5,2.7,1.6
		c0.7,1,1,2.4,1,4.1c0,1.7-0.3,3.1-1,4.2C379,27.4,378.1,27.9,376.9,27.9L376.9,27.9z M376.9,26.8c1.5,0,2.3-1.6,2.3-4.7
		c0-3-0.8-4.6-2.3-4.6c-1.5,0-2.3,1.5-2.3,4.6C374.7,25.3,375.5,26.8,376.9,26.8L376.9,26.8z"/>
	<path d="M321.3,9.7c-1.1-0.7-1.6-1.6-1.6-2.5c0-0.8,0.3-1.5,0.9-2c0.6-0.5,1.4-0.8,2.4-0.8c0.9,0,1.6,0.2,2.2,0.7
		c0.6,0.4,0.8,1,0.8,1.7c0,1-0.7,2-2,2.9c1.6,0.8,2.5,1.8,2.5,3.1c0,0.9-0.3,1.7-1,2.2c-0.7,0.6-1.6,0.9-2.7,0.9
		c-1.1,0-1.9-0.3-2.6-0.8c-0.7-0.5-1-1.3-1-2.1C319.1,11.7,319.8,10.6,321.3,9.7L321.3,9.7z M323.1,9.3c1-0.7,1.5-1.4,1.5-2.2
		c0-0.4-0.2-0.8-0.5-1.1c-0.3-0.3-0.8-0.4-1.3-0.4c-0.5,0-1,0.1-1.3,0.4c-0.3,0.3-0.5,0.6-0.5,1c0,0.4,0.1,0.8,0.4,1.1
		C321.7,8.4,322.3,8.8,323.1,9.3L323.1,9.3z M322,10.3c-0.6,0.4-1,0.8-1.2,1.2c-0.2,0.3-0.3,0.8-0.3,1.2c0,0.6,0.2,1.1,0.6,1.5
		c0.4,0.4,0.9,0.6,1.6,0.6c0.6,0,1.1-0.2,1.5-0.5c0.4-0.3,0.6-0.8,0.6-1.3c0-0.4-0.1-0.8-0.4-1.1c-0.2-0.3-0.7-0.6-1.4-1.1L322,10.3
		L322,10.3z M332,15.9c-1.1,0-2-0.5-2.7-1.6c-0.7-1.1-1-2.4-1-4.1c0-1.7,0.3-3.1,1-4.1c0.7-1,1.6-1.6,2.7-1.6c1.1,0,2.1,0.5,2.8,1.6
		c0.7,1,1,2.4,1,4.1c0,1.7-0.3,3.1-1,4.2C334.1,15.4,333.2,15.9,332,15.9L332,15.9z M332,14.8c1.5,0,2.3-1.6,2.3-4.7
		c0-3-0.8-4.6-2.3-4.6c-1.5,0-2.3,1.5-2.3,4.6C329.8,13.3,330.5,14.8,332,14.8L332,14.8z"/>
	<path d="M273.1,11.1V9.8c0.9,0.3,1.7,0.5,2.3,0.5c0.9,0,1.6-0.4,2.1-1.1c0.5-0.8,0.8-1.8,0.8-3.2c-0.7,0.9-1.6,1.4-2.5,1.4
		c-0.9,0-1.7-0.3-2.3-1c-0.6-0.7-1-1.5-1-2.5c0-1.1,0.3-2,1-2.8c0.7-0.7,1.5-1.1,2.6-1.1c1.2,0,2.1,0.5,2.8,1.4c0.7,0.9,1,2.2,1,3.9
		c0,1.9-0.4,3.4-1.2,4.4c-0.8,1.1-1.9,1.6-3.4,1.6C274.7,11.4,274,11.3,273.1,11.1L273.1,11.1z M273.9,3.6c0,0.8,0.2,1.5,0.6,2
		c0.4,0.5,0.9,0.7,1.5,0.7c0.6,0,1.1-0.2,1.6-0.6c0.4-0.4,0.6-0.9,0.6-1.5c0-0.9-0.2-1.7-0.6-2.2c-0.4-0.6-1-0.8-1.6-0.8
		c-0.6,0-1.1,0.2-1.5,0.7C274.1,2.2,273.9,2.8,273.9,3.6L273.9,3.6z M285.5,11.4c-1.1,0-2-0.5-2.7-1.6c-0.7-1.1-1-2.4-1-4.1
		c0-1.7,0.3-3.1,1-4.1c0.7-1,1.6-1.6,2.7-1.6c1.1,0,2.1,0.5,2.8,1.6c0.7,1,1,2.4,1,4.1c0,1.7-0.3,3.1-1,4.2
		C287.6,10.9,286.7,11.4,285.5,11.4L285.5,11.4z M285.6,10.3c1.5,0,2.3-1.6,2.3-4.7c0-3-0.8-4.6-2.3-4.6c-1.5,0-2.2,1.5-2.2,4.6
		C283.3,8.8,284.1,10.3,285.6,10.3L285.6,10.3z"/>
	<path d="M227.2,15.6v-1.1h2.2V6l-2.2,0.5V5.4l3.6-0.9v10h2.2v1.1H227.2L227.2,15.6z M239.1,15.9c-1.1,0-2-0.5-2.7-1.6
		c-0.7-1.1-1-2.4-1-4.1c0-1.7,0.3-3.1,1-4.1c0.7-1,1.6-1.6,2.7-1.6c1.1,0,2.1,0.5,2.7,1.6c0.7,1,1,2.4,1,4.1c0,1.7-0.3,3.1-1,4.2
		C241.2,15.4,240.3,15.9,239.1,15.9L239.1,15.9z M239.1,14.8c1.5,0,2.3-1.6,2.3-4.7c0-3-0.8-4.6-2.3-4.6c-1.5,0-2.3,1.5-2.3,4.6
		C236.9,13.3,237.6,14.8,239.1,14.8L239.1,14.8z M248.6,15.9c-1.1,0-2-0.5-2.7-1.6c-0.7-1.1-1-2.4-1-4.1c0-1.7,0.3-3.1,1-4.1
		c0.7-1,1.6-1.6,2.7-1.6c1.1,0,2.1,0.5,2.7,1.6c0.7,1,1,2.4,1,4.1c0,1.7-0.3,3.1-1,4.2C250.7,15.4,249.7,15.9,248.6,15.9L248.6,15.9
		z M248.6,14.8c1.5,0,2.3-1.6,2.3-4.7c0-3-0.8-4.6-2.3-4.6c-1.5,0-2.3,1.5-2.3,4.6C246.4,13.3,247.1,14.8,248.6,14.8L248.6,14.8z"/>
	<path d="M182.2,27.7v-1.1h2.2V18l-2.2,0.5v-1.1l3.6-0.9v10h2.2v1.1H182.2L182.2,27.7z M191.7,27.7v-1.1h2.2V18l-2.2,0.5v-1.1
		l3.6-0.9v10h2.2v1.1H191.7L191.7,27.7z M203.6,27.9c-1.1,0-2-0.5-2.7-1.6c-0.7-1.1-1-2.4-1-4.1c0-1.7,0.3-3.1,1-4.1
		c0.7-1,1.6-1.6,2.7-1.6c1.1,0,2.1,0.5,2.7,1.6c0.7,1,1,2.4,1,4.1c0,1.7-0.3,3.1-1,4.2C205.7,27.4,204.8,27.9,203.6,27.9L203.6,27.9
		z M203.6,26.8c1.5,0,2.3-1.6,2.3-4.7c0-3-0.8-4.6-2.3-4.6c-1.5,0-2.3,1.5-2.3,4.6C201.4,25.3,202.1,26.8,203.6,26.8L203.6,26.8z"/>
	<path d="M140.3,47.2v-1.1h2.2v-8.6l-2.2,0.5V37l3.6-0.9v10h2.2v1.1H140.3L140.3,47.2z M148.7,47.2v-1.3c0.4-1,1.3-2.1,2.5-3.2
		l0.8-0.7c1.1-1,1.6-1.9,1.6-2.9c0-0.6-0.2-1.1-0.5-1.4c-0.4-0.3-0.9-0.5-1.5-0.5c-0.8,0-1.6,0.3-2.7,0.9v-1.3
		c1-0.5,1.9-0.7,2.9-0.7c1,0,1.8,0.3,2.4,0.8c0.6,0.5,0.9,1.3,0.9,2.2c0,0.6-0.2,1.2-0.5,1.7c-0.3,0.5-0.9,1.1-1.7,1.8l-0.6,0.5
		c-1.2,1-1.8,1.9-2,2.8h4.7v1.3H148.7L148.7,47.2z M161.7,47.5c-1.1,0-2-0.5-2.7-1.6c-0.7-1.1-1-2.4-1-4.1c0-1.7,0.3-3.1,1-4.1
		c0.7-1,1.6-1.6,2.7-1.6c1.1,0,2.1,0.5,2.7,1.6c0.7,1,1,2.4,1,4.1c0,1.7-0.3,3.1-1,4.2C163.8,46.9,162.8,47.5,161.7,47.5L161.7,47.5
		z M161.7,46.4c1.5,0,2.3-1.6,2.3-4.7c0-3-0.8-4.6-2.3-4.6c-1.5,0-2.3,1.5-2.3,4.6C159.4,44.8,160.2,46.4,161.7,46.4L161.7,46.4z"/>
	<path d="M102.8,72.7v-1.1h2.2v-8.6l-2.2,0.5v-1.1l3.6-0.9v10h2.2v1.1H102.8L102.8,72.7z M111.5,72.6v-1.3c1,0.4,1.8,0.6,2.4,0.6
		c0.7,0,1.2-0.2,1.7-0.6c0.4-0.4,0.6-0.9,0.6-1.6c0-1.5-1.1-2.3-3.2-2.3h-0.6v-1l0.5,0c2,0,3-0.7,3-2.1c0-1.1-0.7-1.7-2-1.7
		c-0.7,0-1.5,0.2-2.4,0.6V62c0.9-0.3,1.7-0.4,2.5-0.4c2.2,0,3.3,0.8,3.3,2.5c0,1.3-0.8,2.2-2.3,2.7c1.7,0.4,2.6,1.4,2.6,2.9
		c0,1-0.3,1.8-1,2.4c-0.7,0.6-1.6,0.9-2.8,0.9C113.4,73,112.6,72.9,111.5,72.6L111.5,72.6z M124.2,73c-1.1,0-2-0.5-2.7-1.6
		c-0.7-1.1-1-2.4-1-4.1c0-1.7,0.3-3.1,1-4.1c0.7-1,1.6-1.6,2.7-1.6c1.1,0,2.1,0.5,2.7,1.6c0.7,1,1,2.4,1,4.1c0,1.7-0.3,3.1-1,4.2
		C126.3,72.5,125.4,73,124.2,73L124.2,73z M124.2,71.9c1.5,0,2.3-1.6,2.3-4.7c0-3-0.8-4.6-2.3-4.6c-1.5,0-2.3,1.5-2.3,4.6
		C122,70.4,122.7,71.9,124.2,71.9L124.2,71.9z"/>
	<path d="M69.8,105.8v-1.1H72v-8.6l-2.2,0.5v-1.1l3.6-0.9v10h2.2v1.1H69.8L69.8,105.8z M82.7,105.8v-3.1h-4.9v-1.1l4.9-6.7h1.4v6.6
		h1.4v1.2h-1.4v3.1H82.7L82.7,105.8z M79.2,101.5h3.6v-4.8L79.2,101.5L79.2,101.5z M91.2,106c-1.1,0-2-0.5-2.7-1.6
		c-0.7-1.1-1-2.4-1-4.1c0-1.7,0.3-3.1,1-4.1c0.7-1,1.6-1.6,2.7-1.6c1.1,0,2.1,0.5,2.7,1.6c0.7,1,1,2.4,1,4.1c0,1.7-0.3,3.1-1,4.2
		C93.3,105.5,92.4,106,91.2,106L91.2,106z M91.2,104.9c1.5,0,2.3-1.6,2.3-4.7c0-3-0.8-4.6-2.3-4.6c-1.5,0-2.3,1.5-2.3,4.6
		C89,103.4,89.8,104.9,91.2,104.9L91.2,104.9z"/>
	<path d="M42.9,143.3v-1.1H45v-8.6l-2.2,0.5v-1.1l3.6-0.9v10h2.2v1.1H42.9L42.9,143.3z M51.9,143.4v-1.3c0.7,0.3,1.4,0.4,2,0.4
		c0.7,0,1.3-0.2,1.7-0.6c0.4-0.4,0.6-1,0.6-1.7c0-1.6-1.1-2.4-3.4-2.4c-0.3,0-0.5,0-0.8,0.1v-5.3h5.5v1.3h-4.2v2.9
		c1.4,0,2.5,0.3,3.3,1s1.2,1.5,1.2,2.7c0,1.1-0.4,1.9-1.1,2.5c-0.7,0.6-1.7,0.9-3,0.9C53.2,143.6,52.6,143.5,51.9,143.4L51.9,143.4z
		 M64.3,143.6c-1.1,0-2-0.5-2.7-1.6c-0.7-1.1-1-2.4-1-4.1c0-1.7,0.3-3.1,1-4.1c0.7-1,1.6-1.6,2.7-1.6c1.1,0,2.1,0.5,2.7,1.6
		c0.7,1,1,2.4,1,4.1c0,1.7-0.3,3.1-1,4.2C66.4,143.1,65.4,143.6,64.3,143.6L64.3,143.6z M64.3,142.5c1.5,0,2.3-1.6,2.3-4.7
		c0-3-0.8-4.6-2.3-4.6c-1.5,0-2.3,1.5-2.3,4.6C62.1,141,62.8,142.5,64.3,142.5L64.3,142.5z"/>
	<path d="M23.4,183.9v-1.1h2.2v-8.6l-2.2,0.5v-1.1l3.6-0.9v10h2.2v1.1H23.4L23.4,183.9z M33.2,178.2c0.7-0.9,1.6-1.3,2.6-1.3
		c0.9,0,1.7,0.3,2.3,0.9c0.6,0.6,0.9,1.4,0.9,2.4c0,1.1-0.3,2.1-1,2.8c-0.7,0.7-1.5,1.1-2.6,1.1c-1.2,0-2.1-0.5-2.8-1.4
		c-0.7-1-1-2.3-1-4c0-1.9,0.4-3.3,1.2-4.4c0.8-1,1.9-1.6,3.3-1.6c0.6,0,1.4,0.1,2.4,0.4v1.3c-1-0.4-1.9-0.6-2.5-0.6
		C34.1,173.8,33.2,175.3,33.2,178.2L33.2,178.2z M37.6,180.6c0-0.8-0.2-1.5-0.6-1.9c-0.4-0.5-0.9-0.7-1.5-0.7
		c-0.6,0-1.1,0.2-1.6,0.6c-0.4,0.4-0.7,0.9-0.7,1.5c0,0.9,0.2,1.6,0.6,2.2c0.4,0.5,1,0.8,1.7,0.8c0.6,0,1.1-0.2,1.5-0.7
		C37.4,181.9,37.6,181.3,37.6,180.6L37.6,180.6z M44.8,184.1c-1.1,0-2-0.5-2.7-1.6c-0.7-1.1-1-2.4-1-4.1c0-1.7,0.3-3.1,1-4.1
		c0.7-1,1.6-1.6,2.7-1.6c1.1,0,2.1,0.5,2.7,1.6c0.7,1,1,2.4,1,4.1c0,1.7-0.3,3.1-1,4.2C46.9,183.6,46,184.1,44.8,184.1L44.8,184.1z
		 M44.8,183.1c1.5,0,2.3-1.6,2.3-4.7c0-3-0.8-4.6-2.3-4.6c-1.5,0-2.3,1.5-2.3,4.6C42.6,181.5,43.3,183.1,44.8,183.1L44.8,183.1z"/>
	<path d="M11.4,227.4v-1.1h2.2v-8.6l-2.2,0.5v-1.1l3.6-0.9v10h2.2v1.1H11.4L11.4,227.4z M20.9,227.4c0.1-0.8,0.3-1.6,0.6-2.2
		c0.3-0.6,0.7-1.5,1.4-2.5l3-4.8h-5.6v-1.4h7v1.4c-2.8,4.1-4.3,7.3-4.7,9.5H20.9L20.9,227.4z M32.8,227.7c-1.1,0-2-0.5-2.7-1.6
		c-0.7-1.1-1-2.4-1-4.1c0-1.7,0.3-3.1,1-4.1c0.7-1,1.6-1.6,2.7-1.6c1.1,0,2.1,0.5,2.7,1.6c0.7,1,1,2.4,1,4.1c0,1.7-0.3,3.1-1,4.2
		C34.9,227.2,34,227.7,32.8,227.7L32.8,227.7z M32.8,226.6c1.5,0,2.3-1.6,2.3-4.7c0-3-0.8-4.6-2.3-4.6c-1.5,0-2.3,1.5-2.3,4.6
		C30.6,225.1,31.3,226.6,32.8,226.6L32.8,226.6z"/>
	<path d="M8.4,274v-1.1h2.2v-8.6l-2.2,0.5v-1.1l3.6-0.9v10h2.2v1.1H8.4L8.4,274z M19.1,268.1c-1.1-0.7-1.6-1.6-1.6-2.5
		c0-0.8,0.3-1.5,0.9-2c0.6-0.5,1.4-0.8,2.3-0.8c0.9,0,1.6,0.2,2.2,0.7c0.6,0.4,0.8,1,0.8,1.7c0,1-0.7,2-2,2.9
		c1.6,0.8,2.5,1.8,2.5,3.1c0,0.9-0.3,1.7-1,2.2c-0.7,0.6-1.6,0.9-2.7,0.9c-1.1,0-1.9-0.3-2.6-0.8c-0.7-0.5-1-1.2-1-2.1
		C16.9,270,17.6,269,19.1,268.1L19.1,268.1z M20.9,267.6c1-0.7,1.5-1.4,1.5-2.2c0-0.4-0.2-0.8-0.5-1.1c-0.3-0.3-0.8-0.4-1.3-0.4
		c-0.5,0-1,0.1-1.3,0.4c-0.3,0.3-0.5,0.6-0.5,1c0,0.4,0.1,0.8,0.4,1.1C19.5,266.8,20.1,267.2,20.9,267.6L20.9,267.6z M19.9,268.7
		c-0.6,0.4-1,0.8-1.2,1.2c-0.2,0.3-0.3,0.8-0.3,1.2c0,0.6,0.2,1.1,0.6,1.5c0.4,0.4,0.9,0.6,1.6,0.6c0.6,0,1.1-0.2,1.5-0.5
		c0.4-0.3,0.6-0.8,0.6-1.3c0-0.4-0.1-0.8-0.4-1.1c-0.2-0.3-0.7-0.6-1.4-1.1L19.9,268.7L19.9,268.7z M29.8,274.3
		c-1.1,0-2-0.5-2.7-1.6c-0.7-1.1-1-2.4-1-4.1c0-1.7,0.3-3.1,1-4.1c0.7-1,1.6-1.6,2.7-1.6c1.1,0,2.1,0.5,2.7,1.6c0.7,1,1,2.4,1,4.1
		c0,1.7-0.3,3.1-1,4.2C31.9,273.8,31,274.3,29.8,274.3L29.8,274.3z M29.8,273.2c1.5,0,2.3-1.6,2.3-4.7c0-3-0.8-4.6-2.3-4.6
		c-1.5,0-2.3,1.5-2.3,4.6C27.6,271.6,28.3,273.2,29.8,273.2L29.8,273.2z"/>
	<path d="M309,277.3c-1.1,0-2-0.5-2.7-1.6c-0.7-1.1-1-2.4-1-4.1c0-1.7,0.3-3.1,1-4.1c0.7-1,1.6-1.6,2.7-1.6c1.1,0,2.1,0.5,2.7,1.6
		c0.7,1,1,2.4,1,4.1c0,1.7-0.3,3.1-1,4.2C311.1,276.8,310.2,277.3,309,277.3L309,277.3z M309,276.2c1.5,0,2.3-1.6,2.3-4.7
		c0-3-0.8-4.6-2.3-4.6c-1.5,0-2.3,1.5-2.3,4.6C306.8,274.7,307.6,276.2,309,276.2L309,276.2z M315.3,277v-1.8h1.8v1.8H315.3
		L315.3,277z M320.8,277v-1.1h2.2v-8.6l-2.2,0.5v-1.1l3.6-0.9v10h2.2v1.1H320.8L320.8,277z"/>
	<path d="M343.5,277.3c-1.1,0-2-0.5-2.7-1.6c-0.7-1.1-1-2.4-1-4.1c0-1.7,0.3-3.1,1-4.1c0.7-1,1.6-1.6,2.7-1.6c1.1,0,2.1,0.5,2.8,1.6
		c0.7,1,1,2.4,1,4.1c0,1.7-0.3,3.1-1,4.2C345.6,276.8,344.7,277.3,343.5,277.3L343.5,277.3z M343.5,276.2c1.5,0,2.3-1.6,2.3-4.7
		c0-3-0.8-4.6-2.3-4.6c-1.5,0-2.3,1.5-2.3,4.6C341.3,274.7,342,276.2,343.5,276.2L343.5,276.2z M349.7,277v-1.8h1.8v1.8H349.7
		L349.7,277z M354.2,277v-1.3c0.4-1,1.3-2.1,2.5-3.2l0.8-0.7c1.1-1,1.6-1.9,1.6-2.9c0-0.6-0.2-1.1-0.5-1.4c-0.4-0.3-0.9-0.5-1.5-0.5
		c-0.8,0-1.6,0.3-2.7,0.9v-1.3c1-0.5,1.9-0.7,2.9-0.7c1,0,1.8,0.3,2.4,0.8c0.6,0.5,0.9,1.3,0.9,2.2c0,0.6-0.2,1.2-0.5,1.7
		c-0.3,0.5-0.9,1.1-1.7,1.8l-0.6,0.5c-1.2,1-1.8,1.9-2,2.8h4.7v1.3H354.2L354.2,277z"/>
	<path d="M379.4,277.3c-1.1,0-2-0.5-2.7-1.6c-0.7-1.1-1-2.4-1-4.1c0-1.7,0.3-3.1,1-4.1c0.7-1,1.6-1.6,2.7-1.6c1.1,0,2.1,0.5,2.8,1.6
		c0.7,1,1,2.4,1,4.1c0,1.7-0.3,3.1-1,4.2C381.5,276.8,380.6,277.3,379.4,277.3L379.4,277.3z M379.5,276.2c1.5,0,2.3-1.6,2.3-4.7
		c0-3-0.8-4.6-2.3-4.6c-1.5,0-2.3,1.5-2.3,4.6C377.2,274.7,378,276.2,379.5,276.2L379.5,276.2z M385.7,277v-1.8h1.8v1.8H385.7
		L385.7,277z M390.5,276.9v-1.4c1,0.4,1.8,0.6,2.4,0.6c0.7,0,1.2-0.2,1.7-0.6c0.4-0.4,0.6-0.9,0.6-1.6c0-1.5-1.1-2.3-3.2-2.3h-0.6
		v-1l0.5,0c2,0,3-0.7,3-2.1c0-1.1-0.7-1.7-2-1.7c-0.7,0-1.5,0.2-2.4,0.6v-1.3c0.9-0.3,1.7-0.4,2.5-0.4c2.2,0,3.3,0.8,3.3,2.5
		c0,1.3-0.8,2.2-2.3,2.7c1.7,0.4,2.6,1.4,2.6,2.9c0,1-0.3,1.8-1,2.4c-0.7,0.6-1.6,0.9-2.8,0.9C392.4,277.3,391.5,277.2,390.5,276.9
		L390.5,276.9z"/>
	<path d="M413.9,277.3c-1.1,0-2-0.5-2.7-1.6c-0.7-1.1-1-2.4-1-4.1c0-1.7,0.3-3.1,1-4.1s1.6-1.6,2.7-1.6c1.1,0,2.1,0.5,2.8,1.6
		c0.7,1,1,2.4,1,4.1c0,1.7-0.3,3.1-1,4.2C416,276.8,415.1,277.3,413.9,277.3L413.9,277.3z M413.9,276.2c1.5,0,2.3-1.6,2.3-4.7
		c0-3-0.8-4.6-2.3-4.6c-1.5,0-2.3,1.5-2.3,4.6C411.7,274.7,412.4,276.2,413.9,276.2L413.9,276.2z M420.2,277v-1.8h1.8v1.8H420.2
		L420.2,277z M429.1,277v-3.1h-4.9v-1.1l4.9-6.7h1.4v6.6h1.4v1.2h-1.4v3.1H429.1L429.1,277z M425.6,272.8h3.6v-4.8L425.6,272.8
		L425.6,272.8z"/>
	<path d="M448.4,277.3c-1.1,0-2-0.5-2.7-1.6c-0.7-1.1-1-2.4-1-4.1c0-1.7,0.3-3.1,1-4.1c0.7-1,1.6-1.6,2.7-1.6c1.1,0,2.1,0.5,2.7,1.6
		s1,2.4,1,4.1c0,1.7-0.3,3.1-1,4.2C450.5,276.8,449.5,277.3,448.4,277.3L448.4,277.3z M448.4,276.2c1.5,0,2.3-1.6,2.3-4.7
		c0-3-0.8-4.6-2.3-4.6c-1.5,0-2.3,1.5-2.3,4.6C446.2,274.7,446.9,276.2,448.4,276.2L448.4,276.2z M454.6,277v-1.8h1.8v1.8H454.6
		L454.6,277z M459.7,277v-1.3c0.7,0.3,1.4,0.4,2,0.4c0.7,0,1.3-0.2,1.7-0.6c0.4-0.4,0.6-1,0.6-1.7c0-1.6-1.1-2.4-3.4-2.4
		c-0.3,0-0.5,0-0.8,0.1v-5.3h5.5v1.3h-4.2v2.9c1.4,0,2.5,0.3,3.3,1c0.8,0.6,1.2,1.5,1.2,2.7c0,1.1-0.4,1.9-1.1,2.5
		c-0.7,0.6-1.7,0.9-2.9,0.9C461,277.3,460.4,277.2,459.7,277L459.7,277z"/>
	<path d="M484.3,277.3c-1.1,0-2-0.5-2.7-1.6c-0.7-1.1-1-2.4-1-4.1c0-1.7,0.3-3.1,1-4.1c0.7-1,1.6-1.6,2.7-1.6c1.1,0,2.1,0.5,2.8,1.6
		c0.7,1,1,2.4,1,4.1c0,1.7-0.3,3.1-1,4.2C486.4,276.8,485.5,277.3,484.3,277.3L484.3,277.3z M484.3,276.2c1.5,0,2.3-1.6,2.3-4.7
		c0-3-0.8-4.6-2.3-4.6c-1.5,0-2.2,1.5-2.2,4.6C482.1,274.7,482.9,276.2,484.3,276.2L484.3,276.2z M490.6,277v-1.8h1.8v1.8H490.6
		L490.6,277z M496.4,271.4c0.7-0.9,1.6-1.3,2.6-1.3c0.9,0,1.7,0.3,2.3,0.9c0.6,0.6,0.9,1.4,0.9,2.4c0,1.1-0.3,2.1-1,2.8
		c-0.7,0.7-1.5,1.1-2.6,1.1c-1.2,0-2.1-0.5-2.8-1.4c-0.7-1-1-2.3-1-4c0-1.9,0.4-3.3,1.2-4.4c0.8-1,1.9-1.6,3.3-1.6
		c0.6,0,1.4,0.1,2.4,0.4v1.3c-1-0.4-1.9-0.6-2.5-0.6C497.3,267,496.4,268.4,496.4,271.4L496.4,271.4z M500.8,273.7
		c0-0.8-0.2-1.5-0.6-1.9c-0.4-0.5-0.9-0.7-1.5-0.7c-0.6,0-1.1,0.2-1.6,0.6c-0.4,0.4-0.7,0.9-0.7,1.5c0,0.9,0.2,1.6,0.6,2.2
		c0.4,0.6,1,0.8,1.7,0.8c0.6,0,1.1-0.2,1.5-0.7C500.6,275.1,500.8,274.5,500.8,273.7L500.8,273.7z"/>
	<path d="M541.3,277.3c-1.1,0-2-0.5-2.7-1.6c-0.7-1.1-1-2.4-1-4.1c0-1.7,0.3-3.1,1-4.1c0.7-1,1.6-1.6,2.7-1.6c1.1,0,2.1,0.5,2.8,1.6
		c0.7,1,1,2.4,1,4.1c0,1.7-0.3,3.1-1,4.2C543.4,276.8,542.4,277.3,541.3,277.3L541.3,277.3z M541.3,276.2c1.5,0,2.3-1.6,2.3-4.7
		c0-3-0.8-4.6-2.3-4.6c-1.5,0-2.2,1.5-2.2,4.6C539.1,274.7,539.8,276.2,541.3,276.2L541.3,276.2z"/>
	<path d="M502.1,143.2v-1.3c1,0.4,1.9,0.6,2.4,0.6c0.7,0,1.2-0.2,1.7-0.6c0.4-0.4,0.6-0.9,0.6-1.6c0-1.5-1.1-2.3-3.2-2.3h-0.6v-1
		l0.5,0c2,0,3-0.7,3-2.1c0-1.1-0.7-1.7-2-1.7c-0.7,0-1.5,0.2-2.4,0.6v-1.3c0.9-0.3,1.7-0.4,2.5-0.4c2.2,0,3.3,0.8,3.3,2.5
		c0,1.3-0.8,2.2-2.3,2.7c1.7,0.4,2.6,1.4,2.6,2.9c0,1-0.3,1.8-1,2.4c-0.7,0.6-1.6,0.9-2.8,0.9C504,143.6,503.2,143.5,502.1,143.2
		L502.1,143.2z M514.8,143.6c-1.1,0-2-0.5-2.7-1.6s-1-2.4-1-4.1c0-1.7,0.3-3.1,1-4.1c0.7-1,1.6-1.6,2.7-1.6c1.1,0,2.1,0.5,2.8,1.6
		c0.7,1,1,2.4,1,4.1c0,1.7-0.3,3.1-1,4.2C516.9,143.1,516,143.6,514.8,143.6L514.8,143.6z M514.8,142.5c1.5,0,2.3-1.6,2.3-4.7
		c0-3-0.8-4.6-2.3-4.6c-1.5,0-2.3,1.5-2.3,4.6C512.6,141,513.3,142.5,514.8,142.5L514.8,142.5z"/>
	<path d="M404.3,41.6c0.7-0.9,1.6-1.3,2.6-1.3c0.9,0,1.7,0.3,2.3,0.9c0.6,0.6,0.9,1.4,0.9,2.4c0,1.1-0.3,2.1-1,2.8
		c-0.7,0.7-1.5,1.1-2.6,1.1c-1.2,0-2.1-0.5-2.8-1.4c-0.7-1-1-2.3-1-4c0-1.9,0.4-3.3,1.2-4.4c0.8-1,1.9-1.6,3.3-1.6
		c0.6,0,1.4,0.1,2.4,0.4v1.3c-1-0.4-1.9-0.6-2.5-0.6C405.2,37.1,404.3,38.6,404.3,41.6L404.3,41.6z M408.7,43.9
		c0-0.8-0.2-1.5-0.6-1.9c-0.4-0.5-0.9-0.7-1.5-0.7c-0.6,0-1.1,0.2-1.6,0.6c-0.4,0.4-0.7,0.9-0.7,1.5c0,0.9,0.2,1.6,0.6,2.2
		c0.4,0.5,1,0.8,1.7,0.8c0.6,0,1.1-0.2,1.5-0.7C408.5,45.2,408.7,44.6,408.7,43.9L408.7,43.9z M415.9,47.5c-1.1,0-2-0.5-2.7-1.6
		c-0.7-1.1-1-2.4-1-4.1c0-1.7,0.3-3.1,1-4.1c0.7-1,1.6-1.6,2.7-1.6c1.1,0,2.1,0.5,2.7,1.6c0.7,1,1,2.4,1,4.1c0,1.7-0.3,3.1-1,4.2
		C418,46.9,417.1,47.5,415.9,47.5L415.9,47.5z M415.9,46.4c1.5,0,2.3-1.6,2.3-4.7c0-3-0.8-4.6-2.3-4.6c-1.5,0-2.3,1.5-2.3,4.6
		C413.7,44.8,414.4,46.4,415.9,46.4L415.9,46.4z"/>
	<path d="M268.6,11.1V9.8c0.9,0.3,1.7,0.5,2.3,0.5c0.9,0,1.6-0.4,2.1-1.1c0.5-0.8,0.8-1.8,0.8-3.2c-0.7,0.9-1.6,1.4-2.5,1.4
		c-0.9,0-1.7-0.3-2.3-1c-0.6-0.7-1-1.5-1-2.5c0-1.1,0.3-2,1-2.8c0.7-0.7,1.5-1.1,2.6-1.1c1.2,0,2.1,0.5,2.8,1.4c0.7,0.9,1,2.2,1,3.9
		c0,1.9-0.4,3.4-1.2,4.4c-0.8,1.1-1.9,1.6-3.4,1.6C270.2,11.4,269.5,11.3,268.6,11.1L268.6,11.1z M269.5,3.6c0,0.8,0.2,1.5,0.6,2
		c0.4,0.5,0.9,0.7,1.5,0.7c0.6,0,1.1-0.2,1.6-0.6c0.4-0.4,0.6-0.9,0.6-1.5c0-0.9-0.2-1.7-0.6-2.2c-0.4-0.6-1-0.8-1.6-0.8
		c-0.6,0-1.1,0.2-1.5,0.7C269.6,2.2,269.5,2.8,269.5,3.6L269.5,3.6z M281,11.4c-1.1,0-2-0.5-2.7-1.6c-0.7-1.1-1-2.4-1-4.1
		c0-1.7,0.3-3.1,1-4.1c0.7-1,1.6-1.6,2.7-1.6c1.1,0,2.1,0.5,2.7,1.6c0.7,1,1,2.4,1,4.1c0,1.7-0.3,3.1-1,4.2
		C283.1,10.9,282.2,11.4,281,11.4L281,11.4z M281.1,10.3c1.5,0,2.3-1.6,2.3-4.7c0-3-0.8-4.6-2.3-4.6c-1.5,0-2.3,1.5-2.3,4.6
		C278.8,8.8,279.6,10.3,281.1,10.3L281.1,10.3z"/>
	<path d="M134.3,47.2v-1.1h2.2v-8.6l-2.2,0.5V37l3.6-0.9v10h2.2v1.1H134.3L134.3,47.2z M142.7,47.2v-1.3c0.4-1,1.3-2.1,2.5-3.2
		l0.8-0.7c1.1-1,1.6-1.9,1.6-2.9c0-0.6-0.2-1.1-0.5-1.4c-0.4-0.3-0.9-0.5-1.5-0.5c-0.8,0-1.6,0.3-2.7,0.9v-1.3
		c1-0.5,1.9-0.7,2.9-0.7c1,0,1.8,0.3,2.4,0.8c0.6,0.5,0.9,1.3,0.9,2.2c0,0.6-0.2,1.2-0.5,1.7c-0.3,0.5-0.9,1.1-1.7,1.8l-0.6,0.5
		c-1.2,1-1.8,1.9-2,2.8h4.7v1.3H142.7L142.7,47.2z M155.7,47.5c-1.1,0-2-0.5-2.7-1.6c-0.7-1.1-1-2.4-1-4.1c0-1.7,0.3-3.1,1-4.1
		c0.7-1,1.6-1.6,2.7-1.6c1.1,0,2.1,0.5,2.7,1.6c0.7,1,1,2.4,1,4.1c0,1.7-0.3,3.1-1,4.2C157.8,46.9,156.8,47.5,155.7,47.5L155.7,47.5
		z M155.7,46.4c1.5,0,2.3-1.6,2.3-4.7c0-3-0.8-4.6-2.3-4.6c-1.5,0-2.3,1.5-2.3,4.6C153.5,44.8,154.2,46.4,155.7,46.4L155.7,46.4z"/>
	<path d="M35.4,143.3v-1.1h2.2v-8.6l-2.2,0.5v-1.1l3.6-0.9v10h2.2v1.1H35.4L35.4,143.3z M44.4,143.4v-1.3c0.7,0.3,1.4,0.4,2,0.4
		c0.7,0,1.3-0.2,1.7-0.6c0.4-0.4,0.6-1,0.6-1.7c0-1.6-1.1-2.4-3.4-2.4c-0.3,0-0.5,0-0.8,0.1v-5.3h5.5v1.3h-4.2v2.9
		c1.4,0,2.5,0.3,3.3,1c0.8,0.6,1.2,1.5,1.2,2.7c0,1.1-0.4,1.9-1.1,2.5c-0.7,0.6-1.7,0.9-3,0.9C45.7,143.6,45.1,143.5,44.4,143.4
		L44.4,143.4z M56.8,143.6c-1.1,0-2-0.5-2.7-1.6c-0.7-1.1-1-2.4-1-4.1c0-1.7,0.3-3.1,1-4.1c0.7-1,1.6-1.6,2.7-1.6
		c1.1,0,2.1,0.5,2.7,1.6c0.7,1,1,2.4,1,4.1c0,1.7-0.3,3.1-1,4.2C58.9,143.1,57.9,143.6,56.8,143.6L56.8,143.6z M56.8,142.5
		c1.5,0,2.3-1.6,2.3-4.7c0-3-0.8-4.6-2.3-4.6c-1.5,0-2.3,1.5-2.3,4.6C54.6,141,55.3,142.5,56.8,142.5L56.8,142.5z"/>
	<path d="M34.4,409.2v-1.3c0.4-1,1.3-2.1,2.5-3.2l0.8-0.7c1.1-1,1.6-1.9,1.6-2.9c0-0.6-0.2-1.1-0.5-1.4c-0.4-0.3-0.9-0.5-1.5-0.5
		c-0.8,0-1.6,0.3-2.7,0.9v-1.3c1-0.5,1.9-0.7,2.9-0.7c1,0,1.8,0.3,2.4,0.8c0.6,0.6,0.9,1.3,0.9,2.2c0,0.6-0.2,1.2-0.5,1.7
		c-0.3,0.5-0.9,1.1-1.7,1.8l-0.6,0.5c-1.2,1-1.8,1.9-2,2.8h4.7v1.3H34.4L34.4,409.2z M44.9,409.2v-1.1H47v-8.6l-2.2,0.5V399l3.6-0.9
		v10h2.2v1.1H44.9L44.9,409.2z M56.8,409.5c-1.1,0-2-0.5-2.7-1.6c-0.7-1.1-1-2.4-1-4.1c0-1.7,0.3-3.1,1-4.1c0.7-1,1.6-1.6,2.7-1.6
		c1.1,0,2.1,0.5,2.7,1.6c0.7,1,1,2.4,1,4.1c0,1.7-0.3,3.1-1,4.2C58.9,408.9,57.9,409.5,56.8,409.5L56.8,409.5z M56.8,408.4
		c1.5,0,2.3-1.6,2.3-4.7c0-3-0.8-4.6-2.3-4.6c-1.5,0-2.3,1.5-2.3,4.6C54.6,406.8,55.3,408.4,56.8,408.4L56.8,408.4z"/>
	<path d="M133.3,505.3v-1.3c0.4-1,1.3-2.1,2.5-3.2l0.8-0.7c1.1-1,1.6-1.9,1.6-2.9c0-0.6-0.2-1.1-0.5-1.4c-0.4-0.3-0.9-0.5-1.5-0.5
		c-0.8,0-1.6,0.3-2.7,0.9v-1.3c1-0.5,1.9-0.7,2.9-0.7c1,0,1.8,0.3,2.4,0.8c0.6,0.6,0.9,1.3,0.9,2.2c0,0.6-0.2,1.2-0.5,1.7
		c-0.3,0.5-0.9,1.1-1.7,1.8l-0.6,0.5c-1.2,1-1.8,1.9-2,2.8h4.7v1.3H133.3L133.3,505.3z M147.1,505.3v-3.1h-4.9v-1.1l4.9-6.7h1.4v6.6
		h1.4v1.2h-1.4v3.1H147.1L147.1,505.3z M143.7,501.1h3.6v-4.8L143.7,501.1L143.7,501.1z M155.7,505.6c-1.1,0-2-0.5-2.7-1.6
		c-0.7-1.1-1-2.4-1-4.1c0-1.7,0.3-3.1,1-4.1c0.7-1,1.6-1.6,2.7-1.6c1.1,0,2.1,0.5,2.7,1.6c0.7,1,1,2.4,1,4.1c0,1.7-0.3,3.1-1,4.2
		C157.8,505.1,156.8,505.6,155.7,505.6L155.7,505.6z M155.7,504.5c1.5,0,2.3-1.6,2.3-4.7c0-3-0.8-4.6-2.3-4.6
		c-1.5,0-2.3,1.5-2.3,4.6C153.5,503,154.2,504.5,155.7,504.5L155.7,504.5z"/>
	<path d="M268.1,541.4v-1.3c0.4-1,1.3-2.1,2.5-3.2l0.8-0.7c1.1-1,1.6-1.9,1.6-2.9c0-0.6-0.2-1.1-0.5-1.4c-0.4-0.3-0.9-0.5-1.5-0.5
		c-0.8,0-1.6,0.3-2.7,0.9v-1.3c1-0.5,1.9-0.7,2.9-0.7c1,0,1.8,0.3,2.4,0.8c0.6,0.5,0.9,1.3,0.9,2.2c0,0.6-0.2,1.2-0.5,1.7
		c-0.3,0.5-0.9,1.1-1.7,1.8l-0.6,0.5c-1.2,1-1.8,1.9-2,2.8h4.7v1.3H268.1L268.1,541.4z M278.6,541.4c0.1-0.8,0.3-1.6,0.6-2.2
		c0.3-0.6,0.7-1.5,1.4-2.5l3-4.8H278v-1.4h7v1.4c-2.8,4.1-4.3,7.3-4.7,9.5H278.6L278.6,541.4z M290.5,541.7c-1.1,0-2-0.5-2.7-1.6
		s-1-2.4-1-4.1c0-1.7,0.3-3.1,1-4.1c0.7-1,1.6-1.6,2.7-1.6c1.1,0,2.1,0.5,2.8,1.6c0.7,1,1,2.4,1,4.1c0,1.7-0.3,3.1-1,4.2
		C292.6,541.1,291.7,541.7,290.5,541.7L290.5,541.7z M290.5,540.6c1.5,0,2.3-1.6,2.3-4.7c0-3-0.8-4.6-2.3-4.6
		c-1.5,0-2.3,1.5-2.3,4.6C288.3,539,289,540.6,290.5,540.6L290.5,540.6z"/>
	<path d="M403.2,505.2v-1.4c1,0.4,1.9,0.6,2.4,0.6c0.7,0,1.2-0.2,1.7-0.6c0.4-0.4,0.6-0.9,0.6-1.6c0-1.5-1.1-2.3-3.2-2.3h-0.6v-1
		l0.5,0c2,0,3-0.7,3-2.1c0-1.1-0.7-1.7-2-1.7c-0.7,0-1.5,0.2-2.4,0.6v-1.3c0.9-0.3,1.7-0.4,2.5-0.4c2.2,0,3.3,0.8,3.3,2.5
		c0,1.3-0.8,2.2-2.3,2.7c1.7,0.4,2.6,1.4,2.6,2.9c0,1-0.3,1.8-1,2.4c-0.7,0.6-1.6,0.9-2.8,0.9C405.1,505.6,404.3,505.5,403.2,505.2
		L403.2,505.2z M415.9,505.6c-1.1,0-2-0.5-2.7-1.6c-0.7-1.1-1-2.4-1-4.1c0-1.7,0.3-3.1,1-4.1c0.7-1,1.6-1.6,2.7-1.6
		c1.1,0,2.1,0.5,2.7,1.6c0.7,1,1,2.4,1,4.1c0,1.7-0.3,3.1-1,4.2C418,505.1,417.1,505.6,415.9,505.6L415.9,505.6z M415.9,504.5
		c1.5,0,2.3-1.6,2.3-4.7c0-3-0.8-4.6-2.3-4.6c-1.5,0-2.3,1.5-2.3,4.6C413.7,503,414.4,504.5,415.9,504.5L415.9,504.5z M425.4,505.6
		c-1.1,0-2-0.5-2.7-1.6c-0.7-1.1-1-2.4-1-4.1c0-1.7,0.3-3.1,1-4.1c0.7-1,1.6-1.6,2.7-1.6c1.1,0,2.1,0.5,2.8,1.6c0.7,1,1,2.4,1,4.1
		c0,1.7-0.3,3.1-1,4.2C427.5,505.1,426.5,505.6,425.4,505.6L425.4,505.6z M425.4,504.5c1.5,0,2.3-1.6,2.3-4.7c0-3-0.8-4.6-2.3-4.6
		c-1.5,0-2.3,1.5-2.3,4.6C423.2,503,423.9,504.5,425.4,504.5L425.4,504.5z"/>
	<path d="M502.1,409.1v-1.4c1,0.4,1.9,0.6,2.4,0.6c0.7,0,1.2-0.2,1.7-0.6c0.4-0.4,0.6-0.9,0.6-1.6c0-1.5-1.1-2.3-3.2-2.3h-0.6v-1
		l0.5,0c2,0,3-0.7,3-2.1c0-1.1-0.7-1.7-2-1.7c-0.7,0-1.5,0.2-2.4,0.6v-1.3c0.9-0.3,1.7-0.4,2.5-0.4c2.2,0,3.3,0.8,3.3,2.5
		c0,1.3-0.8,2.2-2.3,2.7c1.7,0.4,2.6,1.4,2.6,2.9c0,1-0.3,1.8-1,2.4c-0.7,0.6-1.6,0.9-2.8,0.9C504,409.5,503.2,409.4,502.1,409.1
		L502.1,409.1z M511.6,409.1v-1.4c1,0.4,1.8,0.6,2.4,0.6c0.7,0,1.2-0.2,1.7-0.6c0.4-0.4,0.6-0.9,0.6-1.6c0-1.5-1.1-2.3-3.2-2.3h-0.6
		v-1l0.5,0c2,0,3-0.7,3-2.1c0-1.1-0.7-1.7-2-1.7c-0.7,0-1.5,0.2-2.4,0.6v-1.3c0.9-0.3,1.7-0.4,2.5-0.4c2.2,0,3.3,0.8,3.3,2.5
		c0,1.3-0.8,2.2-2.3,2.7c1.7,0.4,2.6,1.4,2.6,2.9c0,1-0.3,1.8-1,2.4c-0.7,0.6-1.6,0.9-2.8,0.9C513.5,409.5,512.6,409.4,511.6,409.1
		L511.6,409.1z M524.3,409.5c-1.1,0-2-0.5-2.7-1.6c-0.7-1.1-1-2.4-1-4.1c0-1.7,0.3-3.1,1-4.1c0.7-1,1.6-1.6,2.7-1.6
		c1.1,0,2.1,0.5,2.7,1.6s1,2.4,1,4.1c0,1.7-0.3,3.1-1,4.2C526.4,408.9,525.4,409.5,524.3,409.5L524.3,409.5z M524.3,408.4
		c1.5,0,2.3-1.6,2.3-4.7c0-3-0.8-4.6-2.3-4.6c-1.5,0-2.3,1.5-2.3,4.6C522.1,406.8,522.8,408.4,524.3,408.4L524.3,408.4z"/>
</g>
</svg>
