<?xml version="1.0" encoding="utf-8"?>
<!-- Generator: Adobe Illustrator 17.1.0, SVG Export Plug-In . SVG Version: 6.00 Build 0)  -->
<!DOCTYPE svg PUBLIC "-//W3C//DTD SVG 1.1//EN" "http://www.w3.org/Graphics/SVG/1.1/DTD/svg11.dtd" [
	<!ENTITY ns_extend "http://ns.adobe.com/Extensibility/1.0/">
	<!ENTITY ns_ai "http://ns.adobe.com/AdobeIllustrator/10.0/">
	<!ENTITY ns_graphs "http://ns.adobe.com/Graphs/1.0/">
	<!ENTITY ns_vars "http://ns.adobe.com/Variables/1.0/">
	<!ENTITY ns_imrep "http://ns.adobe.com/ImageReplacement/1.0/">
	<!ENTITY ns_sfw "http://ns.adobe.com/SaveForWeb/1.0/">
	<!ENTITY ns_custom "http://ns.adobe.com/GenericCustomNamespace/1.0/">
	<!ENTITY ns_adobe_xpath "http://ns.adobe.com/XPath/1.0/">
]>
<svg version="1.1" id="Layer_1" xmlns:x="&ns_extend;" xmlns:i="&ns_ai;" xmlns:graph="&ns_graphs;"
	 xmlns="http://www.w3.org/2000/svg" xmlns:xlink="http://www.w3.org/1999/xlink" x="0px" y="0px" viewBox="0 0 168.2 106.2"
	 enable-background="new 0 0 168.2 106.2" xml:space="preserve">
<metadata>
	<sfw  xmlns="&ns_sfw;">
		<slices></slices>
		<sliceSourceBounds  bottomLeftOrigin="true" width="168.2" height="106.2" x="3.2" y="-161.2"></sliceSourceBounds>
	</sfw>
</metadata>
<circle fill="#FFFFFF" stroke="#000000" stroke-miterlimit="10" cx="65.1" cy="45.6" r="6"/>
<circle fill="#FFFFFF" stroke="#000000" stroke-miterlimit="10" cx="75.7" cy="2.6" r="2"/>
<g>
	<g>
		<g>
			<line fill="none" stroke="#000000" stroke-miterlimit="10" x1="29.3" y1="76.8" x2="29.3" y2="20.9"/>
			<g>
				<path d="M29.3,14.8c1.1,2.8,2.9,6.4,4.8,8.5l-4.8-1.7l-4.8,1.7C26.5,21.2,28.3,17.7,29.3,14.8z"/>
			</g>
		</g>
	</g>
	<g>
		<g>
			<line fill="none" stroke="#000000" stroke-miterlimit="10" x1="29.3" y1="76.8" x2="4.3" y2="101.9"/>
			<g>
				<path d="M0,106.2c1.3-2.8,2.5-6.5,2.7-9.4l2.1,4.6l4.6,2.1C6.5,103.7,2.8,104.9,0,106.2z"/>
			</g>
		</g>
	</g>
	<g>
		<g>
			<line fill="none" stroke="#000000" stroke-miterlimit="10" x1="29.3" y1="76.8" x2="71.9" y2="76.8"/>
			<g>
				<path d="M77.9,76.8c-2.8,1.1-6.4,2.9-8.5,4.8l1.7-4.8l-1.7-4.8C71.5,74,75.1,75.8,77.9,76.8z"/>
			</g>
		</g>
	</g>
</g>
<g>
	<g>
		<line fill="none" stroke="#000000" stroke-miterlimit="10" x1="70.5" y1="9.8" x2="29.3" y2="76.8"/>
		<g>
			<path d="M73.7,4.7c-2.4,1.9-5.8,3.9-8.5,4.8l5,1l3.2,4C72.8,11.6,73.1,7.6,73.7,4.7z"/>
		</g>
	</g>
</g>
<g>
	<g>
		<line fill="none" stroke="#000000" stroke-miterlimit="10" x1="55.7" y1="53.3" x2="29.3" y2="76.8"/>
		<g>
			<path d="M60.2,49.2c-2.8,1.1-6.6,2.1-9.5,2.1l4.5,2.4l1.9,4.7C57.4,55.6,58.8,51.9,60.2,49.2z"/>
		</g>
	</g>
</g>
<circle fill="#FFFFFF" stroke="#000000" stroke-miterlimit="10" cx="155.1" cy="45.5" r="6"/>
<circle fill="#FFFFFF" stroke="#000000" stroke-miterlimit="10" cx="165.7" cy="2.5" r="2"/>
<g>
	<g>
		<g>
			<line fill="none" stroke="#000000" stroke-miterlimit="10" x1="119.4" y1="76.7" x2="119.4" y2="20.7"/>
			<g>
				<path d="M119.4,14.7c1.1,2.8,2.9,6.4,4.8,8.5l-4.8-1.7l-4.8,1.7C116.5,21.1,118.3,17.5,119.4,14.7z"/>
			</g>
		</g>
	</g>
	<g>
		<g>
			<line fill="none" stroke="#000000" stroke-miterlimit="10" x1="119.4" y1="76.7" x2="94.3" y2="101.8"/>
			<g>
				<path d="M90,106c1.3-2.8,2.5-6.5,2.7-9.4l2.1,4.6l4.6,2.1C96.6,103.5,92.8,104.8,90,106z"/>
			</g>
		</g>
	</g>
	<g>
		<g>
			<line fill="none" stroke="#000000" stroke-miterlimit="10" x1="119.4" y1="76.7" x2="161.9" y2="76.7"/>
			<g>
				<path d="M168,76.7c-2.8,1.1-6.4,2.9-8.5,4.8l1.7-4.8l-1.7-4.8C161.6,73.9,165.1,75.7,168,76.7z"/>
			</g>
		</g>
	</g>
</g>
<g>
	<g>
		<line fill="none" stroke="#000000" stroke-miterlimit="10" x1="164.2" y1="10.4" x2="155.1" y2="45.5"/>
		<g>
			<path d="M165.7,4.5C164,7,161.4,10,159,11.6l5-0.5l4.2,2.9C166.9,11.4,166,7.5,165.7,4.5z"/>
		</g>
	</g>
</g>
<g>
	<g>
		<line fill="none" stroke="#000000" stroke-miterlimit="10" x1="150.6" y1="49.4" x2="119.4" y2="76.7"/>
		<g>
			<path d="M155.1,45.5c-2.8,1.1-6.7,2-9.6,2l4.4,2.4l1.8,4.7C152.2,51.8,153.7,48.1,155.1,45.5z"/>
		</g>
	</g>
</g>
</svg>
