<?xml version="1.0" encoding="utf-8"?>
<!-- Generator: Adobe Illustrator 17.1.0, SVG Export Plug-In . SVG Version: 6.00 Build 0)  -->
<!DOCTYPE svg PUBLIC "-//W3C//DTD SVG 1.1//EN" "http://www.w3.org/Graphics/SVG/1.1/DTD/svg11.dtd" [
	<!ENTITY ns_extend "http://ns.adobe.com/Extensibility/1.0/">
	<!ENTITY ns_ai "http://ns.adobe.com/AdobeIllustrator/10.0/">
	<!ENTITY ns_graphs "http://ns.adobe.com/Graphs/1.0/">
	<!ENTITY ns_vars "http://ns.adobe.com/Variables/1.0/">
	<!ENTITY ns_imrep "http://ns.adobe.com/ImageReplacement/1.0/">
	<!ENTITY ns_sfw "http://ns.adobe.com/SaveForWeb/1.0/">
	<!ENTITY ns_custom "http://ns.adobe.com/GenericCustomNamespace/1.0/">
	<!ENTITY ns_adobe_xpath "http://ns.adobe.com/XPath/1.0/">
]>
<svg version="1.1" id="Layer_1" xmlns:x="&ns_extend;" xmlns:i="&ns_ai;" xmlns:graph="&ns_graphs;"
	 xmlns="http://www.w3.org/2000/svg" xmlns:xlink="http://www.w3.org/1999/xlink" x="0px" y="0px" viewBox="0 0 132.1 126.2"
	 enable-background="new 0 0 132.1 126.2" xml:space="preserve">
<metadata>
	<sfw  xmlns="&ns_sfw;">
		<slices></slices>
		<sliceSourceBounds  bottomLeftOrigin="true" width="132.1" height="126.2" x="85" y="-206.3"></sliceSourceBounds>
	</sfw>
</metadata>
<circle stroke="#000000" stroke-miterlimit="10" cx="83.1" cy="63.5" r="6"/>
<g opacity="0.3">
	<g>
		<line fill="none" stroke="#000000" stroke-miterlimit="10" x1="29.3" y1="85.7" x2="29.3" y2="29.7"/>
		<g>
			<path d="M29.3,23.7c1.1,2.8,2.9,6.4,4.8,8.5l-4.8-1.7l-4.8,1.7C26.5,30.1,28.3,26.5,29.3,23.7z"/>
		</g>
	</g>
</g>
<g opacity="0.3">
	<g>
		<line fill="none" stroke="#000000" stroke-miterlimit="10" x1="29.3" y1="85.7" x2="4.3" y2="110.8"/>
		<g>
			<path d="M0,115c1.3-2.8,2.5-6.5,2.7-9.4l2.1,4.6l4.6,2.1C6.5,112.5,2.8,113.8,0,115z"/>
		</g>
	</g>
</g>
<g opacity="0.3">
	<g>
		<line fill="none" stroke="#000000" stroke-miterlimit="10" x1="29.3" y1="85.7" x2="66.6" y2="85.7"/>
		<g>
			<path d="M72.6,85.7c-2.8,1.1-6.4,2.9-8.5,4.8l1.7-4.8L64.1,81C66.3,82.9,69.8,84.7,72.6,85.7z"/>
		</g>
	</g>
</g>
<g>
	<g>
		<line fill="none" stroke="#006FB9" stroke-miterlimit="10" x1="103.5" y1="15.6" x2="29.3" y2="85.7"/>
		<g>
			<path fill="#006FB9" d="M105.7,13.5c-1.4,0.6-3.3,1.1-4.7,1.2l2.3,1.1l1,2.3C104.3,16.8,105,14.9,105.7,13.5z"/>
		</g>
	</g>
</g>
<g>
	<g>
		<line fill="none" stroke="#006FB9" stroke-miterlimit="10" x1="72.8" y1="68.4" x2="29.3" y2="85.7"/>
		<g>
			<path fill="#006FB9" d="M75.6,67.2c-1.5,0-3.5-0.1-4.9-0.6l1.7,1.9l0.1,2.5C73.2,69.7,74.5,68.2,75.6,67.2z"/>
		</g>
	</g>
</g>
<path fill="#FFFFFF" stroke="#000000" stroke-miterlimit="10" d="M120.3,115c0,1.1-0.9,2-2,2s-2-0.9-2-2s0.9-2,2-2
	S120.3,113.9,120.3,115"/>
<path fill="#FFFFFF" stroke="#000000" stroke-miterlimit="10" d="M109.7,11.5c0,1.1-0.9,2-2,2c-1.1,0-2-0.9-2-2s0.9-2,2-2
	C108.8,9.5,109.7,10.4,109.7,11.5"/>
<text transform="matrix(1 0 0 1 97.094 5.0218)" font-family="'MyriadPro-Regular'" font-size="6">electron 1</text>
<text transform="matrix(1 0 0 1 105.8221 124.6997)" font-family="'MyriadPro-Regular'" font-size="6">electron 2</text>
<text transform="matrix(1 0 0 1 74.3684 55.3923)" font-family="'MyriadPro-Regular'" font-size="6">nucleus</text>
<text transform="matrix(1 0 0 1 48.8064 74.6831)" font-family="'MyriadPro-Regular'" font-size="10">R</text>
<text transform="matrix(1 0 0 1 63.774 46.1507)"><tspan x="0" y="0" font-family="'MyriadPro-Regular'" font-size="10">r</tspan><tspan x="3.3" y="2" font-family="'MyriadPro-Regular'" font-size="6">1</tspan></text>
<text transform="matrix(1 0 0 1 67.488 106.874)"><tspan x="0" y="0" font-family="'MyriadPro-Regular'" font-size="10">r</tspan><tspan x="3.3" y="2" font-family="'MyriadPro-Regular'" font-size="6">2</tspan></text>
<g>
	<g>
		<line fill="none" stroke="#006FB9" stroke-miterlimit="10" x1="109.3" y1="112.1" x2="29.3" y2="85.7"/>
		<g>
			<path fill="#006FB9" d="M112.2,113c-1.2-0.9-2.6-2.3-3.3-3.6l0.1,2.5l-1.6,2C108.7,113.4,110.6,113.1,112.2,113z"/>
		</g>
	</g>
</g>
<g>
	<g>
		<line fill="none" stroke="#006FB9" stroke-miterlimit="10" x1="110.1" y1="19.3" x2="116.3" y2="109.1"/>
		<g>
			<path fill="#006FB9" d="M109.9,16.3c-0.4,1.5-1.2,3.3-2.1,4.4l2.3-1l2.4,0.7C111.6,19.4,110.5,17.7,109.9,16.3z"/>
		</g>
	</g>
</g>
<text transform="matrix(1 0 0 1 116.2897 63.4547)"><tspan x="0" y="0" font-family="'MyriadPro-Regular'" font-size="10">r</tspan><tspan x="3.3" y="2" font-family="'MyriadPro-Regular'" font-size="6">1</tspan><tspan x="6.3" y="0" font-family="'MyriadPro-Regular'" font-size="10">-r</tspan><tspan x="12.7" y="2" font-family="'MyriadPro-Regular'" font-size="6">2</tspan></text>
<g>
	<g>
		<line fill="none" stroke="#006FB9" stroke-miterlimit="10" x1="106.2" y1="18.9" x2="89.1" y2="49.7"/>
		<g>
			<path fill="#006FB9" d="M107.7,16.3c-1.2,1-2.8,2.1-4.2,2.6l2.5,0.4l1.7,1.9C107.4,19.8,107.4,17.8,107.7,16.3z"/>
		</g>
	</g>
</g>
<g>
	<g>
		<line fill="none" stroke="#006FB9" stroke-miterlimit="10" x1="110.6" y1="106.5" x2="89.1" y2="71.7"/>
		<g>
			<path fill="#006FB9" d="M112.2,109.1c-0.3-1.5-0.5-3.5-0.2-4.9l-1.6,2l-2.5,0.5C109.3,107.1,111,108.1,112.2,109.1z"/>
		</g>
	</g>
</g>
<text transform="matrix(1 0 0 1 95.0549 44.5376)"><tspan x="0" y="0" font-family="'MyriadPro-Regular'" font-size="10">r</tspan><tspan x="3.3" y="2" font-family="'MyriadPro-Regular'" font-size="6">1</tspan><tspan x="6.3" y="0" font-family="'MyriadPro-Regular'" font-size="10">-R</tspan></text>
<text transform="matrix(1 0 0 1 81.0773 93.2316)"><tspan x="0" y="0" font-family="'MyriadPro-Regular'" font-size="10">r</tspan><tspan x="3.3" y="2" font-family="'MyriadPro-Regular'" font-size="6">2</tspan><tspan x="6.3" y="0" font-family="'MyriadPro-Regular'" font-size="10">-R</tspan></text>
<text transform="matrix(1 0 0 1 10.691 85.7131)" font-family="'MyriadPro-Regular'" font-size="6">origin</text>
<text transform="matrix(1 0 0 1 31.6587 36.7794)" font-family="'MyriadPro-Regular'" font-size="6">z</text>
<text transform="matrix(1 0 0 1 59.304 90.3681)" font-family="'MyriadPro-Regular'" font-size="6">y</text>
<text transform="matrix(1 0 0 1 10.6911 110.7633)" font-family="'MyriadPro-Regular'" font-size="6">x</text>
</svg>
