<?xml version="1.0" encoding="utf-8"?>
<!-- Generator: Adobe Illustrator 17.1.0, SVG Export Plug-In . SVG Version: 6.00 Build 0)  -->
<!DOCTYPE svg PUBLIC "-//W3C//DTD SVG 1.1//EN" "http://www.w3.org/Graphics/SVG/1.1/DTD/svg11.dtd" [
	<!ENTITY ns_extend "http://ns.adobe.com/Extensibility/1.0/">
	<!ENTITY ns_ai "http://ns.adobe.com/AdobeIllustrator/10.0/">
	<!ENTITY ns_graphs "http://ns.adobe.com/Graphs/1.0/">
	<!ENTITY ns_vars "http://ns.adobe.com/Variables/1.0/">
	<!ENTITY ns_imrep "http://ns.adobe.com/ImageReplacement/1.0/">
	<!ENTITY ns_sfw "http://ns.adobe.com/SaveForWeb/1.0/">
	<!ENTITY ns_custom "http://ns.adobe.com/GenericCustomNamespace/1.0/">
	<!ENTITY ns_adobe_xpath "http://ns.adobe.com/XPath/1.0/">
]>
<svg version="1.1" id="Layer_1" xmlns:x="&ns_extend;" xmlns:i="&ns_ai;" xmlns:graph="&ns_graphs;"
	 xmlns="http://www.w3.org/2000/svg" xmlns:xlink="http://www.w3.org/1999/xlink" x="0px" y="0px" viewBox="0 0 841.9 1190.5"
	 enable-background="new 0 0 841.9 1190.5" xml:space="preserve">
<metadata>
	<sfw  xmlns="&ns_sfw;">
		<slices></slices>
		<sliceSourceBounds  bottomLeftOrigin="true" width="770.4" height="1085.6" x="36.8" y="74.7"></sliceSourceBounds>
	</sfw>
</metadata>
<g>
	<polygon fill="#FFFFFF" points="109.4,554 109.4,33.5 109.4,554 	"/>
	<polygon fill="#FFFFFF" points="109.4,33.5 109.4,33.5 109.4,554 	"/>
	<polygon fill="#FFFFFF" points="109.4,554 799.4,554 109.4,554 	"/>
	<polygon fill="#FFFFFF" points="799.4,554 799.4,554 109.4,554 	"/>
	<polyline fill="none" stroke="#000000" stroke-width="2" points="109.4,77.8 116.4,134.3 123.3,182.8 130.3,224.6 137.3,260.4 
		144.3,291.3 151.2,317.7 158.2,340.5 165.2,360.1 172.1,376.9 179.1,391.3 186.1,403.7 193,414.4 200,423.6 207,431.5 214,438.2 
		220.9,444.1 227.9,449.1 234.9,453.4 241.8,457.1 248.8,460.2 255.8,463 262.7,465.3 269.7,467.3 276.7,469.1 283.6,470.5 
		290.6,471.8 297.6,472.9 304.6,473.9 311.5,474.7 318.5,475.4 325.5,476 332.4,476.5 339.4,476.9 346.4,477.3 353.3,477.6 
		360.3,477.9 367.3,478.2 374.3,478.4 381.2,478.6 388.2,478.7 395.2,478.8 402.1,479 409.1,479.1 416.1,479.1 423,479.2 430,479.3 
		437,479.3 444,479.4 450.9,479.4 457.9,479.4 464.9,479.5 471.8,479.5 478.8,479.5 485.8,479.5 492.7,479.6 499.7,479.6 
		506.7,479.6 513.6,479.6 520.6,479.6 527.6,479.6 534.6,479.6 541.5,479.6 548.5,479.6 555.5,479.6 562.4,479.6 569.4,479.6 
		576.4,479.6 583.3,479.6 590.3,479.6 597.3,479.6 604.3,479.6 611.2,479.6 618.2,479.6 625.2,479.6 632.1,479.6 639.1,479.6 
		646.1,479.6 653,479.6 660,479.6 667,479.6 674,479.6 680.9,479.6 687.9,479.6 694.9,479.6 701.8,479.6 708.8,479.6 715.8,479.6 
		722.7,479.6 729.7,479.6 736.7,479.6 743.6,479.6 750.6,479.6 757.6,479.6 764.6,479.6 771.5,479.6 778.5,479.6 785.5,479.6 
		792.4,479.6 799.4,479.6 	"/>
	<g>
		<g>
			<line fill="none" stroke="#000000" stroke-width="2" x1="109.4" y1="337.6" x2="111.3" y2="343.2"/>
			<polyline fill="none" stroke="#000000" stroke-width="2" stroke-dasharray="12.1058,12.1058" points="115.3,354.7 116.4,357.9 
				123.3,376 130.3,392.2 137.3,406.5 144.3,419.2 151.2,430.5 158.2,440.4 165.2,449.1 172.1,456.8 179.1,463.5 186.1,469.4 
				193,474.4 200,478.8 207,482.6 214,485.9 220.9,488.6 227.9,490.9 234.9,492.9 241.8,494.4 248.8,495.7 255.8,496.8 262.7,497.5 
				269.7,498.1 276.7,498.5 283.6,498.8 290.6,498.9 297.6,498.9 304.6,498.7 311.5,498.5 318.5,498.3 325.5,497.9 332.4,497.6 
				339.4,497.1 346.4,496.7 353.3,496.2 360.3,495.7 367.3,495.2 374.3,494.6 381.2,494.1 388.2,493.6 395.2,493 402.1,492.5 
				409.1,492 416.1,491.5 423,491 430,490.5 437,490 444,489.5 450.9,489.1 457.9,488.6 464.9,488.2 471.8,487.8 478.8,487.4 
				485.8,487 492.7,486.6 499.7,486.3 506.7,485.9 513.6,485.6 520.6,485.3 527.6,485 534.6,484.7 541.5,484.4 548.5,484.2 
				555.5,483.9 562.4,483.7 569.4,483.5 576.4,483.3 583.3,483.1 590.3,482.9 597.3,482.7 604.3,482.5 611.2,482.4 618.2,482.2 
				625.2,482.1 632.1,481.9 639.1,481.8 646.1,481.7 653,481.5 660,481.4 667,481.3 674,481.2 680.9,481.1 687.9,481 694.9,481 
				701.8,480.9 708.8,480.8 715.8,480.7 722.7,480.7 729.7,480.6 736.7,480.6 743.6,480.5 750.6,480.4 757.6,480.4 764.6,480.3 
				771.5,480.3 778.5,480.3 785.5,480.2 787.4,480.2 			"/>
			<line fill="none" stroke="#000000" stroke-width="2" x1="793.4" y1="480.2" x2="799.4" y2="480.2"/>
		</g>
	</g>
	<g>
		<g>
			<line fill="none" stroke="#000000" stroke-width="2" x1="109.4" y1="402.3" x2="110.2" y2="403.6"/>
			<polyline fill="none" stroke="#000000" stroke-width="2" stroke-dasharray="2.9892,2.9892" points="111.8,406.1 116.4,413.4 
				123.3,423.4 130.3,432.3 137.3,440.3 144.3,447.4 151.2,453.6 158.2,459.2 165.2,464.1 172.1,468.4 179.1,472.2 186.1,475.4 
				193,478.3 200,480.7 207,482.7 214,484.4 220.9,485.9 227.9,487 234.9,488 241.8,488.7 248.8,489.2 255.8,489.6 262.7,489.8 
				269.7,489.9 276.7,489.9 283.6,489.8 290.6,489.6 297.6,489.3 304.6,489 311.5,488.6 318.5,488.1 325.5,487.7 332.4,487.2 
				339.4,486.7 346.4,486.2 353.3,485.6 360.3,485.1 367.3,484.5 374.3,484 381.2,483.5 388.2,482.9 395.2,482.4 402.1,481.9 
				409.1,481.4 416.1,480.9 423,480.5 430,480 437,479.6 444,479.2 450.9,478.8 457.9,478.4 464.9,478 471.8,477.7 478.8,477.4 
				485.8,477.1 492.7,476.8 499.7,476.6 506.7,476.3 513.6,476.1 520.6,475.9 527.6,475.7 534.6,475.5 541.5,475.3 548.5,475.2 
				555.5,475.1 562.4,474.9 569.4,474.8 576.4,474.8 583.3,474.7 590.3,474.6 597.3,474.5 604.3,474.5 611.2,474.5 618.2,474.4 
				625.2,474.4 632.1,474.4 639.1,474.4 646.1,474.4 653,474.4 660,474.4 667,474.5 674,474.5 680.9,474.5 687.9,474.6 694.9,474.6 
				701.8,474.7 708.8,474.7 715.8,474.8 722.7,474.9 729.7,474.9 736.7,475 743.6,475 750.6,475.1 757.6,475.2 764.6,475.3 
				771.5,475.3 778.5,475.4 785.5,475.5 792.4,475.6 796.4,475.6 			"/>
			<line fill="none" stroke="#000000" stroke-width="2" x1="797.9" y1="475.6" x2="799.4" y2="475.6"/>
		</g>
	</g>
	<path fill="none" stroke="#000000" stroke-width="0.3755" d="M109.4,479.6h7h7h7h7h7h7h7h7h7h7h7h7h7h7h7h7h7h7h7h7h7h7h7h7h7h7h7
		h7h7h7h7h7h7h7h7h7h7h7h7h7h7h7h7h7h7h7h7h7h7h7h7h7h7h7h7h7h7h7h7h7h7h7h7h7h7h7h7h7h7h7h7h7h7h7h7h7h7h7h7h7h7h7h7h7h7h7h7h7h7h7
		h7h7h7h7h7h7h7h7h7 M109.4,554V33.5 M109.4,554H99.1 M109.4,479.6H99.1 M109.4,405.3H99.1 M109.4,330.9H99.1 M109.4,256.6H99.1
		 M109.4,182.2H99.1 M109.4,107.9H99.1 M109.4,33.5H99.1 M109.4,516.8h-6.2 M109.4,442.5h-6.2 M109.4,368.1h-6.2 M109.4,293.8h-6.2
		 M109.4,219.4h-6.2 M109.4,145h-6.2 M109.4,70.7h-6.2"/>
	<path d="M38.9,557.3v-1.1h6.5v1.1H38.9L38.9,557.3z M48.8,561.1V560h2.2v-8.6l-2.2,0.5v-1.1l3.6-0.9v10h2.2v1.1H48.8L48.8,561.1z
		 M63.3,560.9c-1,0.3-1.8,0.4-2.5,0.4c-1.2,0-2.1-0.4-2.9-1.2c-0.7-0.8-1.1-1.8-1.1-3c0-1.2,0.3-2.2,1-3c0.7-0.8,1.5-1.2,2.5-1.2
		c1,0,1.7,0.3,2.2,1c0.5,0.7,0.8,1.7,0.8,2.9l0,0.4h-5c0.2,1.9,1.1,2.8,2.8,2.8c0.6,0,1.3-0.2,2.2-0.5V560.9L63.3,560.9z
		 M58.4,556.3h3.5c0-1.5-0.6-2.2-1.7-2.2C59.1,554.1,58.5,554.8,58.4,556.3L58.4,556.3z M69.8,561.1v-3.8H66v-1.1h3.8v-3.8h1.1v3.8
		h3.8v1.1h-3.8v3.8H69.8L69.8,561.1z M78.5,561.1V560h2.2v-8.6l-2.2,0.5v-1.1l3.6-0.9v10h2.2v1.1H78.5L78.5,561.1z M87,561.1v-1.3
		c0.4-1,1.3-2.1,2.5-3.2l0.8-0.7c1.1-1,1.6-1.9,1.6-2.9c0-0.6-0.2-1.1-0.5-1.4c-0.4-0.3-0.9-0.5-1.5-0.5c-0.8,0-1.6,0.3-2.7,0.9
		v-1.3c1-0.5,1.9-0.7,2.9-0.7c1,0,1.8,0.3,2.4,0.8c0.6,0.5,0.9,1.3,0.9,2.2c0,0.6-0.2,1.2-0.5,1.7c-0.3,0.5-0.9,1.1-1.7,1.8
		l-0.6,0.5c-1.2,1-1.8,1.9-2,2.8h4.7v1.3H87L87,561.1z"/>
	<path d="M50,487.8c-1.1,0-2-0.5-2.7-1.6c-0.7-1.1-1-2.4-1-4.1c0-1.7,0.3-3.1,1-4.1c0.7-1,1.6-1.6,2.7-1.6c1.1,0,2.1,0.5,2.7,1.6
		c0.7,1,1,2.4,1,4.1c0,1.7-0.3,3.1-1,4.2C52.1,487.3,51.2,487.8,50,487.8L50,487.8z M50.1,486.7c1.5,0,2.3-1.6,2.3-4.7
		c0-3-0.8-4.6-2.3-4.6c-1.5,0-2.3,1.5-2.3,4.6C47.8,485.2,48.6,486.7,50.1,486.7L50.1,486.7z M62.1,487.3c-1,0.3-1.8,0.4-2.5,0.4
		c-1.2,0-2.1-0.4-2.9-1.2c-0.7-0.8-1.1-1.8-1.1-3c0-1.2,0.3-2.2,1-3c0.7-0.8,1.5-1.2,2.5-1.2c1,0,1.7,0.3,2.2,1
		c0.5,0.7,0.8,1.7,0.8,2.9l0,0.4h-5c0.2,1.9,1.1,2.8,2.8,2.8c0.6,0,1.3-0.2,2.2-0.5V487.3L62.1,487.3z M57.2,482.7h3.5
		c0-1.5-0.6-2.2-1.7-2.2C57.9,480.5,57.3,481.2,57.2,482.7L57.2,482.7z M68.6,487.5v-3.8h-3.8v-1.1h3.8v-3.8h1.1v3.8h3.8v1.1h-3.8
		v3.8H68.6L68.6,487.5z M79.8,487.8c-1.1,0-2-0.5-2.7-1.6c-0.7-1.1-1-2.4-1-4.1c0-1.7,0.3-3.1,1-4.1c0.7-1,1.6-1.6,2.7-1.6
		c1.1,0,2.1,0.5,2.7,1.6c0.7,1,1,2.4,1,4.1c0,1.7-0.3,3.1-1,4.2C81.9,487.3,80.9,487.8,79.8,487.8L79.8,487.8z M79.8,486.7
		c1.5,0,2.3-1.6,2.3-4.7c0-3-0.8-4.6-2.3-4.6c-1.5,0-2.3,1.5-2.3,4.6C77.6,485.2,78.3,486.7,79.8,486.7L79.8,486.7z M89.3,487.8
		c-1.1,0-2-0.5-2.7-1.6c-0.7-1.1-1-2.4-1-4.1c0-1.7,0.3-3.1,1-4.1c0.7-1,1.6-1.6,2.7-1.6c1.1,0,2.1,0.5,2.7,1.6c0.7,1,1,2.4,1,4.1
		c0,1.7-0.3,3.1-1,4.2C91.3,487.3,90.4,487.8,89.3,487.8L89.3,487.8z M89.3,486.7c1.5,0,2.3-1.6,2.3-4.7c0-3-0.8-4.6-2.3-4.6
		c-1.5,0-2.3,1.5-2.3,4.6C87,485.2,87.8,486.7,89.3,486.7L89.3,486.7z"/>
	<path d="M50.6,412.4v-1.1h2.2v-8.6l-2.2,0.5v-1.1l3.6-0.9v10h2.2v1.1H50.6L50.6,412.4z M65.1,412.2c-1,0.3-1.8,0.4-2.5,0.4
		c-1.2,0-2.1-0.4-2.9-1.2c-0.7-0.8-1.1-1.8-1.1-3c0-1.2,0.3-2.2,1-3c0.7-0.8,1.5-1.2,2.5-1.2c1,0,1.7,0.3,2.2,1
		c0.5,0.7,0.8,1.7,0.8,2.9l0,0.4h-5c0.2,1.9,1.1,2.8,2.8,2.8c0.6,0,1.3-0.2,2.2-0.5V412.2L65.1,412.2z M60.2,407.6h3.5
		c0-1.5-0.6-2.2-1.7-2.2C60.9,405.4,60.3,406.1,60.2,407.6L60.2,407.6z M71.6,412.4v-3.8h-3.8v-1.1h3.8v-3.8h1.1v3.8h3.8v1.1h-3.8
		v3.8H71.6L71.6,412.4z M80.3,412.4v-1.1h2.2v-8.6l-2.2,0.5v-1.1l3.6-0.9v10h2.2v1.1H80.3L80.3,412.4z M88.8,412.4v-1.3
		c0.4-1,1.3-2.1,2.5-3.2l0.8-0.7c1.1-1,1.6-1.9,1.6-2.9c0-0.6-0.2-1.1-0.5-1.4c-0.4-0.3-0.9-0.5-1.5-0.5c-0.8,0-1.6,0.3-2.7,0.9V402
		c1-0.5,1.9-0.7,2.9-0.7c1,0,1.8,0.3,2.4,0.8c0.6,0.5,0.9,1.3,0.9,2.2c0,0.6-0.2,1.2-0.5,1.7c-0.3,0.5-0.9,1.1-1.7,1.8l-0.6,0.5
		c-1.2,1-1.8,1.9-2,2.8h4.7v1.3H88.8L88.8,412.4z"/>
	<path d="M48.1,338.8v-1.3c0.4-1,1.3-2.1,2.5-3.2l0.8-0.7c1.1-1,1.6-1.9,1.6-2.9c0-0.6-0.2-1.1-0.5-1.4c-0.4-0.3-0.9-0.5-1.5-0.5
		c-0.8,0-1.6,0.3-2.7,0.9v-1.3c1-0.5,1.9-0.7,2.9-0.7c1,0,1.8,0.3,2.4,0.8c0.6,0.5,0.9,1.3,0.9,2.2c0,0.6-0.2,1.2-0.5,1.7
		c-0.3,0.5-0.9,1.1-1.7,1.8l-0.6,0.5c-1.2,1-1.8,1.9-2,2.8h4.7v1.3H48.1L48.1,338.8z M63.6,338.6c-1,0.3-1.8,0.4-2.5,0.4
		c-1.2,0-2.1-0.4-2.9-1.2c-0.7-0.8-1.1-1.8-1.1-3c0-1.2,0.3-2.2,1-3c0.7-0.8,1.5-1.2,2.5-1.2c1,0,1.7,0.3,2.2,1
		c0.5,0.7,0.8,1.7,0.8,2.9l0,0.4h-5c0.2,1.9,1.1,2.8,2.8,2.8c0.6,0,1.3-0.2,2.2-0.5V338.6L63.6,338.6z M58.7,334h3.5
		c0-1.5-0.6-2.2-1.7-2.2C59.4,331.7,58.8,332.5,58.7,334L58.7,334z M70.1,338.8V335h-3.8v-1.1h3.8v-3.8h1.1v3.8H75v1.1h-3.8v3.8
		H70.1L70.1,338.8z M78.8,338.8v-1.1H81v-8.6l-2.2,0.5v-1.1l3.6-0.9v10h2.2v1.1H78.8L78.8,338.8z M87.3,338.8v-1.3
		c0.4-1,1.3-2.1,2.5-3.2l0.8-0.7c1.1-1,1.6-1.9,1.6-2.9c0-0.6-0.2-1.1-0.5-1.4c-0.4-0.3-0.9-0.5-1.5-0.5c-0.8,0-1.6,0.3-2.7,0.9
		v-1.3c1-0.5,1.9-0.7,2.9-0.7c1,0,1.8,0.3,2.4,0.8c0.6,0.5,0.9,1.3,0.9,2.2c0,0.6-0.2,1.2-0.5,1.7c-0.3,0.5-0.9,1.1-1.7,1.8
		l-0.6,0.5c-1.2,1-1.8,1.9-2,2.8h4.7v1.3H87.3L87.3,338.8z"/>
	<path d="M48.4,263.6v-1.3c1,0.4,1.8,0.6,2.4,0.6c0.7,0,1.2-0.2,1.7-0.6c0.4-0.4,0.6-0.9,0.6-1.6c0-1.5-1.1-2.3-3.2-2.3h-0.6v-1
		l0.5,0c2,0,3-0.7,3-2.1c0-1.1-0.7-1.7-2-1.7c-0.7,0-1.5,0.2-2.4,0.6V253c0.9-0.3,1.7-0.4,2.5-0.4c2.2,0,3.3,0.8,3.3,2.5
		c0,1.3-0.8,2.2-2.3,2.7c1.7,0.4,2.6,1.4,2.6,2.9c0,1-0.3,1.8-1,2.4c-0.7,0.6-1.6,0.9-2.8,0.9C50.2,264,49.4,263.9,48.4,263.6
		L48.4,263.6z M63.6,263.4c-1,0.3-1.8,0.4-2.5,0.4c-1.2,0-2.1-0.4-2.9-1.2c-0.7-0.8-1.1-1.8-1.1-3c0-1.2,0.3-2.2,1-3
		c0.7-0.8,1.5-1.2,2.5-1.2c1,0,1.7,0.3,2.2,1c0.5,0.7,0.8,1.7,0.8,2.9l0,0.5h-5c0.2,1.9,1.1,2.8,2.8,2.8c0.6,0,1.3-0.2,2.2-0.5
		V263.4L63.6,263.4z M58.7,258.9h3.5c0-1.5-0.6-2.2-1.7-2.2C59.4,256.6,58.8,257.4,58.7,258.9L58.7,258.9z M70.1,263.7v-3.8h-3.8
		v-1.1h3.8V255h1.1v3.8H75v1.1h-3.8v3.8H70.1L70.1,263.7z M78.8,263.7v-1.1H81v-8.6l-2.2,0.5v-1.1l3.6-0.9v10h2.2v1.1H78.8
		L78.8,263.7z M87.3,263.7v-1.3c0.4-1,1.3-2.1,2.5-3.2l0.8-0.7c1.1-1,1.6-1.9,1.6-2.9c0-0.6-0.2-1.1-0.5-1.4
		c-0.4-0.3-0.9-0.5-1.5-0.5c-0.8,0-1.6,0.3-2.7,0.9v-1.3c1-0.5,1.9-0.7,2.9-0.7c1,0,1.8,0.3,2.4,0.8c0.6,0.5,0.9,1.3,0.9,2.2
		c0,0.6-0.2,1.2-0.5,1.7c-0.3,0.5-0.9,1.1-1.7,1.8l-0.6,0.5c-1.2,1-1.8,1.9-2,2.8h4.7v1.3H87.3L87.3,263.7z"/>
	<path d="M52.5,190.1V187h-4.9v-1.1l4.9-6.7h1.4v6.6h1.4v1.2h-1.4v3.1H52.5L52.5,190.1z M49,185.8h3.6V181L49,185.8L49,185.8z
		 M63.6,189.8c-1,0.3-1.8,0.4-2.5,0.4c-1.2,0-2.1-0.4-2.9-1.2c-0.7-0.8-1.1-1.8-1.1-3c0-1.2,0.3-2.2,1-3c0.7-0.8,1.5-1.2,2.5-1.2
		c1,0,1.7,0.3,2.2,1c0.5,0.7,0.8,1.7,0.8,2.9l0,0.5h-5c0.2,1.9,1.1,2.8,2.8,2.8c0.6,0,1.3-0.2,2.2-0.5V189.8L63.6,189.8z
		 M58.7,185.3h3.5c0-1.5-0.6-2.2-1.7-2.2C59.4,183,58.8,183.8,58.7,185.3L58.7,185.3z M70.1,190.1v-3.8h-3.8v-1.1h3.8v-3.8h1.1v3.8
		H75v1.1h-3.8v3.8H70.1L70.1,190.1z M78.8,190.1V189H81v-8.6l-2.2,0.5v-1.1l3.6-0.9v10h2.2v1.1H78.8L78.8,190.1z M87.3,190.1v-1.3
		c0.4-1,1.3-2.1,2.5-3.2l0.8-0.7c1.1-1,1.6-1.9,1.6-2.9c0-0.6-0.2-1.1-0.5-1.4c-0.4-0.3-0.9-0.5-1.5-0.5c-0.8,0-1.6,0.3-2.7,0.9
		v-1.3c1-0.5,1.9-0.7,2.9-0.7c1,0,1.8,0.3,2.4,0.8c0.6,0.5,0.9,1.3,0.9,2.2c0,0.6-0.2,1.2-0.5,1.7c-0.3,0.5-0.9,1.1-1.7,1.8L91,186
		c-1.2,1-1.8,1.9-2,2.8h4.7v1.3H87.3L87.3,190.1z"/>
	<path d="M50.2,115v-1.3c0.7,0.3,1.4,0.4,2,0.4c0.7,0,1.3-0.2,1.7-0.6c0.4-0.4,0.6-1,0.6-1.7c0-1.6-1.1-2.4-3.4-2.4
		c-0.3,0-0.5,0-0.8,0.1v-5.3h5.5v1.3h-4.2v2.9c1.4,0,2.5,0.3,3.3,1c0.8,0.6,1.2,1.5,1.2,2.7c0,1.1-0.4,1.9-1.1,2.5
		c-0.7,0.6-1.7,0.9-3,0.9C51.5,115.3,50.9,115.2,50.2,115L50.2,115z M65.1,114.7c-1,0.3-1.8,0.4-2.5,0.4c-1.2,0-2.1-0.4-2.9-1.2
		c-0.7-0.8-1.1-1.8-1.1-3c0-1.2,0.3-2.2,1-3c0.7-0.8,1.5-1.2,2.5-1.2c1,0,1.7,0.3,2.2,1c0.5,0.7,0.8,1.7,0.8,2.9l0,0.4h-5
		c0.2,1.9,1.1,2.8,2.8,2.8c0.6,0,1.3-0.2,2.2-0.5V114.7L65.1,114.7z M60.2,110.2h3.5c0-1.5-0.6-2.2-1.7-2.2
		C60.9,107.9,60.3,108.7,60.2,110.2L60.2,110.2z M71.6,115v-3.8h-3.8v-1.1h3.8v-3.8h1.1v3.8h3.8v1.1h-3.8v3.8H71.6L71.6,115z
		 M80.3,115v-1.1h2.2v-8.6l-2.2,0.5v-1.1l3.6-0.9v10h2.2v1.1H80.3L80.3,115z M88.8,115v-1.3c0.4-1,1.3-2.1,2.5-3.2l0.8-0.7
		c1.1-1,1.6-1.9,1.6-2.9c0-0.6-0.2-1.1-0.5-1.4c-0.4-0.3-0.9-0.5-1.5-0.5c-0.8,0-1.6,0.3-2.7,0.9v-1.3c1-0.5,1.9-0.7,2.9-0.7
		c1,0,1.8,0.3,2.4,0.8c0.6,0.5,0.9,1.3,0.9,2.2c0,0.6-0.2,1.2-0.5,1.7c-0.3,0.5-0.9,1.1-1.7,1.8l-0.6,0.5c-1.2,1-1.8,1.9-2,2.8h4.7
		v1.3H88.8L88.8,115z"/>
	<path d="M49.4,35.8c0.7-0.9,1.6-1.3,2.6-1.3c0.9,0,1.7,0.3,2.3,0.9c0.6,0.6,0.9,1.4,0.9,2.4c0,1.1-0.3,2.1-1,2.8
		c-0.7,0.7-1.5,1.1-2.6,1.1c-1.2,0-2.1-0.5-2.8-1.4c-0.7-1-1-2.3-1-4c0-1.9,0.4-3.3,1.2-4.4c0.8-1,1.9-1.6,3.3-1.6
		c0.6,0,1.4,0.1,2.4,0.4v1.3c-1-0.4-1.9-0.6-2.5-0.6C50.3,31.3,49.4,32.8,49.4,35.8L49.4,35.8z M53.8,38.1c0-0.8-0.2-1.5-0.6-1.9
		c-0.4-0.5-0.9-0.7-1.5-0.7c-0.6,0-1.1,0.2-1.6,0.6c-0.4,0.4-0.7,0.9-0.7,1.5c0,0.9,0.2,1.6,0.6,2.2c0.4,0.5,1,0.8,1.7,0.8
		c0.6,0,1.1-0.2,1.5-0.7C53.6,39.5,53.8,38.9,53.8,38.1L53.8,38.1z M63.6,41.1c-1,0.3-1.8,0.4-2.5,0.4c-1.2,0-2.1-0.4-2.9-1.2
		c-0.7-0.8-1.1-1.8-1.1-3c0-1.2,0.3-2.2,1-3c0.7-0.8,1.5-1.2,2.5-1.2c1,0,1.7,0.3,2.2,1c0.5,0.7,0.8,1.7,0.8,2.9l0,0.5h-5
		c0.2,1.9,1.1,2.8,2.8,2.8c0.6,0,1.3-0.2,2.2-0.5V41.1L63.6,41.1z M58.7,36.5h3.5c0-1.5-0.6-2.2-1.7-2.2
		C59.4,34.3,58.8,35.1,58.7,36.5L58.7,36.5z M70.1,41.4v-3.8h-3.8v-1.1h3.8v-3.8h1.1v3.8H75v1.1h-3.8v3.8H70.1L70.1,41.4z
		 M78.8,41.4v-1.1H81v-8.6l-2.2,0.5v-1.1l3.6-0.9v10h2.2v1.1H78.8L78.8,41.4z M87.3,41.4v-1.3c0.4-1,1.3-2.1,2.5-3.2l0.8-0.7
		c1.1-1,1.6-1.9,1.6-2.9c0-0.6-0.2-1.1-0.5-1.4c-0.4-0.3-0.9-0.5-1.5-0.5c-0.8,0-1.6,0.3-2.7,0.9v-1.3c1-0.5,1.9-0.7,2.9-0.7
		c1,0,1.8,0.3,2.4,0.8c0.6,0.5,0.9,1.3,0.9,2.2c0,0.6-0.2,1.2-0.5,1.7c-0.3,0.5-0.9,1.1-1.7,1.8L91,37.3c-1.2,1-1.8,1.9-2,2.8h4.7
		v1.3H87.3L87.3,41.4z"/>
	<path fill="none" stroke="#000000" stroke-width="0.3755" d="M109.4,554h690 M109.4,554v7.8 M339.4,554v7.8 M569.4,554v7.8
		 M799.4,554v7.8 M155.4,554v4.7 M201.4,554v4.7 M247.4,554v4.7 M293.4,554v4.7 M385.4,554v4.7 M431.4,554v4.7 M477.4,554v4.7
		 M523.4,554v4.7 M615.4,554v4.7 M661.4,554v4.7 M707.4,554v4.7 M753.4,554v4.7"/>
	<path d="M108.5,579.4c-1.1,0-2-0.5-2.7-1.6c-0.7-1.1-1-2.4-1-4.1c0-1.7,0.3-3.1,1-4.1c0.7-1,1.6-1.6,2.7-1.6c1.1,0,2.1,0.5,2.7,1.6
		c0.7,1,1,2.4,1,4.1c0,1.7-0.3,3.1-1,4.2C110.6,578.9,109.6,579.4,108.5,579.4L108.5,579.4z M108.5,578.3c1.5,0,2.3-1.6,2.3-4.7
		c0-3-0.8-4.6-2.3-4.6c-1.5,0-2.3,1.5-2.3,4.6C106.3,576.8,107,578.3,108.5,578.3L108.5,578.3z"/>
	<path d="M336.4,579.2v-1.3c0.7,0.3,1.4,0.4,2,0.4c0.7,0,1.3-0.2,1.7-0.6c0.4-0.4,0.6-1,0.6-1.7c0-1.6-1.1-2.4-3.4-2.4
		c-0.3,0-0.5,0-0.8,0.1v-5.3h5.5v1.3h-4.2v2.9c1.4,0,2.5,0.3,3.3,1c0.8,0.6,1.2,1.5,1.2,2.7c0,1.1-0.4,1.9-1.1,2.5
		c-0.7,0.6-1.7,0.9-3,0.9C337.7,579.4,337,579.4,336.4,579.2L336.4,579.2z"/>
	<path d="M561.5,579.2v-1.1h2.2v-8.6l-2.2,0.5v-1.1l3.6-0.9v10h2.2v1.1H561.5L561.5,579.2z M573.5,579.4c-1.1,0-2-0.5-2.7-1.6
		c-0.7-1.1-1-2.4-1-4.1c0-1.7,0.3-3.1,1-4.1c0.7-1,1.6-1.6,2.7-1.6c1.1,0,2.1,0.5,2.8,1.6c0.7,1,1,2.4,1,4.1c0,1.7-0.3,3.1-1,4.2
		C575.6,578.9,574.6,579.4,573.5,579.4L573.5,579.4z M573.5,578.3c1.5,0,2.3-1.6,2.3-4.7c0-3-0.8-4.6-2.3-4.6
		c-1.5,0-2.2,1.5-2.2,4.6C571.2,576.8,572,578.3,573.5,578.3L573.5,578.3z"/>
	<path d="M792.3,579.2v-1.1h2.2v-8.6l-2.2,0.5v-1.1l3.6-0.9v10h2.2v1.1H792.3L792.3,579.2z M801.3,579.2v-1.3c0.7,0.3,1.4,0.4,2,0.4
		c0.7,0,1.3-0.2,1.7-0.6c0.4-0.4,0.6-1,0.6-1.7c0-1.6-1.1-2.4-3.4-2.4c-0.3,0-0.5,0-0.8,0.1v-5.3h5.5v1.3h-4.2v2.9
		c1.4,0,2.5,0.3,3.3,1c0.8,0.6,1.2,1.5,1.2,2.7c0,1.1-0.4,1.9-1.1,2.5c-0.7,0.6-1.7,0.9-2.9,0.9C802.6,579.4,802,579.4,801.3,579.2
		L801.3,579.2z"/>
</g>
<text transform="matrix(1 0 0 1 693 517.5498)" font-family="'MyriadPro-Regular'" font-size="30">s-orbital</text>
<g>
	<polygon fill="#FFFFFF" points="107.2,1091.8 107.2,634.3 107.2,1091.8 	"/>
	<polygon fill="#FFFFFF" points="107.2,634.3 107.2,634.3 107.2,1091.8 	"/>
	<polygon fill="#FFFFFF" points="107.2,1091.8 797.2,1091.8 107.2,1091.8 	"/>
	<polygon fill="#FFFFFF" points="797.2,1091.8 797.2,1091.8 107.2,1091.8 	"/>
	<polyline fill="none" stroke="#000000" stroke-width="3" points="107.2,1015.5 114.2,956.5 121.2,906 128.1,863.2 135.1,827.3 
		142.1,797.4 149.1,772.9 156,753.1 163,737.5 170,725.5 176.9,716.8 183.9,710.9 190.9,707.5 197.8,706.1 204.8,706.6 211.8,708.7 
		218.8,712.1 225.7,716.7 232.7,722.2 239.7,728.5 246.6,735.4 253.6,742.9 260.6,750.7 267.5,758.9 274.5,767.3 281.5,775.8 
		288.5,784.4 295.4,793 302.4,801.6 309.4,810.2 316.3,818.6 323.3,826.9 330.3,835 337.2,842.9 344.2,850.7 351.2,858.2 
		358.2,865.5 365.1,872.6 372.1,879.4 379.1,886.1 386,892.4 393,898.6 400,904.4 406.9,910.1 413.9,915.5 420.9,920.7 427.8,925.7 
		434.8,930.4 441.8,935 448.8,939.3 455.7,943.4 462.7,947.3 469.7,951.1 476.6,954.6 483.6,958 490.6,961.2 497.5,964.3 
		504.5,967.2 511.5,969.9 518.5,972.5 525.4,975 532.4,977.3 539.4,979.5 546.3,981.6 553.3,983.6 560.3,985.4 567.2,987.2 
		574.2,988.9 581.2,990.5 588.2,991.9 595.1,993.3 602.1,994.7 609.1,995.9 616,997.1 623,998.2 630,999.3 636.9,1000.2 
		643.9,1001.2 650.9,1002.1 657.8,1002.9 664.8,1003.7 671.8,1004.4 678.8,1005.1 685.7,1005.7 692.7,1006.3 699.7,1006.9 
		706.6,1007.4 713.6,1007.9 720.6,1008.4 727.5,1008.9 734.5,1009.3 741.5,1009.7 748.5,1010 755.4,1010.4 762.4,1010.7 769.4,1011 
		776.3,1011.3 783.3,1011.6 790.3,1011.8 797.2,1012.1 	"/>
	<polyline fill="none" stroke="#000000" stroke-width="3" stroke-dasharray="6,12" points="107.2,1015.5 114.2,980.6 121.2,950.7 
		128.1,925.6 135.1,904.6 142.1,887.4 149.1,873.6 156,862.7 163,854.6 170,848.8 176.9,845.2 183.9,843.4 190.9,843.3 197.8,844.5 
		204.8,847 211.8,850.6 218.8,855.1 225.7,860.3 232.7,866.2 239.7,872.6 246.6,879.4 253.6,886.6 260.6,894 267.5,901.6 
		274.5,909.3 281.5,917.1 288.5,924.8 295.4,932.6 302.4,940.2 309.4,947.8 316.3,955.2 323.3,962.4 330.3,969.5 337.2,976.3 
		344.2,982.9 351.2,989.3 358.2,995.5 365.1,1001.4 372.1,1007 379.1,1012.4 386,1017.6 393,1022.5 400,1027.1 406.9,1031.4 
		413.9,1035.6 420.9,1039.4 427.8,1043 434.8,1046.4 441.8,1049.6 448.8,1052.5 455.7,1055.2 462.7,1057.7 469.7,1060 476.6,1062.1 
		483.6,1064 490.6,1065.8 497.5,1067.3 504.5,1068.7 511.5,1069.9 518.5,1071 525.4,1071.9 532.4,1072.7 539.4,1073.4 546.3,1073.9 
		553.3,1074.3 560.3,1074.6 567.2,1074.8 574.2,1074.9 581.2,1074.9 588.2,1074.9 595.1,1074.7 602.1,1074.5 609.1,1074.2 
		616,1073.8 623,1073.4 630,1072.9 636.9,1072.3 643.9,1071.8 650.9,1071.1 657.8,1070.5 664.8,1069.8 671.8,1069 678.8,1068.3 
		685.7,1067.5 692.7,1066.7 699.7,1065.8 706.6,1065 713.6,1064.1 720.6,1063.2 727.5,1062.4 734.5,1061.5 741.5,1060.6 
		748.5,1059.7 755.4,1058.8 762.4,1057.8 769.4,1056.9 776.3,1056 783.3,1055.1 790.3,1054.2 797.2,1053.3 	"/>
	<path fill="none" stroke="#000000" stroke-width="0.3746" d="M107.2,1015.5h7h7h7h7h7h7h7h7h7h7h7h7h7h7h7h7h7h7h7h7h7h7h7h7h7h7h7
		h7h7h7h7h7h7h7h7h7h7h7h7h7h7h7h7h7h7h7h7h7h7h7h7h7h7h7h7h7h7h7h7h7h7h7h7h7h7h7h7h7h7h7h7h7h7h7h7h7h7h7h7h7h7h7h7h7h7h7h7h7h7h7
		h7h7h7h7h7h7h7h7h7 M107.2,1091.8V634.3 M107.2,1091.8H96.9 M107.2,1015.5H96.9 M107.2,939.3H96.9 M107.2,863H96.9 M107.2,786.8
		H96.9 M107.2,710.5H96.9 M107.2,634.3H96.9 M107.2,1076.5H101 M107.2,1061.3H101 M107.2,1046H101 M107.2,1030.8H101 M107.2,1000.3
		H101 M107.2,985H101 M107.2,969.8H101 M107.2,954.5H101 M107.2,924H101 M107.2,908.8H101 M107.2,893.5H101 M107.2,878.3H101
		 M107.2,847.8H101 M107.2,832.5H101 M107.2,817.3H101 M107.2,802H101 M107.2,771.5H101 M107.2,756.3H101 M107.2,741H101
		 M107.2,725.8H101 M107.2,695.3H101 M107.2,680H101 M107.2,664.8H101 M107.2,649.5H101"/>
	<path d="M36.8,1095.3v-1.1h6.5v1.1H36.8L36.8,1095.3z M46.6,1099.1v-1.1h2.2v-8.5l-2.2,0.5v-1.1l3.6-0.9v10h2.2v1.1H46.6
		L46.6,1099.1z M61.1,1098.8c-1,0.3-1.8,0.4-2.5,0.4c-1.2,0-2.1-0.4-2.9-1.2c-0.7-0.8-1.1-1.8-1.1-3c0-1.2,0.3-2.2,1-3
		c0.7-0.8,1.5-1.2,2.5-1.2c1,0,1.7,0.3,2.2,1c0.5,0.7,0.8,1.7,0.8,2.9l0,0.4h-5c0.2,1.9,1.1,2.8,2.8,2.8c0.6,0,1.3-0.2,2.2-0.5
		V1098.8L61.1,1098.8z M56.2,1094.3h3.5c0-1.5-0.6-2.2-1.7-2.2C56.9,1092,56.3,1092.8,56.2,1094.3L56.2,1094.3z M67.6,1099.1v-3.8
		h-3.8v-1.1h3.8v-3.8h1.1v3.8h3.8v1.1h-3.8v3.8H67.6L67.6,1099.1z M76.3,1099.1v-1.1h2.2v-8.5l-2.2,0.5v-1.1l3.6-0.9v10h2.2v1.1
		H76.3L76.3,1099.1z M85.8,1099.1v-1.1H88v-8.5l-2.2,0.5v-1.1l3.6-0.9v10h2.2v1.1H85.8L85.8,1099.1z"/>
	<path d="M47.9,1022.9c-1.1,0-2-0.5-2.7-1.6c-0.7-1.1-1-2.4-1-4.1c0-1.7,0.3-3.1,1-4.1c0.7-1,1.6-1.6,2.7-1.6c1.1,0,2.1,0.5,2.7,1.6
		c0.7,1,1,2.4,1,4.1c0,1.7-0.3,3.1-1,4.2C50,1022.4,49,1022.9,47.9,1022.9L47.9,1022.9z M47.9,1021.8c1.5,0,2.3-1.6,2.3-4.7
		c0-3-0.8-4.6-2.3-4.6c-1.5,0-2.3,1.5-2.3,4.6C45.7,1020.3,46.4,1021.8,47.9,1021.8L47.9,1021.8z M59.9,1022.4
		c-1,0.3-1.8,0.4-2.5,0.4c-1.2,0-2.1-0.4-2.9-1.2c-0.7-0.8-1.1-1.8-1.1-3c0-1.2,0.3-2.2,1-3c0.7-0.8,1.5-1.2,2.5-1.2
		c1,0,1.7,0.3,2.2,1c0.5,0.7,0.8,1.7,0.8,2.9l0,0.4h-5c0.2,1.9,1.1,2.8,2.8,2.8c0.6,0,1.3-0.2,2.2-0.5V1022.4L59.9,1022.4z
		 M55,1017.8h3.5c0-1.5-0.6-2.2-1.7-2.2C55.8,1015.6,55.1,1016.4,55,1017.8L55,1017.8z M66.4,1022.7v-3.8h-3.8v-1.1h3.8v-3.8h1.1
		v3.8h3.8v1.1h-3.8v3.8H66.4L66.4,1022.7z M77.6,1022.9c-1.1,0-2-0.5-2.7-1.6c-0.7-1.1-1-2.4-1-4.1c0-1.7,0.3-3.1,1-4.1
		c0.7-1,1.6-1.6,2.7-1.6c1.1,0,2.1,0.5,2.7,1.6c0.7,1,1,2.4,1,4.1c0,1.7-0.3,3.1-1,4.2C79.7,1022.4,78.8,1022.9,77.6,1022.9
		L77.6,1022.9z M77.6,1021.8c1.5,0,2.3-1.6,2.3-4.7c0-3-0.8-4.6-2.3-4.6c-1.5,0-2.3,1.5-2.3,4.6
		C75.4,1020.3,76.1,1021.8,77.6,1021.8L77.6,1021.8z M87.1,1022.9c-1.1,0-2-0.5-2.7-1.6c-0.7-1.1-1-2.4-1-4.1c0-1.7,0.3-3.1,1-4.1
		c0.7-1,1.6-1.6,2.7-1.6c1.1,0,2.1,0.5,2.7,1.6c0.7,1,1,2.4,1,4.1c0,1.7-0.3,3.1-1,4.2C89.2,1022.4,88.3,1022.9,87.1,1022.9
		L87.1,1022.9z M87.1,1021.8c1.5,0,2.3-1.6,2.3-4.7c0-3-0.8-4.6-2.3-4.6c-1.5,0-2.3,1.5-2.3,4.6
		C84.9,1020.3,85.6,1021.8,87.1,1021.8L87.1,1021.8z"/>
	<path d="M48.4,946.2v-1.1h2.2v-8.5l-2.2,0.5V936l3.6-0.9v10h2.2v1.1H48.4L48.4,946.2z M62.9,946c-1,0.3-1.8,0.4-2.5,0.4
		c-1.2,0-2.1-0.4-2.9-1.2c-0.7-0.8-1.1-1.8-1.1-3c0-1.2,0.3-2.2,1-3c0.7-0.8,1.5-1.2,2.5-1.2c1,0,1.7,0.3,2.2,1
		c0.5,0.7,0.8,1.7,0.8,2.9l0,0.4h-5c0.2,1.9,1.1,2.8,2.8,2.8c0.6,0,1.3-0.2,2.2-0.5V946L62.9,946z M58,941.4h3.5
		c0-1.5-0.6-2.2-1.7-2.2C58.7,939.2,58.1,939.9,58,941.4L58,941.4z M69.4,946.2v-3.8h-3.8v-1.1h3.8v-3.8h1.1v3.8h3.8v1.1h-3.8v3.8
		H69.4L69.4,946.2z M78.2,946.2v-1.1h2.2v-8.5l-2.2,0.5V936l3.6-0.9v10h2.2v1.1H78.2L78.2,946.2z M87.6,946.2v-1.1h2.2v-8.5
		l-2.2,0.5V936l3.6-0.9v10h2.2v1.1H87.6L87.6,946.2z"/>
	<path d="M45.9,871.3V870c0.4-1,1.3-2,2.5-3.2l0.8-0.7c1.1-1,1.6-1.9,1.6-2.9c0-0.6-0.2-1.1-0.5-1.4c-0.4-0.3-0.9-0.5-1.5-0.5
		c-0.8,0-1.6,0.3-2.7,0.9v-1.3c1-0.5,1.9-0.7,2.9-0.7c1,0,1.8,0.3,2.4,0.8c0.6,0.5,0.9,1.3,0.9,2.2c0,0.6-0.2,1.2-0.5,1.7
		c-0.3,0.5-0.9,1.1-1.7,1.8l-0.6,0.5c-1.2,1-1.8,1.9-2,2.8h4.7v1.3H45.9L45.9,871.3z M61.4,871c-1,0.3-1.8,0.4-2.5,0.4
		c-1.2,0-2.1-0.4-2.9-1.2c-0.7-0.8-1.1-1.8-1.1-3c0-1.2,0.3-2.2,1-3c0.7-0.8,1.5-1.2,2.5-1.2c1,0,1.7,0.3,2.2,1
		c0.5,0.7,0.8,1.7,0.8,2.9l0,0.4h-5c0.2,1.9,1.1,2.8,2.8,2.8c0.6,0,1.3-0.2,2.2-0.5V871L61.4,871z M56.5,866.5H60
		c0-1.5-0.6-2.2-1.7-2.2C57.3,864.2,56.6,865,56.5,866.5L56.5,866.5z M67.9,871.3v-3.8h-3.8v-1.1h3.8v-3.8H69v3.8h3.8v1.1H69v3.8
		H67.9L67.9,871.3z M76.7,871.3v-1.1h2.2v-8.5l-2.2,0.5v-1.1l3.6-0.9v10h2.2v1.1H76.7L76.7,871.3z M86.1,871.3v-1.1h2.2v-8.5
		l-2.2,0.5v-1.1l3.6-0.9v10h2.2v1.1H86.1L86.1,871.3z"/>
	<path d="M46.2,794.8v-1.3c1,0.4,1.8,0.6,2.4,0.6c0.7,0,1.2-0.2,1.7-0.6c0.4-0.4,0.6-0.9,0.6-1.6c0-1.5-1.1-2.3-3.2-2.3h-0.6v-1
		l0.5,0c2,0,3-0.7,3-2.1c0-1.1-0.7-1.7-2-1.7c-0.7,0-1.5,0.2-2.4,0.6v-1.3c0.9-0.3,1.7-0.4,2.5-0.4c2.2,0,3.3,0.8,3.3,2.5
		c0,1.3-0.8,2.2-2.3,2.7c1.7,0.4,2.6,1.4,2.6,2.9c0,1-0.3,1.8-1,2.4c-0.7,0.6-1.6,0.9-2.8,0.9C48.1,795.1,47.2,795,46.2,794.8
		L46.2,794.8z M61.4,794.6c-1,0.3-1.8,0.4-2.5,0.4c-1.2,0-2.1-0.4-2.9-1.2s-1.1-1.8-1.1-3c0-1.2,0.3-2.2,1-3
		c0.7-0.8,1.5-1.2,2.5-1.2c1,0,1.7,0.3,2.2,1c0.5,0.7,0.8,1.7,0.8,2.9l0,0.4h-5c0.2,1.9,1.1,2.8,2.8,2.8c0.6,0,1.3-0.2,2.2-0.5
		V794.6L61.4,794.6z M56.5,790H60c0-1.5-0.6-2.2-1.7-2.2C57.3,787.8,56.6,788.5,56.5,790L56.5,790z M67.9,794.8v-3.8h-3.8V790h3.8
		v-3.8H69v3.8h3.8v1.1H69v3.8H67.9L67.9,794.8z M76.7,794.8v-1.1h2.2v-8.5l-2.2,0.5v-1.1l3.6-0.9v10h2.2v1.1H76.7L76.7,794.8z
		 M86.1,794.8v-1.1h2.2v-8.5l-2.2,0.5v-1.1l3.6-0.9v10h2.2v1.1H86.1L86.1,794.8z"/>
	<path d="M50.3,718.4v-3.1h-4.9v-1.1l4.9-6.7h1.4v6.6h1.4v1.2h-1.4v3.1H50.3L50.3,718.4z M46.9,714.2h3.6v-4.8L46.9,714.2
		L46.9,714.2z M61.4,718.2c-1,0.3-1.8,0.4-2.5,0.4c-1.2,0-2.1-0.4-2.9-1.2s-1.1-1.8-1.1-3c0-1.2,0.3-2.2,1-3
		c0.7-0.8,1.5-1.2,2.5-1.2c1,0,1.7,0.3,2.2,1c0.5,0.7,0.8,1.7,0.8,2.9l0,0.4h-5c0.2,1.9,1.1,2.8,2.8,2.8c0.6,0,1.3-0.2,2.2-0.5
		V718.2L61.4,718.2z M56.5,713.6H60c0-1.5-0.6-2.2-1.7-2.2C57.3,711.4,56.6,712.1,56.5,713.6L56.5,713.6z M67.9,718.4v-3.8h-3.8
		v-1.1h3.8v-3.8H69v3.8h3.8v1.1H69v3.8H67.9L67.9,718.4z M76.7,718.4v-1.1h2.2v-8.5l-2.2,0.5v-1.1l3.6-0.9v10h2.2v1.1H76.7
		L76.7,718.4z M86.1,718.4v-1.1h2.2v-8.5l-2.2,0.5v-1.1l3.6-0.9v10h2.2v1.1H86.1L86.1,718.4z"/>
	<path d="M46.5,642v-1.3c0.7,0.3,1.4,0.4,2,0.4c0.7,0,1.3-0.2,1.7-0.6c0.4-0.4,0.6-1,0.6-1.7c0-1.6-1.1-2.4-3.4-2.4
		c-0.3,0-0.5,0-0.8,0.1v-5.3h5.5v1.3H48v2.9c1.4,0,2.5,0.3,3.3,1c0.8,0.6,1.2,1.5,1.2,2.7c0,1.1-0.4,1.9-1.1,2.5
		c-0.7,0.6-1.7,0.9-3,0.9C47.8,642.2,47.2,642.2,46.5,642L46.5,642z M61.4,641.7c-1,0.3-1.8,0.4-2.5,0.4c-1.2,0-2.1-0.4-2.9-1.2
		s-1.1-1.8-1.1-3c0-1.2,0.3-2.2,1-3c0.7-0.8,1.5-1.2,2.5-1.2c1,0,1.7,0.3,2.2,1c0.5,0.7,0.8,1.7,0.8,2.9l0,0.4h-5
		c0.2,1.9,1.1,2.8,2.8,2.8c0.6,0,1.3-0.2,2.2-0.5V641.7L61.4,641.7z M56.5,637.1H60c0-1.5-0.6-2.2-1.7-2.2
		C57.3,634.9,56.6,635.7,56.5,637.1L56.5,637.1z M67.9,642v-3.8h-3.8v-1.1h3.8v-3.8H69v3.8h3.8v1.1H69v3.8H67.9L67.9,642z M76.7,642
		v-1.1h2.2v-8.5l-2.2,0.5v-1.1l3.6-0.9v10h2.2v1.1H76.7L76.7,642z M86.1,642v-1.1h2.2v-8.5l-2.2,0.5v-1.1l3.6-0.9v10h2.2v1.1H86.1
		L86.1,642z"/>
	<path fill="none" stroke="#000000" stroke-width="0.3746" d="M107.2,1091.8h690 M107.2,1091.8v6.9 M337.2,1091.8v6.9 M567.2,1091.8
		v6.9 M797.2,1091.8v6.9 M153.2,1091.8v4.1 M199.2,1091.8v4.1 M245.2,1091.8v4.1 M291.2,1091.8v4.1 M383.2,1091.8v4.1 M429.2,1091.8
		v4.1 M475.2,1091.8v4.1 M521.2,1091.8v4.1 M613.2,1091.8v4.1 M659.2,1091.8v4.1 M705.2,1091.8v4.1 M751.2,1091.8v4.1"/>
	<path d="M106.3,1115.9c-1.1,0-2-0.5-2.7-1.6c-0.7-1.1-1-2.4-1-4.1c0-1.7,0.3-3.1,1-4.1c0.7-1,1.6-1.6,2.7-1.6
		c1.1,0,2.1,0.5,2.7,1.6c0.7,1,1,2.4,1,4.1c0,1.7-0.3,3.1-1,4.2C108.4,1115.3,107.5,1115.9,106.3,1115.9L106.3,1115.9z
		 M106.3,1114.8c1.5,0,2.3-1.6,2.3-4.7c0-3-0.8-4.6-2.3-4.6c-1.5,0-2.3,1.5-2.3,4.6C104.1,1113.2,104.8,1114.8,106.3,1114.8
		L106.3,1114.8z"/>
	<path d="M334.2,1115.6v-1.3c0.7,0.3,1.4,0.4,2,0.4c0.7,0,1.3-0.2,1.7-0.6c0.4-0.4,0.6-1,0.6-1.7c0-1.6-1.1-2.4-3.4-2.4
		c-0.3,0-0.5,0-0.8,0.1v-5.3h5.5v1.3h-4.2v2.9c1.4,0,2.5,0.3,3.3,1c0.8,0.6,1.2,1.5,1.2,2.7c0,1.1-0.4,1.9-1.1,2.5
		c-0.7,0.6-1.7,0.9-3,0.9C335.5,1115.9,334.9,1115.8,334.2,1115.6L334.2,1115.6z"/>
	<path d="M559.4,1115.6v-1.1h2.2v-8.5l-2.2,0.5v-1.1l3.6-0.9v10h2.2v1.1H559.4L559.4,1115.6z M571.3,1115.9c-1.1,0-2-0.5-2.7-1.6
		c-0.7-1.1-1-2.4-1-4.1c0-1.7,0.3-3.1,1-4.1c0.7-1,1.6-1.6,2.7-1.6c1.1,0,2.1,0.5,2.8,1.6s1,2.4,1,4.1c0,1.7-0.3,3.1-1,4.2
		S572.5,1115.9,571.3,1115.9L571.3,1115.9z M571.3,1114.8c1.5,0,2.3-1.6,2.3-4.7c0-3-0.8-4.6-2.3-4.6c-1.5,0-2.2,1.5-2.2,4.6
		C569.1,1113.2,569.8,1114.8,571.3,1114.8L571.3,1114.8z"/>
	<path d="M790.1,1115.6v-1.1h2.2v-8.5l-2.2,0.5v-1.1l3.6-0.9v10h2.2v1.1H790.1L790.1,1115.6z M799.2,1115.6v-1.3
		c0.7,0.3,1.4,0.4,2,0.4c0.7,0,1.3-0.2,1.7-0.6c0.4-0.4,0.6-1,0.6-1.7c0-1.6-1.1-2.4-3.4-2.4c-0.3,0-0.5,0-0.8,0.1v-5.3h5.5v1.3
		h-4.2v2.9c1.4,0,2.5,0.3,3.3,1c0.8,0.6,1.2,1.5,1.2,2.7c0,1.1-0.4,1.9-1.1,2.5c-0.7,0.6-1.7,0.9-2.9,0.9
		C800.5,1115.9,799.9,1115.8,799.2,1115.6L799.2,1115.6z"/>
</g>
<text transform="matrix(1 0 0 1 677 965.5498)" font-family="'MyriadPro-Regular'" font-size="30">p-orbital</text>
</svg>
