<?xml version="1.0" encoding="utf-8"?>
<!-- Generator: Adobe Illustrator 17.1.0, SVG Export Plug-In . SVG Version: 6.00 Build 0)  -->
<!DOCTYPE svg PUBLIC "-//W3C//DTD SVG 1.1//EN" "http://www.w3.org/Graphics/SVG/1.1/DTD/svg11.dtd" [
	<!ENTITY ns_extend "http://ns.adobe.com/Extensibility/1.0/">
	<!ENTITY ns_ai "http://ns.adobe.com/AdobeIllustrator/10.0/">
	<!ENTITY ns_graphs "http://ns.adobe.com/Graphs/1.0/">
	<!ENTITY ns_vars "http://ns.adobe.com/Variables/1.0/">
	<!ENTITY ns_imrep "http://ns.adobe.com/ImageReplacement/1.0/">
	<!ENTITY ns_sfw "http://ns.adobe.com/SaveForWeb/1.0/">
	<!ENTITY ns_custom "http://ns.adobe.com/GenericCustomNamespace/1.0/">
	<!ENTITY ns_adobe_xpath "http://ns.adobe.com/XPath/1.0/">
]>
<svg version="1.1" id="Layer_1" xmlns:x="&ns_extend;" xmlns:i="&ns_ai;" xmlns:graph="&ns_graphs;"
	 xmlns="http://www.w3.org/2000/svg" xmlns:xlink="http://www.w3.org/1999/xlink" x="0px" y="0px" viewBox="0 0 841.9 1190.5"
	 enable-background="new 0 0 841.9 1190.5" xml:space="preserve">
<metadata>
	<sfw  xmlns="&ns_sfw;">
		<slices></slices>
		<sliceSourceBounds  bottomLeftOrigin="true" width="774.8" height="1091" x="32.2" y="35.1"></sliceSourceBounds>
	</sfw>
</metadata>
<g>
	<polygon fill="#FFFFFF" points="109.1,1130 109.1,609.5 109.1,1130 	"/>
	<polygon fill="#FFFFFF" points="109.1,609.5 109.1,609.5 109.1,1130 	"/>
	<polygon fill="#FFFFFF" points="109.1,1130 799.1,1130 109.1,1130 	"/>
	<polygon fill="#FFFFFF" points="799.1,1130 799.1,1130 109.1,1130 	"/>
	<polyline fill="none" stroke="#000000" stroke-width="3" points="109.1,1130 116.1,1129.9 123.1,1129.3 130,1127.1 137,1122.2 
		144,1113.7 150.9,1101 157.9,1083.9 164.9,1062.4 171.9,1037 178.8,1008.2 185.8,976.7 192.8,943.4 199.7,909.1 206.7,874.7 
		213.7,840.8 220.6,808.3 227.6,777.7 234.6,749.4 241.5,724 248.5,701.6 255.5,682.5 262.5,666.7 269.4,654.4 276.4,645.4 
		283.4,639.7 290.3,637 297.3,637.3 304.3,640.3 311.2,645.7 318.2,653.3 325.2,662.9 332.2,674.2 339.1,687 346.1,701 353.1,716 
		360,731.8 367,748.1 374,764.9 380.9,781.8 387.9,798.9 394.9,815.9 401.9,832.8 408.8,849.3 415.8,865.6 422.8,881.4 429.7,896.7 
		436.7,911.5 443.7,925.7 450.6,939.3 457.6,952.3 464.6,964.7 471.5,976.5 478.5,987.6 485.5,998.1 492.5,1008.1 499.4,1017.4 
		506.4,1026.1 513.4,1034.3 520.3,1041.9 527.3,1049 534.3,1055.7 541.2,1061.8 548.2,1067.5 555.2,1072.8 562.2,1077.7 
		569.1,1082.2 576.1,1086.4 583.1,1090.2 590,1093.8 597,1097 604,1100 610.9,1102.7 617.9,1105.2 624.9,1107.5 631.9,1109.6 
		638.8,1111.5 645.8,1113.3 652.8,1114.9 659.7,1116.3 666.7,1117.6 673.7,1118.8 680.6,1119.9 687.6,1120.9 694.6,1121.8 
		701.6,1122.6 708.5,1123.3 715.5,1124 722.5,1124.6 729.4,1125.1 736.4,1125.6 743.4,1126.1 750.3,1126.5 757.3,1126.8 
		764.3,1127.2 771.2,1127.5 778.2,1127.7 785.2,1128 792.2,1128.2 799.1,1128.4 	"/>
	<polyline fill="none" stroke="#000000" stroke-width="3" stroke-dasharray="6,12" points="109.1,1130 116.1,1130 123.1,1129.8 
		130,1129 137,1127.3 144,1124.4 150.9,1120.1 157.9,1114.4 164.9,1107.4 171.9,1099.3 178.8,1090.4 185.8,1081 192.8,1071.6 
		199.7,1062.5 206.7,1054 213.7,1046.4 220.6,1040 227.6,1034.9 234.6,1031.3 241.5,1029.3 248.5,1028.8 255.5,1029.9 262.5,1032.4 
		269.4,1036.2 276.4,1041.2 283.4,1047.3 290.3,1054.1 297.3,1061.5 304.3,1069.3 311.2,1077.3 318.2,1085.2 325.2,1093 
		332.2,1100.3 339.1,1107.1 346.1,1113.2 353.1,1118.5 360,1122.9 367,1126.2 374,1128.6 380.9,1129.8 387.9,1129.9 394.9,1128.9 
		401.9,1126.8 408.8,1123.6 415.8,1119.4 422.8,1114.2 429.7,1108.1 436.7,1101.2 443.7,1093.5 450.6,1085.2 457.6,1076.2 
		464.6,1066.8 471.5,1056.9 478.5,1046.8 485.5,1036.4 492.5,1025.8 499.4,1015.2 506.4,1004.7 513.4,994.2 520.3,983.9 
		527.3,973.8 534.3,964 541.2,954.5 548.2,945.5 555.2,936.9 562.2,928.7 569.1,921.1 576.1,913.9 583.1,907.4 590,901.4 597,896 
		604,891.1 610.9,886.9 617.9,883.2 624.9,880.1 631.9,877.6 638.8,875.7 645.8,874.3 652.8,873.4 659.7,873 666.7,873.2 
		673.7,873.8 680.6,874.9 687.6,876.4 694.6,878.3 701.6,880.6 708.5,883.2 715.5,886.2 722.5,889.5 729.4,893 736.4,896.9 
		743.4,900.9 750.3,905.2 757.3,909.6 764.3,914.2 771.2,919 778.2,923.8 785.2,928.8 792.2,933.9 799.1,939 	"/>
	<path fill="none" stroke="#000000" stroke-width="0.3755" d="M109.1,1130h7h7h7h7h7h7h7h7h7h7h7h7h7h7h7h7h7h7h7h7h7h7h7h7h7h7h7h7
		h7h7h7h7h7h7h7h7h7h7h7h7h7h7h7h7h7h7h7h7h7h7h7h7h7h7h7h7h7h7h7h7h7h7h7h7h7h7h7h7h7h7h7h7h7h7h7h7h7h7h7h7h7h7h7h7h7h7h7h7h7h7h7
		h7h7h7h7h7h7h7h7 M109.1,1130V609.5 M109.1,1130H98.8 M109.1,1064.9H98.8 M109.1,999.9H98.8 M109.1,934.8H98.8 M109.1,869.7H98.8
		 M109.1,804.7H98.8 M109.1,739.6H98.8 M109.1,674.6H98.8 M109.1,609.5H98.8"/>
	<path d="M36.3,1137.4c-1.1,0-2-0.5-2.7-1.6c-0.7-1.1-1-2.4-1-4.1c0-1.7,0.3-3.1,1-4.1c0.7-1,1.6-1.6,2.7-1.6c1.1,0,2.1,0.5,2.7,1.6
		c0.7,1,1,2.4,1,4.1c0,1.7-0.3,3.1-1,4.2C38.4,1136.9,37.4,1137.4,36.3,1137.4L36.3,1137.4z M36.3,1136.3c1.5,0,2.3-1.6,2.3-4.7
		c0-3-0.8-4.6-2.3-4.6c-1.5,0-2.3,1.5-2.3,4.6C34.1,1134.8,34.8,1136.3,36.3,1136.3L36.3,1136.3z M42.5,1137.1v-1.8h1.8v1.8H42.5
		L42.5,1137.1z M50.5,1137.4c-1.1,0-2-0.5-2.7-1.6c-0.7-1.1-1-2.4-1-4.1c0-1.7,0.3-3.1,1-4.1c0.7-1,1.6-1.6,2.7-1.6
		c1.1,0,2.1,0.5,2.7,1.6c0.7,1,1,2.4,1,4.1c0,1.7-0.3,3.1-1,4.2C52.6,1136.9,51.7,1137.4,50.5,1137.4L50.5,1137.4z M50.5,1136.3
		c1.5,0,2.3-1.6,2.3-4.7c0-3-0.8-4.6-2.3-4.6c-1.5,0-2.3,1.5-2.3,4.6C48.3,1134.8,49,1136.3,50.5,1136.3L50.5,1136.3z M62.5,1136.9
		c-1,0.3-1.8,0.4-2.5,0.4c-1.2,0-2.1-0.4-2.9-1.2c-0.7-0.8-1.1-1.8-1.1-3c0-1.2,0.3-2.2,1-3c0.7-0.8,1.5-1.2,2.5-1.2
		c1,0,1.7,0.3,2.2,1c0.5,0.7,0.8,1.7,0.8,2.9l0,0.4h-5c0.2,1.9,1.1,2.8,2.8,2.8c0.6,0,1.3-0.2,2.2-0.5V1136.9L62.5,1136.9z
		 M57.6,1132.3h3.5c0-1.5-0.6-2.2-1.7-2.2C58.4,1130,57.7,1130.8,57.6,1132.3L57.6,1132.3z M69,1137.1v-3.8h-3.8v-1.1H69v-3.8h1.1
		v3.8h3.8v1.1h-3.8v3.8H69L69,1137.1z M80.2,1137.4c-1.1,0-2-0.5-2.7-1.6c-0.7-1.1-1-2.4-1-4.1c0-1.7,0.3-3.1,1-4.1
		c0.7-1,1.6-1.6,2.7-1.6c1.1,0,2.1,0.5,2.7,1.6c0.7,1,1,2.4,1,4.1c0,1.7-0.3,3.1-1,4.2C82.3,1136.9,81.4,1137.4,80.2,1137.4
		L80.2,1137.4z M80.2,1136.3c1.5,0,2.3-1.6,2.3-4.7c0-3-0.8-4.6-2.3-4.6c-1.5,0-2.3,1.5-2.3,4.6C78,1134.8,78.8,1136.3,80.2,1136.3
		L80.2,1136.3z M89.7,1137.4c-1.1,0-2-0.5-2.7-1.6c-0.7-1.1-1-2.4-1-4.1c0-1.7,0.3-3.1,1-4.1c0.7-1,1.6-1.6,2.7-1.6
		c1.1,0,2.1,0.5,2.7,1.6c0.7,1,1,2.4,1,4.1c0,1.7-0.3,3.1-1,4.2C91.8,1136.9,90.9,1137.4,89.7,1137.4L89.7,1137.4z M89.7,1136.3
		c1.5,0,2.3-1.6,2.3-4.7c0-3-0.8-4.6-2.3-4.6c-1.5,0-2.3,1.5-2.3,4.6C87.5,1134.8,88.2,1136.3,89.7,1136.3L89.7,1136.3z"/>
	<path d="M34.9,1072.6v-1.3c0.7,0.3,1.4,0.4,2,0.4c0.7,0,1.3-0.2,1.7-0.6c0.4-0.4,0.6-1,0.6-1.7c0-1.6-1.1-2.4-3.4-2.4
		c-0.3,0-0.5,0-0.8,0.1v-5.3h5.5v1.3h-4.2v2.9c1.4,0,2.5,0.3,3.3,1c0.8,0.6,1.2,1.5,1.2,2.7c0,1.1-0.4,1.9-1.1,2.5
		c-0.7,0.6-1.7,0.9-3,0.9C36.2,1072.8,35.6,1072.7,34.9,1072.6L34.9,1072.6z M44,1072.5v-1.8h1.8v1.8H44L44,1072.5z M52,1072.8
		c-1.1,0-2-0.5-2.7-1.6c-0.7-1.1-1-2.4-1-4.1c0-1.7,0.3-3.1,1-4.1c0.7-1,1.6-1.6,2.7-1.6c1.1,0,2.1,0.5,2.7,1.6c0.7,1,1,2.4,1,4.1
		c0,1.7-0.3,3.1-1,4.2C54.1,1072.3,53.2,1072.8,52,1072.8L52,1072.8z M52,1071.7c1.5,0,2.3-1.6,2.3-4.7c0-3-0.8-4.6-2.3-4.6
		c-1.5,0-2.3,1.5-2.3,4.6C49.8,1070.2,50.5,1071.7,52,1071.7L52,1071.7z M64,1072.3c-1,0.3-1.8,0.4-2.5,0.4c-1.2,0-2.1-0.4-2.9-1.2
		c-0.7-0.8-1.1-1.8-1.1-3c0-1.2,0.3-2.2,1-3c0.7-0.8,1.5-1.2,2.5-1.2c1,0,1.7,0.3,2.2,1c0.5,0.7,0.8,1.7,0.8,2.9l0,0.4h-5
		c0.2,1.9,1.1,2.8,2.8,2.8c0.6,0,1.3-0.2,2.2-0.5V1072.3L64,1072.3z M59.1,1067.7h3.5c0-1.5-0.6-2.2-1.7-2.2
		C59.9,1065.5,59.2,1066.2,59.1,1067.7L59.1,1067.7z M70.5,1072.5v-3.8h-3.8v-1.1h3.8v-3.8h1.1v3.8h3.8v1.1h-3.8v3.8H70.5
		L70.5,1072.5z M81.7,1072.8c-1.1,0-2-0.5-2.7-1.6c-0.7-1.1-1-2.4-1-4.1c0-1.7,0.3-3.1,1-4.1c0.7-1,1.6-1.6,2.7-1.6
		c1.1,0,2.1,0.5,2.7,1.6c0.7,1,1,2.4,1,4.1c0,1.7-0.3,3.1-1,4.2C83.8,1072.3,82.9,1072.8,81.7,1072.8L81.7,1072.8z M81.7,1071.7
		c1.5,0,2.3-1.6,2.3-4.7c0-3-0.8-4.6-2.3-4.6c-1.5,0-2.3,1.5-2.3,4.6C79.5,1070.2,80.3,1071.7,81.7,1071.7L81.7,1071.7z
		 M89.1,1066.9c0.7-0.9,1.6-1.3,2.6-1.3c0.9,0,1.7,0.3,2.3,0.9c0.6,0.6,0.9,1.4,0.9,2.4c0,1.1-0.3,2.1-1,2.8
		c-0.7,0.7-1.5,1.1-2.6,1.1c-1.2,0-2.1-0.5-2.8-1.4c-0.7-1-1-2.3-1-4c0-1.9,0.4-3.3,1.2-4.4c0.8-1,1.9-1.6,3.3-1.6
		c0.6,0,1.4,0.1,2.4,0.4v1.3c-1-0.4-1.9-0.6-2.5-0.6C90,1062.5,89.1,1063.9,89.1,1066.9L89.1,1066.9z M93.5,1069.2
		c0-0.8-0.2-1.5-0.6-1.9c-0.4-0.5-0.9-0.7-1.5-0.7c-0.6,0-1.1,0.2-1.6,0.6c-0.4,0.4-0.7,0.9-0.7,1.5c0,0.9,0.2,1.6,0.6,2.2
		c0.4,0.6,1,0.8,1.7,0.8c0.6,0,1.1-0.2,1.5-0.7C93.3,1070.6,93.5,1070,93.5,1069.2L93.5,1069.2z"/>
	<path d="M35.3,1007.9v-1.1h2.2v-8.6l-2.2,0.5v-1.1l3.6-0.9v10h2.2v1.1H35.3L35.3,1007.9z M44,1007.9v-1.8h1.8v1.8H44L44,1007.9z
		 M52,1008.2c-1.1,0-2-0.5-2.7-1.6c-0.7-1.1-1-2.4-1-4.1c0-1.7,0.3-3.1,1-4.1c0.7-1,1.6-1.6,2.7-1.6c1.1,0,2.1,0.5,2.7,1.6
		c0.7,1,1,2.4,1,4.1c0,1.7-0.3,3.1-1,4.2C54.1,1007.7,53.2,1008.2,52,1008.2L52,1008.2z M52,1007.1c1.5,0,2.3-1.6,2.3-4.7
		c0-3-0.8-4.6-2.3-4.6c-1.5,0-2.3,1.5-2.3,4.6C49.8,1005.6,50.5,1007.1,52,1007.1L52,1007.1z M64,1007.7c-1,0.3-1.8,0.4-2.5,0.4
		c-1.2,0-2.1-0.4-2.9-1.2c-0.7-0.8-1.1-1.8-1.1-3c0-1.2,0.3-2.2,1-3c0.7-0.8,1.5-1.2,2.5-1.2c1,0,1.7,0.3,2.2,1
		c0.5,0.7,0.8,1.7,0.8,2.9l0,0.4h-5c0.2,1.9,1.1,2.8,2.8,2.8c0.6,0,1.3-0.2,2.2-0.5V1007.7L64,1007.7z M59.1,1003.1h3.5
		c0-1.5-0.6-2.2-1.7-2.2C59.9,1000.9,59.2,1001.6,59.1,1003.1L59.1,1003.1z M70.5,1007.9v-3.8h-3.8v-1.1h3.8v-3.8h1.1v3.8h3.8v1.1
		h-3.8v3.8H70.5L70.5,1007.9z M81.7,1008.2c-1.1,0-2-0.5-2.7-1.6c-0.7-1.1-1-2.4-1-4.1c0-1.7,0.3-3.1,1-4.1c0.7-1,1.6-1.6,2.7-1.6
		c1.1,0,2.1,0.5,2.7,1.6c0.7,1,1,2.4,1,4.1c0,1.7-0.3,3.1-1,4.2C83.8,1007.7,82.9,1008.2,81.7,1008.2L81.7,1008.2z M81.7,1007.1
		c1.5,0,2.3-1.6,2.3-4.7c0-3-0.8-4.6-2.3-4.6c-1.5,0-2.3,1.5-2.3,4.6C79.5,1005.6,80.3,1007.1,81.7,1007.1L81.7,1007.1z
		 M88.8,1007.9c0.1-0.8,0.3-1.6,0.6-2.2c0.3-0.6,0.7-1.5,1.4-2.5l3-4.8h-5.6v-1.4h7v1.4c-2.8,4.1-4.3,7.3-4.7,9.5H88.8L88.8,1007.9z
		"/>
	<path d="M35.3,941.8v-1.1h2.2v-8.6l-2.2,0.5v-1.1l3.6-0.9v10h2.2v1.1H35.3L35.3,941.8z M44,941.8V940h1.8v1.8H44L44,941.8z
		 M49.1,941.9v-1.3c0.7,0.3,1.4,0.4,2,0.4c0.7,0,1.3-0.2,1.7-0.6c0.4-0.4,0.6-1,0.6-1.7c0-1.6-1.1-2.4-3.4-2.4c-0.3,0-0.5,0-0.8,0.1
		V931h5.5v1.3h-4.2v2.9c1.4,0,2.5,0.3,3.3,1c0.8,0.6,1.2,1.5,1.2,2.7c0,1.1-0.4,1.9-1.1,2.5c-0.7,0.6-1.7,0.9-3,0.9
		C50.4,942.1,49.8,942,49.1,941.9L49.1,941.9z M64,941.6c-1,0.3-1.8,0.4-2.5,0.4c-1.2,0-2.1-0.4-2.9-1.2c-0.7-0.8-1.1-1.8-1.1-3
		c0-1.2,0.3-2.2,1-3c0.7-0.8,1.5-1.2,2.5-1.2c1,0,1.7,0.3,2.2,1c0.5,0.7,0.8,1.7,0.8,2.9l0,0.4h-5c0.2,1.9,1.1,2.8,2.8,2.8
		c0.6,0,1.3-0.2,2.2-0.5V941.6L64,941.6z M59.1,937h3.5c0-1.5-0.6-2.2-1.7-2.2C59.9,934.8,59.2,935.5,59.1,937L59.1,937z
		 M70.5,941.8V938h-3.8V937h3.8v-3.8h1.1v3.8h3.8v1.1h-3.8v3.8H70.5L70.5,941.8z M81.7,942.1c-1.1,0-2-0.5-2.7-1.6
		c-0.7-1.1-1-2.4-1-4.1c0-1.7,0.3-3.1,1-4.1c0.7-1,1.6-1.6,2.7-1.6c1.1,0,2.1,0.5,2.7,1.6c0.7,1,1,2.4,1,4.1c0,1.7-0.3,3.1-1,4.2
		C83.8,941.6,82.9,942.1,81.7,942.1L81.7,942.1z M81.7,941c1.5,0,2.3-1.6,2.3-4.7c0-3-0.8-4.6-2.3-4.6c-1.5,0-2.3,1.5-2.3,4.6
		C79.5,939.5,80.3,941,81.7,941L81.7,941z M88.8,941.8c0.1-0.8,0.3-1.6,0.6-2.2c0.3-0.6,0.7-1.5,1.4-2.5l3-4.8h-5.6V931h7v1.4
		c-2.8,4.1-4.3,7.3-4.7,9.5H88.8L88.8,941.8z"/>
	<path d="M34.3,877.2V876c0.4-1,1.3-2.1,2.5-3.2l0.8-0.7c1.1-1,1.6-1.9,1.6-2.9c0-0.6-0.2-1.1-0.5-1.4c-0.4-0.3-0.9-0.5-1.5-0.5
		c-0.8,0-1.6,0.3-2.7,0.9v-1.3c1-0.5,1.9-0.7,2.9-0.7c1,0,1.8,0.3,2.4,0.8c0.6,0.5,0.9,1.3,0.9,2.2c0,0.7-0.2,1.2-0.5,1.7
		c-0.3,0.5-0.9,1.1-1.7,1.8l-0.6,0.5c-1.2,1-1.8,1.9-2,2.8h4.7v1.3H34.3L34.3,877.2z M44,877.2v-1.8h1.8v1.8H44L44,877.2z M52,877.5
		c-1.1,0-2-0.5-2.7-1.6c-0.7-1.1-1-2.4-1-4.1c0-1.7,0.3-3.1,1-4.1c0.7-1,1.6-1.6,2.7-1.6c1.1,0,2.1,0.5,2.7,1.6c0.7,1,1,2.4,1,4.1
		c0,1.7-0.3,3.1-1,4.2C54.1,877,53.2,877.5,52,877.5L52,877.5z M52,876.4c1.5,0,2.3-1.6,2.3-4.7c0-3-0.8-4.6-2.3-4.6
		c-1.5,0-2.3,1.5-2.3,4.6C49.8,874.9,50.5,876.4,52,876.4L52,876.4z M64,877c-1,0.3-1.8,0.4-2.5,0.4c-1.2,0-2.1-0.4-2.9-1.2
		c-0.7-0.8-1.1-1.8-1.1-3c0-1.2,0.3-2.2,1-3c0.7-0.8,1.5-1.2,2.5-1.2c1,0,1.7,0.3,2.2,1c0.5,0.7,0.8,1.7,0.8,2.9l0,0.4h-5
		c0.2,1.9,1.1,2.8,2.8,2.8c0.6,0,1.3-0.2,2.2-0.5V877L64,877z M59.1,872.4h3.5c0-1.5-0.6-2.2-1.7-2.2
		C59.9,870.2,59.2,870.9,59.1,872.4L59.1,872.4z M70.5,877.2v-3.8h-3.8v-1.1h3.8v-3.8h1.1v3.8h3.8v1.1h-3.8v3.8H70.5L70.5,877.2z
		 M81.7,877.5c-1.1,0-2-0.5-2.7-1.6c-0.7-1.1-1-2.4-1-4.1c0-1.7,0.3-3.1,1-4.1c0.7-1,1.6-1.6,2.7-1.6c1.1,0,2.1,0.5,2.7,1.6
		c0.7,1,1,2.4,1,4.1c0,1.7-0.3,3.1-1,4.2C83.8,877,82.9,877.5,81.7,877.5L81.7,877.5z M81.7,876.4c1.5,0,2.3-1.6,2.3-4.7
		c0-3-0.8-4.6-2.3-4.6c-1.5,0-2.3,1.5-2.3,4.6C79.5,874.9,80.3,876.4,81.7,876.4L81.7,876.4z M88.8,877.2c0.1-0.8,0.3-1.6,0.6-2.2
		c0.3-0.6,0.7-1.5,1.4-2.5l3-4.8h-5.6v-1.4h7v1.4c-2.8,4.1-4.3,7.3-4.7,9.5H88.8L88.8,877.2z"/>
	<path d="M34.3,812.7v-1.3c0.4-1,1.3-2.1,2.5-3.2l0.8-0.7c1.1-1,1.6-1.9,1.6-2.9c0-0.6-0.2-1.1-0.5-1.4c-0.4-0.3-0.9-0.5-1.5-0.5
		c-0.8,0-1.6,0.3-2.7,0.9v-1.3c1-0.5,1.9-0.7,2.9-0.7c1,0,1.8,0.3,2.4,0.8c0.6,0.5,0.9,1.3,0.9,2.2c0,0.6-0.2,1.2-0.5,1.7
		c-0.3,0.5-0.9,1.1-1.7,1.8l-0.6,0.5c-1.2,1-1.8,1.9-2,2.8h4.7v1.3H34.3L34.3,812.7z M44,812.7v-1.8h1.8v1.8H44L44,812.7z
		 M49.1,812.7v-1.3c0.7,0.3,1.4,0.4,2,0.4c0.7,0,1.3-0.2,1.7-0.6c0.4-0.4,0.6-1,0.6-1.7c0-1.6-1.1-2.4-3.4-2.4c-0.3,0-0.5,0-0.8,0.1
		v-5.3h5.5v1.3h-4.2v2.9c1.4,0,2.5,0.3,3.3,1c0.8,0.6,1.2,1.5,1.2,2.7c0,1.1-0.4,1.9-1.1,2.5c-0.7,0.6-1.7,0.9-3,0.9
		C50.4,812.9,49.8,812.9,49.1,812.7L49.1,812.7z M64,812.4c-1,0.3-1.8,0.4-2.5,0.4c-1.2,0-2.1-0.4-2.9-1.2c-0.7-0.8-1.1-1.8-1.1-3
		c0-1.2,0.3-2.2,1-3c0.7-0.8,1.5-1.2,2.5-1.2c1,0,1.7,0.3,2.2,1c0.5,0.7,0.8,1.7,0.8,2.9l0,0.5h-5c0.2,1.9,1.1,2.8,2.8,2.8
		c0.6,0,1.3-0.2,2.2-0.5V812.4L64,812.4z M59.1,807.8h3.5c0-1.5-0.6-2.2-1.7-2.2C59.9,805.6,59.2,806.3,59.1,807.8L59.1,807.8z
		 M70.5,812.7v-3.8h-3.8v-1.1h3.8V804h1.1v3.8h3.8v1.1h-3.8v3.8H70.5L70.5,812.7z M81.7,812.9c-1.1,0-2-0.5-2.7-1.6
		c-0.7-1.1-1-2.4-1-4.1c0-1.7,0.3-3.1,1-4.1c0.7-1,1.6-1.6,2.7-1.6c1.1,0,2.1,0.5,2.7,1.6c0.7,1,1,2.4,1,4.1c0,1.7-0.3,3.1-1,4.2
		C83.8,812.4,82.9,812.9,81.7,812.9L81.7,812.9z M81.7,811.8c1.5,0,2.3-1.6,2.3-4.7c0-3-0.8-4.6-2.3-4.6c-1.5,0-2.3,1.5-2.3,4.6
		C79.5,810.3,80.3,811.8,81.7,811.8L81.7,811.8z M88.8,812.7c0.1-0.8,0.3-1.6,0.6-2.2c0.3-0.6,0.7-1.5,1.4-2.5l3-4.8h-5.6v-1.4h7
		v1.4c-2.8,4.1-4.3,7.3-4.7,9.5H88.8L88.8,812.7z"/>
	<path d="M34.6,746.5v-1.3c1,0.4,1.8,0.6,2.4,0.6c0.7,0,1.2-0.2,1.7-0.6c0.4-0.4,0.6-0.9,0.6-1.6c0-1.5-1.1-2.3-3.2-2.3h-0.6v-1
		l0.5,0c2,0,3-0.7,3-2.1c0-1.1-0.7-1.7-2-1.7c-0.7,0-1.5,0.2-2.4,0.6v-1.3c0.9-0.3,1.7-0.4,2.5-0.4c2.2,0,3.3,0.8,3.3,2.5
		c0,1.3-0.8,2.2-2.3,2.7c1.7,0.4,2.6,1.4,2.6,2.9c0,1-0.3,1.8-1,2.4c-0.7,0.6-1.6,0.9-2.8,0.9C36.5,746.8,35.6,746.7,34.6,746.5
		L34.6,746.5z M44,746.6v-1.8h1.8v1.8H44L44,746.6z M52,746.8c-1.1,0-2-0.5-2.7-1.6c-0.7-1.1-1-2.4-1-4.1c0-1.7,0.3-3.1,1-4.1
		c0.7-1,1.6-1.6,2.7-1.6c1.1,0,2.1,0.5,2.7,1.6c0.7,1,1,2.4,1,4.1c0,1.7-0.3,3.1-1,4.2C54.1,746.3,53.2,746.8,52,746.8L52,746.8z
		 M52,745.7c1.5,0,2.3-1.6,2.3-4.7c0-3-0.8-4.6-2.3-4.6c-1.5,0-2.3,1.5-2.3,4.6C49.8,744.2,50.5,745.7,52,745.7L52,745.7z M64,746.3
		c-1,0.3-1.8,0.4-2.5,0.4c-1.2,0-2.1-0.4-2.9-1.2c-0.7-0.8-1.1-1.8-1.1-3c0-1.2,0.3-2.2,1-3c0.7-0.8,1.5-1.2,2.5-1.2
		c1,0,1.7,0.3,2.2,1c0.5,0.7,0.8,1.7,0.8,2.9l0,0.4h-5c0.2,1.9,1.1,2.8,2.8,2.8c0.6,0,1.3-0.2,2.2-0.5V746.3L64,746.3z M59.1,741.7
		h3.5c0-1.5-0.6-2.2-1.7-2.2C59.9,739.5,59.2,740.2,59.1,741.7L59.1,741.7z M70.5,746.6v-3.8h-3.8v-1.1h3.8v-3.8h1.1v3.8h3.8v1.1
		h-3.8v3.8H70.5L70.5,746.6z M81.7,746.8c-1.1,0-2-0.5-2.7-1.6c-0.7-1.1-1-2.4-1-4.1c0-1.7,0.3-3.1,1-4.1c0.7-1,1.6-1.6,2.7-1.6
		c1.1,0,2.1,0.5,2.7,1.6c0.7,1,1,2.4,1,4.1c0,1.7-0.3,3.1-1,4.2C83.8,746.3,82.9,746.8,81.7,746.8L81.7,746.8z M81.7,745.7
		c1.5,0,2.3-1.6,2.3-4.7c0-3-0.8-4.6-2.3-4.6c-1.5,0-2.3,1.5-2.3,4.6C79.5,744.2,80.3,745.7,81.7,745.7L81.7,745.7z M88.8,746.6
		c0.1-0.8,0.3-1.6,0.6-2.2c0.3-0.6,0.7-1.5,1.4-2.5l3-4.8h-5.6v-1.4h7v1.4c-2.8,4.1-4.3,7.3-4.7,9.5H88.8L88.8,746.6z"/>
	<path d="M34.6,681.9v-1.3c1,0.4,1.8,0.6,2.4,0.6c0.7,0,1.2-0.2,1.7-0.6c0.4-0.4,0.6-0.9,0.6-1.6c0-1.5-1.1-2.3-3.2-2.3h-0.6v-1
		l0.5,0c2,0,3-0.7,3-2.1c0-1.1-0.7-1.7-2-1.7c-0.7,0-1.5,0.2-2.4,0.6v-1.3c0.9-0.3,1.7-0.4,2.5-0.4c2.2,0,3.3,0.8,3.3,2.5
		c0,1.3-0.8,2.2-2.3,2.7c1.7,0.4,2.6,1.4,2.6,2.9c0,1-0.3,1.8-1,2.4c-0.7,0.6-1.6,0.9-2.8,0.9C36.5,682.2,35.6,682.1,34.6,681.9
		L34.6,681.9z M44,682v-1.8h1.8v1.8H44L44,682z M49.1,682v-1.3c0.7,0.3,1.4,0.4,2,0.4c0.7,0,1.3-0.2,1.7-0.6c0.4-0.4,0.6-1,0.6-1.7
		c0-1.6-1.1-2.4-3.4-2.4c-0.3,0-0.5,0-0.8,0.1v-5.3h5.5v1.3h-4.2v2.9c1.4,0,2.5,0.3,3.3,1s1.2,1.5,1.2,2.7c0,1.1-0.4,1.9-1.1,2.5
		s-1.7,0.9-3,0.9C50.4,682.2,49.8,682.2,49.1,682L49.1,682z M64,681.7c-1,0.3-1.8,0.4-2.5,0.4c-1.2,0-2.1-0.4-2.9-1.2
		c-0.7-0.8-1.1-1.8-1.1-3c0-1.2,0.3-2.2,1-3c0.7-0.8,1.5-1.2,2.5-1.2c1,0,1.7,0.3,2.2,1c0.5,0.7,0.8,1.7,0.8,2.9l0,0.4h-5
		c0.2,1.9,1.1,2.8,2.8,2.8c0.6,0,1.3-0.2,2.2-0.5V681.7L64,681.7z M59.1,677.1h3.5c0-1.5-0.6-2.2-1.7-2.2
		C59.9,674.9,59.2,675.6,59.1,677.1L59.1,677.1z M70.5,682v-3.8h-3.8v-1.1h3.8v-3.8h1.1v3.8h3.8v1.1h-3.8v3.8H70.5L70.5,682z
		 M81.7,682.2c-1.1,0-2-0.5-2.7-1.6c-0.7-1.1-1-2.4-1-4.1c0-1.7,0.3-3.1,1-4.1c0.7-1,1.6-1.6,2.7-1.6c1.1,0,2.1,0.5,2.7,1.6
		c0.7,1,1,2.4,1,4.1c0,1.7-0.3,3.1-1,4.2C83.8,681.7,82.9,682.2,81.7,682.2L81.7,682.2z M81.7,681.2c1.5,0,2.3-1.6,2.3-4.7
		c0-3-0.8-4.6-2.3-4.6c-1.5,0-2.3,1.5-2.3,4.6C79.5,679.6,80.3,681.2,81.7,681.2L81.7,681.2z M88.8,682c0.1-0.8,0.3-1.6,0.6-2.2
		c0.3-0.6,0.7-1.5,1.4-2.5l3-4.8h-5.6v-1.4h7v1.4c-2.8,4.1-4.3,7.3-4.7,9.5H88.8L88.8,682z"/>
	<path d="M37.2,617.4v-3.1h-4.9v-1.1l4.9-6.7h1.4v6.6H40v1.2h-1.4v3.1H37.2L37.2,617.4z M33.8,613.1h3.6v-4.8L33.8,613.1L33.8,613.1
		z M42.5,617.4v-1.8h1.8v1.8H42.5L42.5,617.4z M50.5,617.6c-1.1,0-2-0.5-2.7-1.6c-0.7-1.1-1-2.4-1-4.1c0-1.7,0.3-3.1,1-4.1
		c0.7-1,1.6-1.6,2.7-1.6c1.1,0,2.1,0.5,2.7,1.6c0.7,1,1,2.4,1,4.1c0,1.7-0.3,3.1-1,4.2C52.6,617.1,51.7,617.6,50.5,617.6L50.5,617.6
		z M50.5,616.6c1.5,0,2.3-1.6,2.3-4.7c0-3-0.8-4.6-2.3-4.6c-1.5,0-2.3,1.5-2.3,4.6C48.3,615,49,616.6,50.5,616.6L50.5,616.6z
		 M62.5,617.1c-1,0.3-1.8,0.4-2.5,0.4c-1.2,0-2.1-0.4-2.9-1.2c-0.7-0.8-1.1-1.8-1.1-3c0-1.2,0.3-2.2,1-3c0.7-0.8,1.5-1.2,2.5-1.2
		c1,0,1.7,0.3,2.2,1c0.5,0.7,0.8,1.7,0.8,2.9l0,0.5h-5c0.2,1.9,1.1,2.8,2.8,2.8c0.6,0,1.3-0.2,2.2-0.5V617.1L62.5,617.1z
		 M57.6,612.5h3.5c0-1.5-0.6-2.2-1.7-2.2C58.4,610.3,57.7,611.1,57.6,612.5L57.6,612.5z M69,617.4v-3.8h-3.8v-1.1H69v-3.8h1.1v3.8
		h3.8v1.1h-3.8v3.8H69L69,617.4z M80.2,617.6c-1.1,0-2-0.5-2.7-1.6c-0.7-1.1-1-2.4-1-4.1c0-1.7,0.3-3.1,1-4.1c0.7-1,1.6-1.6,2.7-1.6
		c1.1,0,2.1,0.5,2.7,1.6c0.7,1,1,2.4,1,4.1c0,1.7-0.3,3.1-1,4.2C82.3,617.1,81.4,617.6,80.2,617.6L80.2,617.6z M80.2,616.6
		c1.5,0,2.3-1.6,2.3-4.7c0-3-0.8-4.6-2.3-4.6c-1.5,0-2.3,1.5-2.3,4.6C78,615,78.8,616.6,80.2,616.6L80.2,616.6z M87.3,617.4
		c0.1-0.8,0.3-1.6,0.6-2.2c0.3-0.6,0.7-1.5,1.4-2.5l3-4.8h-5.6v-1.4h7v1.4c-2.8,4.1-4.3,7.3-4.7,9.5H87.3L87.3,617.4z"/>
	<path fill="none" stroke="#000000" stroke-width="0.3755" d="M109.1,1130h690 M109.1,1130v7.8 M339.1,1130v7.8 M569.1,1130v7.8
		 M799.1,1130v7.8 M155.1,1130v4.7 M201.1,1130v4.7 M247.1,1130v4.7 M293.1,1130v4.7 M385.1,1130v4.7 M431.1,1130v4.7 M477.1,1130
		v4.7 M523.1,1130v4.7 M615.1,1130v4.7 M661.1,1130v4.7 M707.1,1130v4.7 M753.1,1130v4.7"/>
	<path d="M108.2,1155.4c-1.1,0-2-0.5-2.7-1.6c-0.7-1.1-1-2.4-1-4.1c0-1.7,0.3-3.1,1-4.1c0.7-1,1.6-1.6,2.7-1.6
		c1.1,0,2.1,0.5,2.7,1.6c0.7,1,1,2.4,1,4.1c0,1.7-0.3,3.1-1,4.2C110.3,1154.9,109.4,1155.4,108.2,1155.4L108.2,1155.4z
		 M108.2,1154.3c1.5,0,2.3-1.6,2.3-4.7c0-3-0.8-4.6-2.3-4.6c-1.5,0-2.3,1.5-2.3,4.6C106,1152.8,106.7,1154.3,108.2,1154.3
		L108.2,1154.3z"/>
	<path d="M336.1,1155.2v-1.3c0.7,0.3,1.4,0.4,2,0.4c0.7,0,1.3-0.2,1.7-0.6c0.4-0.4,0.6-1,0.6-1.7c0-1.6-1.1-2.4-3.4-2.4
		c-0.3,0-0.5,0-0.8,0.1v-5.3h5.5v1.3h-4.2v2.9c1.4,0,2.5,0.3,3.3,1c0.8,0.6,1.2,1.5,1.2,2.7c0,1.1-0.4,1.9-1.1,2.5
		c-0.7,0.6-1.7,0.9-3,0.9C337.4,1155.4,336.8,1155.3,336.1,1155.2L336.1,1155.2z"/>
	<path d="M561.3,1155.1v-1.1h2.2v-8.6l-2.2,0.5v-1.1l3.6-0.9v10h2.2v1.1H561.3L561.3,1155.1z M573.2,1155.4c-1.1,0-2-0.5-2.7-1.6
		s-1-2.4-1-4.1c0-1.7,0.3-3.1,1-4.1c0.7-1,1.6-1.6,2.7-1.6c1.1,0,2.1,0.5,2.8,1.6s1,2.4,1,4.1c0,1.7-0.3,3.1-1,4.2
		S574.3,1155.4,573.2,1155.4L573.2,1155.4z M573.2,1154.3c1.5,0,2.3-1.6,2.3-4.7c0-3-0.8-4.6-2.3-4.6c-1.5,0-2.2,1.5-2.2,4.6
		C571,1152.8,571.7,1154.3,573.2,1154.3L573.2,1154.3z"/>
	<path d="M792,1155.1v-1.1h2.2v-8.6l-2.2,0.5v-1.1l3.6-0.9v10h2.2v1.1H792L792,1155.1z M801,1155.2v-1.3c0.7,0.3,1.4,0.4,2,0.4
		c0.7,0,1.3-0.2,1.7-0.6c0.4-0.4,0.6-1,0.6-1.7c0-1.6-1.1-2.4-3.4-2.4c-0.3,0-0.5,0-0.8,0.1v-5.3h5.5v1.3h-4.2v2.9
		c1.4,0,2.5,0.3,3.3,1c0.8,0.6,1.2,1.5,1.2,2.7c0,1.1-0.4,1.9-1.1,2.5c-0.7,0.6-1.7,0.9-2.9,0.9
		C802.4,1155.4,801.7,1155.3,801,1155.2L801,1155.2z"/>
</g>
<text transform="matrix(1 0 0 1 561 619.5498)"><tspan x="0" y="0" font-family="'MyriadPro-Regular'" font-size="30">p </tspan><tspan x="0" y="36" font-family="'MyriadPro-Regular'" font-size="30">radial distribution</tspan></text>
<text transform="matrix(1 0 0 1 555 89.5498)"><tspan x="0" y="0" font-family="'MyriadPro-Regular'" font-size="30">s </tspan><tspan x="0" y="36" font-family="'MyriadPro-Regular'" font-size="30">radial distribution</tspan></text>
<g>
	<polygon fill="#FFFFFF" points="108.9,530.9 108.9,73.4 108.9,530.9 	"/>
	<polygon fill="#FFFFFF" points="108.9,73.4 108.9,73.4 108.9,530.9 	"/>
	<polygon fill="#FFFFFF" points="108.9,530.9 798.9,530.9 108.9,530.9 	"/>
	<polygon fill="#FFFFFF" points="798.9,530.9 798.9,530.9 108.9,530.9 	"/>
	<polyline fill="none" stroke="#000000" stroke-width="3" points="108.9,530.9 115.9,480.7 122.9,382.7 129.8,284.6 136.8,207.5 
		143.8,157.7 150.8,134 157.7,131.9 164.7,146 171.7,171.1 178.6,202.8 185.6,237.7 192.6,273.2 199.5,307.5 206.5,339.6 
		213.5,368.7 220.5,394.6 227.4,417.2 234.4,436.8 241.4,453.4 248.3,467.5 255.3,479.3 262.3,489.1 269.2,497.1 276.2,503.7 
		283.2,509.1 290.2,513.5 297.1,517.1 304.1,519.9 311.1,522.2 318,524 325,525.5 332,526.6 338.9,527.5 345.9,528.3 352.9,528.8 
		359.8,529.3 366.8,529.6 373.8,529.9 380.8,530.1 387.7,530.3 394.7,530.4 401.7,530.5 408.6,530.6 415.6,530.7 422.6,530.7 
		429.5,530.8 436.5,530.8 443.5,530.8 450.5,530.8 457.4,530.9 464.4,530.9 471.4,530.9 478.3,530.9 485.3,530.9 492.3,530.9 
		499.2,530.9 506.2,530.9 513.2,530.9 520.2,530.9 527.1,530.9 534.1,530.9 541.1,530.9 548,530.9 555,530.9 562,530.9 568.9,530.9 
		575.9,530.9 582.9,530.9 589.9,530.9 596.8,530.9 603.8,530.9 610.8,530.9 617.7,530.9 624.7,530.9 631.7,530.9 638.6,530.9 
		645.6,530.9 652.6,530.9 659.5,530.9 666.5,530.9 673.5,530.9 680.5,530.9 687.4,530.9 694.4,530.9 701.4,530.9 708.3,530.9 
		715.3,530.9 722.3,530.9 729.2,530.9 736.2,530.9 743.2,530.9 750.2,530.9 757.1,530.9 764.1,530.9 771.1,530.9 778,530.9 
		785,530.9 792,530.9 798.9,530.9 	"/>
	<polyline fill="none" stroke="#000000" stroke-width="3" stroke-dasharray="12,12" points="108.9,530.9 115.9,524.7 122.9,512.8 
		129.8,501.9 136.8,494.9 143.8,492.5 150.8,494.3 157.7,499.1 164.7,505.8 171.7,513.1 178.6,519.9 185.6,525.5 192.6,529.3 
		199.5,530.9 206.5,530.2 213.5,527.2 220.5,522.2 227.4,515.4 234.4,507.1 241.4,497.6 248.3,487.4 255.3,476.6 262.3,465.7 
		269.2,455 276.2,444.6 283.2,434.9 290.2,425.9 297.1,417.8 304.1,410.6 311.1,404.5 318,399.5 325,395.5 332,392.6 338.9,390.7 
		345.9,389.8 352.9,389.7 359.8,390.5 366.8,392 373.8,394.2 380.8,397 387.7,400.3 394.7,404 401.7,408.1 408.6,412.4 415.6,417 
		422.6,421.8 429.5,426.6 436.5,431.6 443.5,436.5 450.5,441.4 457.4,446.3 464.4,451.1 471.4,455.8 478.3,460.3 485.3,464.7 
		492.3,469 499.2,473.1 506.2,477 513.2,480.7 520.2,484.2 527.1,487.6 534.1,490.8 541.1,493.8 548,496.6 555,499.2 562,501.7 
		568.9,504 575.9,506.2 582.9,508.2 589.9,510.1 596.8,511.8 603.8,513.4 610.8,514.9 617.7,516.3 624.7,517.6 631.7,518.7 
		638.6,519.8 645.6,520.8 652.6,521.7 659.5,522.6 666.5,523.3 673.5,524 680.5,524.7 687.4,525.2 694.4,525.8 701.4,526.3 
		708.3,526.7 715.3,527.1 722.3,527.5 729.2,527.8 736.2,528.1 743.2,528.4 750.2,528.6 757.1,528.9 764.1,529.1 771.1,529.2 
		778,529.4 785,529.6 792,529.7 798.9,529.8 	"/>
	<polyline fill="none" stroke="#000000" stroke-width="3" stroke-dasharray="6,6" points="108.9,530.9 115.9,529.1 122.9,525.6 
		129.8,522.4 136.8,520.5 143.8,519.9 150.8,520.7 157.7,522.3 164.7,524.4 171.7,526.6 178.6,528.6 185.6,530 192.6,530.8 
		199.5,530.8 206.5,530.1 213.5,528.7 220.5,526.7 227.4,524.2 234.4,521.5 241.4,518.5 248.3,515.5 255.3,512.6 262.3,509.9 
		269.2,507.5 276.2,505.5 283.2,504 290.2,502.9 297.1,502.4 304.1,502.3 311.1,502.7 318,503.6 325,504.8 332,506.4 338.9,508.2 
		345.9,510.3 352.9,512.5 359.8,514.8 366.8,517.2 373.8,519.4 380.8,521.6 387.7,523.7 394.7,525.5 401.7,527.1 408.6,528.5 
		415.6,529.6 422.6,530.3 429.5,530.8 436.5,530.9 443.5,530.7 450.5,530.1 457.4,529.3 464.4,528.1 471.4,526.6 478.3,524.9 
		485.3,522.9 492.3,520.7 499.2,518.3 506.2,515.7 513.2,512.9 520.2,510.1 527.1,507.1 534.1,504.1 541.1,501 548,497.9 555,494.8 
		562,491.7 568.9,488.6 575.9,485.7 582.9,482.8 589.9,480 596.8,477.3 603.8,474.8 610.8,472.4 617.7,470.1 624.7,468 631.7,466.1 
		638.6,464.3 645.6,462.7 652.6,461.2 659.5,460 666.5,458.9 673.5,458 680.5,457.2 687.4,456.6 694.4,456.2 701.4,455.9 
		708.3,455.8 715.3,455.8 722.3,456 729.2,456.3 736.2,456.7 743.2,457.3 750.2,458 757.1,458.7 764.1,459.6 771.1,460.5 778,461.6 
		785,462.7 792,463.9 798.9,465.1 	"/>
	<path fill="none" stroke="#000000" stroke-width="0.3746" d="M108.9,530.9h7h7h7h7h7h7h7h7h7h7h7h7h7h7h7h7h7h7h7h7h7h7h7h7h7h7h7
		h7h7h7h7h7h7h7h7h7h7h7h7h7h7h7h7h7h7h7h7h7h7h7h7h7h7h7h7h7h7h7h7h7h7h7h7h7h7h7h7h7h7h7h7h7h7h7h7h7h7h7h7h7h7h7h7h7h7h7h7h7h7h7
		h7h7h7h7h7h7h7h7h7 M108.9,530.9V73.4 M108.9,530.9H98.6 M108.9,454.7H98.6 M108.9,378.4H98.6 M108.9,302.1H98.6 M108.9,225.9H98.6
		 M108.9,149.6H98.6 M108.9,73.4H98.6 M108.9,492.8h-6.2 M108.9,416.5h-6.2 M108.9,340.3h-6.2 M108.9,264h-6.2 M108.9,187.8h-6.2
		 M108.9,111.5h-6.2"/>
	<path d="M36.1,538.5c-1.1,0-2-0.5-2.7-1.6c-0.7-1.1-1-2.4-1-4.1c0-1.7,0.3-3.1,1-4.1c0.7-1,1.6-1.6,2.7-1.6c1.1,0,2.1,0.5,2.7,1.6
		c0.7,1,1,2.4,1,4.1c0,1.7-0.3,3.1-1,4.2C38.2,538,37.3,538.5,36.1,538.5L36.1,538.5z M36.1,537.4c1.5,0,2.3-1.6,2.3-4.7
		c0-3-0.8-4.6-2.3-4.6c-1.5,0-2.3,1.5-2.3,4.6C33.9,535.8,34.6,537.4,36.1,537.4L36.1,537.4z M42.3,538.2v-1.8h1.8v1.8H42.3
		L42.3,538.2z M50.3,538.5c-1.1,0-2-0.5-2.7-1.6c-0.7-1.1-1-2.4-1-4.1c0-1.7,0.3-3.1,1-4.1c0.7-1,1.6-1.6,2.7-1.6
		c1.1,0,2.1,0.5,2.7,1.6c0.7,1,1,2.4,1,4.1c0,1.7-0.3,3.1-1,4.2C52.4,538,51.5,538.5,50.3,538.5L50.3,538.5z M50.3,537.4
		c1.5,0,2.3-1.6,2.3-4.7c0-3-0.8-4.6-2.3-4.6c-1.5,0-2.3,1.5-2.3,4.6C48.1,535.8,48.8,537.4,50.3,537.4L50.3,537.4z M62.4,537.9
		c-1,0.3-1.8,0.4-2.5,0.4c-1.2,0-2.1-0.4-2.9-1.2c-0.7-0.8-1.1-1.8-1.1-3c0-1.2,0.3-2.2,1-3c0.7-0.8,1.5-1.2,2.5-1.2
		c1,0,1.7,0.3,2.2,1c0.5,0.7,0.8,1.7,0.8,2.9l0,0.4h-5c0.2,1.9,1.1,2.8,2.8,2.8c0.6,0,1.3-0.2,2.2-0.5V537.9L62.4,537.9z
		 M57.4,533.4h3.5c0-1.5-0.6-2.2-1.7-2.2C58.2,531.1,57.6,531.9,57.4,533.4L57.4,533.4z M68.8,538.2v-3.8h-3.8v-1.1h3.8v-3.8h1.1
		v3.8h3.8v1.1h-3.8v3.8H68.8L68.8,538.2z M80,538.5c-1.1,0-2-0.5-2.7-1.6c-0.7-1.1-1-2.4-1-4.1c0-1.7,0.3-3.1,1-4.1
		c0.7-1,1.6-1.6,2.7-1.6c1.1,0,2.1,0.5,2.7,1.6c0.7,1,1,2.4,1,4.1c0,1.7-0.3,3.1-1,4.2C82.1,538,81.2,538.5,80,538.5L80,538.5z
		 M80.1,537.4c1.5,0,2.3-1.6,2.3-4.7c0-3-0.8-4.6-2.3-4.6c-1.5,0-2.3,1.5-2.3,4.6C77.8,535.8,78.6,537.4,80.1,537.4L80.1,537.4z
		 M89.5,538.5c-1.1,0-2-0.5-2.7-1.6c-0.7-1.1-1-2.4-1-4.1c0-1.7,0.3-3.1,1-4.1c0.7-1,1.6-1.6,2.7-1.6c1.1,0,2.1,0.5,2.7,1.6
		c0.7,1,1,2.4,1,4.1c0,1.7-0.3,3.1-1,4.2C91.6,538,90.7,538.5,89.5,538.5L89.5,538.5z M89.5,537.4c1.5,0,2.3-1.6,2.3-4.7
		c0-3-0.8-4.6-2.3-4.6c-1.5,0-2.3,1.5-2.3,4.6C87.3,535.8,88,537.4,89.5,537.4L89.5,537.4z"/>
	<path d="M34.1,461.8v-1.3c0.4-1,1.3-2.1,2.5-3.2l0.8-0.7c1.1-1,1.6-1.9,1.6-2.9c0-0.6-0.2-1.1-0.5-1.4c-0.4-0.3-0.9-0.5-1.5-0.5
		c-0.8,0-1.6,0.3-2.7,0.9v-1.3c1-0.5,1.9-0.7,2.9-0.7c1,0,1.8,0.3,2.4,0.8c0.6,0.5,0.9,1.3,0.9,2.2c0,0.6-0.2,1.2-0.5,1.7
		c-0.3,0.5-0.9,1.1-1.7,1.8l-0.6,0.5c-1.2,1-1.8,1.9-2,2.8h4.7v1.3H34.1L34.1,461.8z M43.8,461.8V460h1.8v1.8H43.8L43.8,461.8z
		 M51.8,462c-1.1,0-2-0.5-2.7-1.6c-0.7-1.1-1-2.4-1-4.1c0-1.7,0.3-3.1,1-4.1c0.7-1,1.6-1.6,2.7-1.6c1.1,0,2.1,0.5,2.7,1.6
		c0.7,1,1,2.4,1,4.1c0,1.7-0.3,3.1-1,4.2C53.9,461.5,53,462,51.8,462L51.8,462z M51.8,460.9c1.5,0,2.3-1.6,2.3-4.7
		c0-3-0.8-4.6-2.3-4.6c-1.5,0-2.3,1.5-2.3,4.6C49.6,459.4,50.3,460.9,51.8,460.9L51.8,460.9z M63.9,461.5c-1,0.3-1.8,0.4-2.5,0.4
		c-1.2,0-2.1-0.4-2.9-1.2c-0.7-0.8-1.1-1.8-1.1-3c0-1.2,0.3-2.2,1-3c0.7-0.8,1.5-1.2,2.5-1.2c1,0,1.7,0.3,2.2,1
		c0.5,0.7,0.8,1.7,0.8,2.9l0,0.4h-5c0.2,1.9,1.1,2.8,2.8,2.8c0.6,0,1.3-0.2,2.2-0.5V461.5L63.9,461.5z M58.9,456.9h3.5
		c0-1.5-0.6-2.2-1.7-2.2C59.7,454.7,59.1,455.5,58.9,456.9L58.9,456.9z M70.3,461.8V458h-3.8v-1.1h3.8v-3.8h1.1v3.8h3.8v1.1h-3.8
		v3.8H70.3L70.3,461.8z M81.5,462c-1.1,0-2-0.5-2.7-1.6c-0.7-1.1-1-2.4-1-4.1c0-1.7,0.3-3.1,1-4.1c0.7-1,1.6-1.6,2.7-1.6
		c1.1,0,2.1,0.5,2.7,1.6c0.7,1,1,2.4,1,4.1c0,1.7-0.3,3.1-1,4.2C83.6,461.5,82.7,462,81.5,462L81.5,462z M81.6,460.9
		c1.5,0,2.3-1.6,2.3-4.7c0-3-0.8-4.6-2.3-4.6c-1.5,0-2.3,1.5-2.3,4.6C79.3,459.4,80.1,460.9,81.6,460.9L81.6,460.9z M88.6,461.8
		c0.1-0.8,0.3-1.6,0.6-2.2c0.3-0.6,0.7-1.5,1.4-2.5l3-4.8h-5.6v-1.4h7v1.4c-2.8,4.1-4.3,7.3-4.7,9.5H88.6L88.6,461.8z"/>
	<path d="M37,385.3v-3.1h-4.9v-1.1l4.9-6.7h1.4v6.6h1.4v1.2h-1.4v3.1H37L37,385.3z M33.6,381.1h3.6v-4.8L33.6,381.1L33.6,381.1z
		 M42.3,385.3v-1.8h1.8v1.8H42.3L42.3,385.3z M50.3,385.6c-1.1,0-2-0.5-2.7-1.6c-0.7-1.1-1-2.4-1-4.1c0-1.7,0.3-3.1,1-4.1
		c0.7-1,1.6-1.6,2.7-1.6c1.1,0,2.1,0.5,2.7,1.6c0.7,1,1,2.4,1,4.1c0,1.7-0.3,3.1-1,4.2C52.4,385.1,51.5,385.6,50.3,385.6L50.3,385.6
		z M50.3,384.5c1.5,0,2.3-1.6,2.3-4.7c0-3-0.8-4.6-2.3-4.6c-1.5,0-2.3,1.5-2.3,4.6C48.1,383,48.8,384.5,50.3,384.5L50.3,384.5z
		 M62.4,385.1c-1,0.3-1.8,0.4-2.5,0.4c-1.2,0-2.1-0.4-2.9-1.2c-0.7-0.8-1.1-1.8-1.1-3c0-1.2,0.3-2.2,1-3c0.7-0.8,1.5-1.2,2.5-1.2
		c1,0,1.7,0.3,2.2,1c0.5,0.7,0.8,1.7,0.8,2.9l0,0.4h-5c0.2,1.9,1.1,2.8,2.8,2.8c0.6,0,1.3-0.2,2.2-0.5V385.1L62.4,385.1z
		 M57.4,380.5h3.5c0-1.5-0.6-2.2-1.7-2.2C58.2,378.3,57.6,379,57.4,380.5L57.4,380.5z M68.8,385.3v-3.8h-3.8v-1.1h3.8v-3.8h1.1v3.8
		h3.8v1.1h-3.8v3.8H68.8L68.8,385.3z M80,385.6c-1.1,0-2-0.5-2.7-1.6c-0.7-1.1-1-2.4-1-4.1c0-1.7,0.3-3.1,1-4.1
		c0.7-1,1.6-1.6,2.7-1.6c1.1,0,2.1,0.5,2.7,1.6c0.7,1,1,2.4,1,4.1c0,1.7-0.3,3.1-1,4.2C82.1,385.1,81.2,385.6,80,385.6L80,385.6z
		 M80.1,384.5c1.5,0,2.3-1.6,2.3-4.7c0-3-0.8-4.6-2.3-4.6c-1.5,0-2.3,1.5-2.3,4.6C77.8,383,78.6,384.5,80.1,384.5L80.1,384.5z
		 M87.1,385.3c0.1-0.8,0.3-1.6,0.6-2.2c0.3-0.6,0.7-1.5,1.4-2.5l3-4.8h-5.6v-1.4h7v1.4c-2.8,4.1-4.3,7.3-4.7,9.5H87.1L87.1,385.3z"
		/>
	<path d="M34,304.8c0.7-0.9,1.6-1.3,2.6-1.3c0.9,0,1.7,0.3,2.3,0.9c0.6,0.6,0.9,1.4,0.9,2.4c0,1.1-0.3,2.1-1,2.8
		c-0.7,0.7-1.5,1.1-2.6,1.1c-1.2,0-2.1-0.5-2.8-1.4c-0.7-1-1-2.3-1-4c0-1.9,0.4-3.3,1.2-4.4c0.8-1,1.9-1.6,3.3-1.6
		c0.6,0,1.4,0.1,2.4,0.4v1.3c-1-0.4-1.9-0.6-2.5-0.6C34.9,300.4,34,301.8,34,304.8L34,304.8z M38.3,307.1c0-0.8-0.2-1.5-0.6-1.9
		c-0.4-0.5-0.9-0.7-1.5-0.7c-0.6,0-1.1,0.2-1.6,0.6c-0.4,0.4-0.7,0.9-0.7,1.5c0,0.9,0.2,1.6,0.6,2.2c0.4,0.6,1,0.8,1.7,0.8
		c0.6,0,1.1-0.2,1.5-0.7C38.2,308.5,38.3,307.9,38.3,307.1L38.3,307.1z M42.3,310.4v-1.8h1.8v1.8H42.3L42.3,310.4z M50.3,310.7
		c-1.1,0-2-0.5-2.7-1.6c-0.7-1.1-1-2.4-1-4.1c0-1.7,0.3-3.1,1-4.1c0.7-1,1.6-1.6,2.7-1.6c1.1,0,2.1,0.5,2.7,1.6c0.7,1,1,2.4,1,4.1
		c0,1.7-0.3,3.1-1,4.2C52.4,310.1,51.5,310.7,50.3,310.7L50.3,310.7z M50.3,309.6c1.5,0,2.3-1.6,2.3-4.7c0-3-0.8-4.6-2.3-4.6
		c-1.5,0-2.3,1.5-2.3,4.6C48.1,308,48.8,309.6,50.3,309.6L50.3,309.6z M62.4,310.1c-1,0.3-1.8,0.4-2.5,0.4c-1.2,0-2.1-0.4-2.9-1.2
		c-0.7-0.8-1.1-1.8-1.1-3c0-1.2,0.3-2.2,1-3c0.7-0.8,1.5-1.2,2.5-1.2c1,0,1.7,0.3,2.2,1c0.5,0.7,0.8,1.7,0.8,2.9l0,0.4h-5
		c0.2,1.9,1.1,2.8,2.8,2.8c0.6,0,1.3-0.2,2.2-0.5V310.1L62.4,310.1z M57.4,305.6h3.5c0-1.5-0.6-2.2-1.7-2.2
		C58.2,303.3,57.6,304.1,57.4,305.6L57.4,305.6z M68.8,310.4v-3.8h-3.8v-1.1h3.8v-3.8h1.1v3.8h3.8v1.1h-3.8v3.8H68.8L68.8,310.4z
		 M80,310.7c-1.1,0-2-0.5-2.7-1.6c-0.7-1.1-1-2.4-1-4.1c0-1.7,0.3-3.1,1-4.1c0.7-1,1.6-1.6,2.7-1.6c1.1,0,2.1,0.5,2.7,1.6
		c0.7,1,1,2.4,1,4.1c0,1.7-0.3,3.1-1,4.2C82.1,310.1,81.2,310.7,80,310.7L80,310.7z M80.1,309.6c1.5,0,2.3-1.6,2.3-4.7
		c0-3-0.8-4.6-2.3-4.6c-1.5,0-2.3,1.5-2.3,4.6C77.8,308,78.6,309.6,80.1,309.6L80.1,309.6z M87.1,310.4c0.1-0.8,0.3-1.6,0.6-2.2
		c0.3-0.6,0.7-1.5,1.4-2.5l3-4.8h-5.6v-1.4h7v1.4c-2.8,4.1-4.3,7.3-4.7,9.5H87.1L87.1,310.4z"/>
	<path d="M36.3,228.1c-1.1-0.7-1.6-1.6-1.6-2.4c0-0.8,0.3-1.5,0.9-2c0.6-0.5,1.4-0.8,2.3-0.8c0.9,0,1.6,0.2,2.2,0.7
		c0.6,0.4,0.8,1,0.8,1.7c0,1-0.7,2-2,2.9c1.6,0.8,2.5,1.8,2.5,3.1c0,0.9-0.3,1.6-1,2.2c-0.7,0.6-1.6,0.9-2.7,0.9
		c-1.1,0-1.9-0.3-2.6-0.8c-0.7-0.5-1-1.2-1-2.1C34.2,230,34.9,228.9,36.3,228.1L36.3,228.1z M38.2,227.6c1-0.7,1.5-1.4,1.5-2.2
		c0-0.4-0.2-0.8-0.5-1c-0.3-0.3-0.8-0.4-1.3-0.4c-0.5,0-1,0.1-1.3,0.4c-0.3,0.3-0.5,0.6-0.5,1c0,0.4,0.1,0.8,0.4,1.1
		C36.8,226.7,37.4,227.1,38.2,227.6L38.2,227.6z M37.1,228.6c-0.6,0.4-1,0.8-1.2,1.2c-0.2,0.3-0.3,0.7-0.3,1.2
		c0,0.6,0.2,1.1,0.6,1.5c0.4,0.4,0.9,0.6,1.6,0.6c0.6,0,1.1-0.2,1.5-0.5c0.4-0.3,0.6-0.8,0.6-1.3c0-0.4-0.1-0.8-0.4-1.1
		c-0.2-0.3-0.7-0.6-1.4-1.1L37.1,228.6L37.1,228.6z M43.8,234v-1.8h1.8v1.8H43.8L43.8,234z M51.8,234.2c-1.1,0-2-0.5-2.7-1.6
		c-0.7-1.1-1-2.4-1-4.1c0-1.7,0.3-3.1,1-4.1c0.7-1,1.6-1.6,2.7-1.6c1.1,0,2.1,0.5,2.7,1.6c0.7,1,1,2.4,1,4.1c0,1.7-0.3,3.1-1,4.2
		C53.9,233.7,53,234.2,51.8,234.2L51.8,234.2z M51.8,233.1c1.5,0,2.3-1.6,2.3-4.7c0-3-0.8-4.6-2.3-4.6c-1.5,0-2.3,1.5-2.3,4.6
		C49.6,231.6,50.3,233.1,51.8,233.1L51.8,233.1z M63.9,233.7c-1,0.3-1.8,0.4-2.5,0.4c-1.2,0-2.1-0.4-2.9-1.2c-0.7-0.8-1.1-1.8-1.1-3
		c0-1.2,0.3-2.2,1-3c0.7-0.8,1.5-1.2,2.5-1.2c1,0,1.7,0.3,2.2,1c0.5,0.7,0.8,1.7,0.8,2.9l0,0.4h-5c0.2,1.9,1.1,2.8,2.8,2.8
		c0.6,0,1.3-0.2,2.2-0.5V233.7L63.9,233.7z M58.9,229.1h3.5c0-1.5-0.6-2.2-1.7-2.2C59.7,226.9,59.1,227.6,58.9,229.1L58.9,229.1z
		 M70.3,234v-3.8h-3.8v-1.1h3.8v-3.8h1.1v3.8h3.8v1.1h-3.8v3.8H70.3L70.3,234z M81.5,234.2c-1.1,0-2-0.5-2.7-1.6
		c-0.7-1.1-1-2.4-1-4.1c0-1.7,0.3-3.1,1-4.1c0.7-1,1.6-1.6,2.7-1.6c1.1,0,2.1,0.5,2.7,1.6c0.7,1,1,2.4,1,4.1c0,1.7-0.3,3.1-1,4.2
		C83.6,233.7,82.7,234.2,81.5,234.2L81.5,234.2z M81.6,233.1c1.5,0,2.3-1.6,2.3-4.7c0-3-0.8-4.6-2.3-4.6c-1.5,0-2.3,1.5-2.3,4.6
		C79.3,231.6,80.1,233.1,81.6,233.1L81.6,233.1z M88.6,234c0.1-0.8,0.3-1.6,0.6-2.2c0.3-0.6,0.7-1.5,1.4-2.5l3-4.8h-5.6v-1.4h7v1.4
		c-2.8,4.1-4.3,7.3-4.7,9.5H88.6L88.6,234z"/>
	<path d="M35.1,157.5v-1.1h2.2v-8.5l-2.2,0.5v-1.1l3.6-0.9v10h2.2v1.1H35.1L35.1,157.5z M43.8,157.5v-1.8h1.8v1.8H43.8L43.8,157.5z
		 M51.8,157.8c-1.1,0-2-0.5-2.7-1.6c-0.7-1.1-1-2.4-1-4.1c0-1.7,0.3-3.1,1-4.1c0.7-1,1.6-1.6,2.7-1.6c1.1,0,2.1,0.5,2.7,1.6
		c0.7,1,1,2.4,1,4.1c0,1.7-0.3,3.1-1,4.2C53.9,157.3,53,157.8,51.8,157.8L51.8,157.8z M51.8,156.7c1.5,0,2.3-1.6,2.3-4.7
		c0-3-0.8-4.6-2.3-4.6c-1.5,0-2.3,1.5-2.3,4.6C49.6,155.2,50.3,156.7,51.8,156.7L51.8,156.7z M63.9,157.3c-1,0.3-1.8,0.4-2.5,0.4
		c-1.2,0-2.1-0.4-2.9-1.2c-0.7-0.8-1.1-1.8-1.1-3c0-1.2,0.3-2.2,1-3c0.7-0.8,1.5-1.2,2.5-1.2c1,0,1.7,0.3,2.2,1
		c0.5,0.7,0.8,1.7,0.8,2.9l0,0.4h-5c0.2,1.9,1.1,2.8,2.8,2.8c0.6,0,1.3-0.2,2.2-0.5V157.3L63.9,157.3z M58.9,152.7h3.5
		c0-1.5-0.6-2.2-1.7-2.2C59.7,150.5,59.1,151.2,58.9,152.7L58.9,152.7z M70.3,157.5v-3.8h-3.8v-1.1h3.8v-3.8h1.1v3.8h3.8v1.1h-3.8
		v3.8H70.3L70.3,157.5z M81.5,157.8c-1.1,0-2-0.5-2.7-1.6c-0.7-1.1-1-2.4-1-4.1c0-1.7,0.3-3.1,1-4.1c0.7-1,1.6-1.6,2.7-1.6
		c1.1,0,2.1,0.5,2.7,1.6c0.7,1,1,2.4,1,4.1c0,1.7-0.3,3.1-1,4.2C83.6,157.3,82.7,157.8,81.5,157.8L81.5,157.8z M81.6,156.7
		c1.5,0,2.3-1.6,2.3-4.7c0-3-0.8-4.6-2.3-4.6c-1.5,0-2.3,1.5-2.3,4.6C79.3,155.2,80.1,156.7,81.6,156.7L81.6,156.7z M89.8,151.6
		c-1.1-0.7-1.6-1.6-1.6-2.4c0-0.8,0.3-1.5,0.9-2c0.6-0.5,1.4-0.8,2.3-0.8c0.9,0,1.6,0.2,2.2,0.7c0.6,0.4,0.8,1,0.8,1.7
		c0,1-0.7,2-2,2.9c1.6,0.8,2.5,1.8,2.5,3.1c0,0.9-0.3,1.6-1,2.2c-0.7,0.6-1.6,0.9-2.7,0.9c-1.1,0-1.9-0.3-2.6-0.8
		c-0.7-0.5-1-1.2-1-2.1C87.6,153.6,88.3,152.5,89.8,151.6L89.8,151.6z M91.6,151.2c1-0.7,1.5-1.4,1.5-2.2c0-0.4-0.2-0.8-0.5-1
		c-0.3-0.3-0.8-0.4-1.3-0.4c-0.5,0-1,0.1-1.3,0.4c-0.3,0.3-0.5,0.6-0.5,1c0,0.4,0.1,0.8,0.4,1.1C90.2,150.3,90.8,150.7,91.6,151.2
		L91.6,151.2z M90.5,152.2c-0.6,0.4-1,0.8-1.2,1.2c-0.2,0.3-0.3,0.7-0.3,1.2c0,0.6,0.2,1.1,0.6,1.5c0.4,0.4,0.9,0.6,1.6,0.6
		c0.6,0,1.1-0.2,1.5-0.5c0.4-0.3,0.6-0.8,0.6-1.3c0-0.4-0.1-0.8-0.4-1.1c-0.2-0.3-0.7-0.6-1.4-1.1L90.5,152.2L90.5,152.2z"/>
	<path d="M35.1,81.1V80h2.2v-8.5L35.1,72v-1.1l3.6-0.9v10h2.2v1.1H35.1L35.1,81.1z M43.8,81.1v-1.8h1.8v1.8H43.8L43.8,81.1z
		 M48.4,81.1v-1.3c0.4-1,1.3-2,2.5-3.2l0.8-0.7c1.1-1,1.6-1.9,1.6-2.9c0-0.6-0.2-1.1-0.5-1.4c-0.4-0.3-0.9-0.5-1.5-0.5
		c-0.8,0-1.6,0.3-2.7,0.9v-1.3c1-0.5,1.9-0.7,2.9-0.7c1,0,1.8,0.3,2.4,0.8c0.6,0.5,0.9,1.3,0.9,2.2c0,0.6-0.2,1.2-0.5,1.7
		c-0.3,0.5-0.9,1.1-1.7,1.8L52.1,77c-1.2,1-1.8,1.9-2,2.8h4.7v1.3H48.4L48.4,81.1z M63.9,80.8c-1,0.3-1.8,0.4-2.5,0.4
		c-1.2,0-2.1-0.4-2.9-1.2c-0.7-0.8-1.1-1.8-1.1-3c0-1.2,0.3-2.2,1-3c0.7-0.8,1.5-1.2,2.5-1.2c1,0,1.7,0.3,2.2,1
		c0.5,0.7,0.8,1.7,0.8,2.9l0,0.4h-5c0.2,1.9,1.1,2.8,2.8,2.8c0.6,0,1.3-0.2,2.2-0.5V80.8L63.9,80.8z M58.9,76.2h3.5
		c0-1.5-0.6-2.2-1.7-2.2C59.7,74,59.1,74.8,58.9,76.2L58.9,76.2z M70.3,81.1v-3.8h-3.8v-1.1h3.8v-3.8h1.1v3.8h3.8v1.1h-3.8v3.8H70.3
		L70.3,81.1z M81.5,81.4c-1.1,0-2-0.5-2.7-1.6c-0.7-1.1-1-2.4-1-4.1c0-1.7,0.3-3.1,1-4.1c0.7-1,1.6-1.6,2.7-1.6
		c1.1,0,2.1,0.5,2.7,1.6c0.7,1,1,2.4,1,4.1c0,1.7-0.3,3.1-1,4.2C83.6,80.8,82.7,81.4,81.5,81.4L81.5,81.4z M81.6,80.3
		c1.5,0,2.3-1.6,2.3-4.7c0-3-0.8-4.6-2.3-4.6c-1.5,0-2.3,1.5-2.3,4.6C79.3,78.7,80.1,80.3,81.6,80.3L81.6,80.3z M89.8,75.2
		c-1.1-0.7-1.6-1.6-1.6-2.4c0-0.8,0.3-1.5,0.9-2c0.6-0.5,1.4-0.8,2.3-0.8c0.9,0,1.6,0.2,2.2,0.7c0.6,0.4,0.8,1,0.8,1.7
		c0,1-0.7,2-2,2.9c1.6,0.8,2.5,1.8,2.5,3.1c0,0.9-0.3,1.6-1,2.2c-0.7,0.6-1.6,0.9-2.7,0.9c-1.1,0-1.9-0.3-2.6-0.8
		c-0.7-0.5-1-1.2-1-2.1C87.6,77.1,88.3,76,89.8,75.2L89.8,75.2z M91.6,74.7c1-0.7,1.5-1.4,1.5-2.2c0-0.4-0.2-0.8-0.5-1
		c-0.3-0.3-0.8-0.4-1.3-0.4c-0.5,0-1,0.1-1.3,0.4c-0.3,0.3-0.5,0.6-0.5,1c0,0.4,0.1,0.8,0.4,1.1C90.2,73.9,90.8,74.3,91.6,74.7
		L91.6,74.7z M90.5,75.8c-0.6,0.4-1,0.8-1.2,1.2c-0.2,0.3-0.3,0.7-0.3,1.2c0,0.6,0.2,1.1,0.6,1.5c0.4,0.4,0.9,0.6,1.6,0.6
		c0.6,0,1.1-0.2,1.5-0.5c0.4-0.3,0.6-0.8,0.6-1.3c0-0.4-0.1-0.8-0.4-1.1c-0.2-0.3-0.7-0.6-1.4-1.1L90.5,75.8L90.5,75.8z"/>
	<path fill="none" stroke="#000000" stroke-width="0.3746" d="M108.9,530.9h690 M108.9,530.9v6.9 M338.9,530.9v6.9 M568.9,530.9v6.9
		 M798.9,530.9v6.9 M154.9,530.9v4.1 M200.9,530.9v4.1 M246.9,530.9v4.1 M292.9,530.9v4.1 M384.9,530.9v4.1 M430.9,530.9v4.1
		 M476.9,530.9v4.1 M522.9,530.9v4.1 M614.9,530.9v4.1 M660.9,530.9v4.1 M706.9,530.9v4.1 M752.9,530.9v4.1"/>
	<path d="M108,555c-1.1,0-2-0.5-2.7-1.6c-0.7-1.1-1-2.4-1-4.1c0-1.7,0.3-3.1,1-4.1c0.7-1,1.6-1.6,2.7-1.6c1.1,0,2.1,0.5,2.7,1.6
		c0.7,1,1,2.4,1,4.1c0,1.7-0.3,3.1-1,4.2C110.1,554.4,109.2,555,108,555L108,555z M108,553.9c1.5,0,2.3-1.6,2.3-4.7
		c0-3-0.8-4.6-2.3-4.6c-1.5,0-2.3,1.5-2.3,4.6C105.8,552.3,106.5,553.9,108,553.9L108,553.9z"/>
	<path d="M335.9,554.7v-1.3c0.7,0.3,1.4,0.4,2,0.4c0.7,0,1.3-0.2,1.7-0.6c0.4-0.4,0.6-1,0.6-1.7c0-1.6-1.1-2.4-3.4-2.4
		c-0.3,0-0.5,0-0.8,0.1v-5.3h5.5v1.3h-4.2v2.9c1.4,0,2.5,0.3,3.3,1c0.8,0.6,1.2,1.5,1.2,2.7c0,1.1-0.4,1.9-1.1,2.5
		c-0.7,0.6-1.7,0.9-3,0.9C337.2,555,336.6,554.9,335.9,554.7L335.9,554.7z"/>
	<path d="M561.1,554.7v-1.1h2.2v-8.5l-2.2,0.5v-1.1l3.6-0.9v10h2.2v1.1H561.1L561.1,554.7z M573,555c-1.1,0-2-0.5-2.7-1.6
		c-0.7-1.1-1-2.4-1-4.1c0-1.7,0.3-3.1,1-4.1c0.7-1,1.6-1.6,2.7-1.6c1.1,0,2.1,0.5,2.8,1.6c0.7,1,1,2.4,1,4.1c0,1.7-0.3,3.1-1,4.2
		C575.1,554.4,574.2,555,573,555L573,555z M573,553.9c1.5,0,2.3-1.6,2.3-4.7c0-3-0.8-4.6-2.3-4.6c-1.5,0-2.2,1.5-2.2,4.6
		C570.8,552.3,571.5,553.9,573,553.9L573,553.9z"/>
	<path d="M791.8,554.7v-1.1h2.2v-8.5l-2.2,0.5v-1.1l3.6-0.9v10h2.2v1.1H791.8L791.8,554.7z M800.9,554.7v-1.3c0.7,0.3,1.4,0.4,2,0.4
		c0.7,0,1.3-0.2,1.7-0.6c0.4-0.4,0.6-1,0.6-1.7c0-1.6-1.1-2.4-3.4-2.4c-0.3,0-0.5,0-0.8,0.1v-5.3h5.5v1.3h-4.2v2.9
		c1.4,0,2.5,0.3,3.3,1c0.8,0.6,1.2,1.5,1.2,2.7c0,1.1-0.4,1.9-1.1,2.5c-0.7,0.6-1.7,0.9-2.9,0.9C802.2,555,801.6,554.9,800.9,554.7
		L800.9,554.7z"/>
</g>
</svg>
